<?xml version="1.0" encoding="utf-8"?>
<!-- Generator: Adobe Illustrator 23.0.5, SVG Export Plug-In . SVG Version: 6.00 Build 0)  -->
<svg version="1.1" id="Layer_1" xmlns="http://www.w3.org/2000/svg" xmlns:xlink="http://www.w3.org/1999/xlink" x="0px" y="0px"
	 viewBox="0 0 3141 2000" style="enable-background:new 0 0 3141 2000;" xml:space="preserve">
<style type="text/css">
	.st0{display:none;}
	.st1{display:inline;}
	.st2{fill:#FFFFFF;}
	.st3{opacity:0.6;fill:#EAFCFC;}
	.st4{fill:#F47458;}
	.st5{fill:#F7A491;}
	.st6{fill:#B75742;}
	.st7{fill:#349179;}
	.st8{fill:#3C6991;}
	.st9{fill:#D2E7F3;}
	.st10{fill:#5280B3;}
	.st11{fill:#13375B;}
	.st12{fill:#33628C;}
	.st13{fill:#50BFA5;}
	.st14{fill:#FAE0B2;}
	.st15{fill:#184655;}
	.st16{fill:#74BDC1;}
	.st17{fill:#256653;}
	.st18{fill:#3C8F7C;}
	.st19{fill:#327F6B;}
	.st20{fill:#81B4DA;}
	.st21{opacity:0.5;fill:#90A6CB;}
	.st22{fill:#F38B80;}
	.st23{fill:#F7CC7F;}
	.st24{fill:#0E2D47;}
	.st25{fill:#366A99;}
	.st26{fill:#CCE2F2;}
	.st27{fill:#A2CCDB;}
	.st28{fill:#B9DBEA;}
	.st29{fill:#E8F1F9;}
	.st30{fill:#F3FAFF;}
	.st31{fill:#86B1F2;}
	.st32{fill:#9BC1F9;}
	.st33{fill:#FE875E;}
	.st34{opacity:0.5;fill:#D2E7F3;}
	.st35{fill:#FAFDFF;}
	.st36{fill:#183658;}
</style>
<g>
	<g class="st0">
		<g class="st1">
			<rect class="st2" width="3141" height="2000"/>
		</g>
	</g>
	<path class="st3" d="M1151.4,315.1c0,0,719.1,102.3,652.2,285.8c-66.9,183.5,357.9-65.2,527.4,1c120.7,47.1,72.4,190.5,130.8,248.3
		c133.9,132.5,270.8-34.3,441.2,65.8c170.4,100.1-25.6,1014.5-95,1014.4l-2538.4,0.1c0,0-188-251-13.6-408
		c174.4-157,54.7-228.8,33.5-289.5c-24.3-69.7-111.5-268.6,136.8-355.7c180-63.1,184.8-283.8,177.5-323.8
		C603.6,553.4,534,236.7,1151.4,315.1z"/>
	<path class="st4" d="M917.4,806.8c0,2.2-1.7,3.9-3.9,3.9c-2.2,0-3.9-1.7-3.9-3.9c0-2.2,1.7-3.9,3.9-3.9
		C915.6,802.9,917.4,804.7,917.4,806.8z"/>
	<path class="st4" d="M953.7,806.8c0,2.2-1.7,3.9-3.9,3.9c-2.2,0-3.9-1.7-3.9-3.9c0-2.2,1.7-3.9,3.9-3.9
		C952,802.9,953.7,804.7,953.7,806.8z"/>
	<path class="st4" d="M990.1,806.8c0,2.2-1.7,3.9-3.9,3.9c-2.2,0-3.9-1.7-3.9-3.9c0-2.2,1.7-3.9,3.9-3.9
		C988.3,802.9,990.1,804.7,990.1,806.8z"/>
	<path class="st4" d="M1026.4,806.8c0,2.2-1.7,3.9-3.9,3.9c-2.2,0-3.9-1.7-3.9-3.9c0-2.2,1.7-3.9,3.9-3.9
		C1024.7,802.9,1026.4,804.7,1026.4,806.8z"/>
	<path class="st4" d="M1062.8,806.8c0,2.2-1.7,3.9-3.9,3.9c-2.2,0-3.9-1.7-3.9-3.9c0-2.2,1.7-3.9,3.9-3.9
		C1061.1,802.9,1062.8,804.7,1062.8,806.8z"/>
	<g>
		<path class="st5" d="M1724.4,1240.8c0,0,13.7,12.4,28.5,8.2c14.7-4.1,42.2-36.7,50.2-39c8-2.3,12.7,0.3,12.7,0.3l-50.9,103.5
			l-31-15.6l-20.5-15.2L1724.4,1240.8z"/>
		<path class="st6" d="M1761.2,1245c0,0-1.5,31.9-13.9,42c-12.4,10.1-14,8.9-13.3,13.7c0.7,4.9,29.6,19.8,29.6,19.8l57.5-116.3
			c3.6-8.3-0.6-15.2-8.8-10.9c-5.6,3-10.4,7.1-13.5,9.4C1789.3,1209.4,1761.2,1245,1761.2,1245z"/>
	</g>
	<path class="st7" d="M997.2,1241.1c0,0,327.9-96.1,371.3-93.2c40,2.7,375.8,92.7,375.8,92.7s2.5,33.6-19.4,49.1
		c0,0-273.2-12.5-364.9-36.8c0,0-222.2,165.9-362.8,160.6s-108.7-99.1-108.7-99.1L997.2,1241.1z"/>
	
		<rect x="1398.3" y="721.8" transform="matrix(-1 -1.224647e-16 1.224647e-16 -1 2962.0903 1459.1948)" class="st8" width="165.4" height="15.5"/>
	
		<rect x="1398.3" y="790.8" transform="matrix(-1 -1.224647e-16 1.224647e-16 -1 2962.0903 1597.1416)" class="st8" width="165.4" height="15.5"/>
	<g>
		<g>
			<path class="st9" d="M1373.9,1107.7h39V583.1c0-22.1,18-40.1,40.1-40.1h375.7c13,0,24.1-9.3,26.3-22.2
				c2.2-12.9-5.2-25.3-17.5-29.6l-465.1-161.9c-58.1-20.2-121.9-14-175,17.1l19.7,33.6c43.2-25.3,95.2-30.4,142.5-13.9l396.1,137.9
				h-302.6c-43.6,0-79,35.5-79,79V1107.7z"/>
		</g>
	</g>
	<path class="st9" d="M1557.9,836.4h310.8c3.1,0,5.6-2.5,5.6-5.6V643.8c0-3.1-2.5-5.6-5.6-5.6h-310.8c-3.1,0-5.6,2.5-5.6,5.6v187.1
		C1552.3,834,1554.8,836.4,1557.9,836.4z"/>
	<path class="st10" d="M1372,815.1h41c1.9,0,3.4-1.5,3.4-3.4v-95.1c0-1.9-1.5-3.4-3.4-3.4h-41c-1.9,0-3.4,1.5-3.4,3.4v95.1
		C1368.6,813.5,1370.1,815.1,1372,815.1z"/>
	
		<ellipse transform="matrix(0.9871 -0.1602 0.1602 0.9871 -59.0056 297.2454)" class="st10" cx="1814.2" cy="514.6" rx="46.6" ry="46.6"/>
	<path class="st8" d="M1792,514.6c0,12.2,9.9,22.1,22.1,22.1s22.1-9.9,22.1-22.1c0-12.2-9.9-22.1-22.1-22.1S1792,502.4,1792,514.6z"
		/>
	<rect x="1230" y="1095.9" class="st9" width="359.7" height="747.1"/>
	<path class="st8" d="M1495.8,989.5c0,0-25.8,6-28.2,43.8h-11.8l-1.4-21.9c0,0,12.1-22.3,13.2-23.4c1.1-1.1,20-5.3,21-5.3
		S1495.8,989.5,1495.8,989.5z"/>
	<rect x="1455.8" y="1056.3" class="st8" width="104.1" height="14.7"/>
	<g>
		<g>
			<path class="st9" d="M1299.9,1087.5h33.7v-34.2c0-63.5-51.7-115.2-115.2-115.2h-158.3v33.7h158.3c45,0,81.5,36.6,81.5,81.5
				V1087.5z"/>
		</g>
	</g>
	<path class="st10" d="M1440.8,1033.3c0,0,4.6-44.9,32.8-53.8c28.2-8.9,38.5,16.4,38.5,16.4h-7.8c0,0-10.7-13.2-27.8-7.1
		c-17.1,6.1-20.7,44.6-20.7,44.6H1440.8z"/>
	<path class="st10" d="M1589.7,1095.9H1230v-18c0-5.2,4.2-9.5,9.5-9.5h340.7c5.2,0,9.5,4.2,9.5,9.5V1095.9z"/>
	<path class="st9" d="M1564.1,1056.3h-116c-16.2,0-29.4-13.2-29.4-29.4l0,0h174.8l0,0C1593.5,1043.2,1580.3,1056.3,1564.1,1056.3z"
		/>
	<path class="st11" d="M917.5,806.8h-8.1c-1.6,0-2.9,1.3-2.9,2.9v138.7c0,1.6,1.3,2.9,2.9,2.9h8.1c1.6,0,2.9-1.3,2.9-2.9V809.7
		C920.4,808.1,919.1,806.8,917.5,806.8z"/>
	<path class="st11" d="M953.9,806.8h-8.1c-1.6,0-2.9,1.3-2.9,2.9v138.7c0,1.6,1.3,2.9,2.9,2.9h8.1c1.6,0,2.9-1.3,2.9-2.9V809.7
		C956.8,808.1,955.5,806.8,953.9,806.8z"/>
	<path class="st11" d="M990.3,806.8h-8.1c-1.6,0-2.9,1.3-2.9,2.9v138.7c0,1.6,1.3,2.9,2.9,2.9h8.1c1.6,0,2.9-1.3,2.9-2.9V809.7
		C993.1,808.1,991.8,806.8,990.3,806.8z"/>
	<path class="st11" d="M1026.6,806.8h-8.1c-1.6,0-2.9,1.3-2.9,2.9v138.7c0,1.6,1.3,2.9,2.9,2.9h8.1c1.6,0,2.9-1.3,2.9-2.9V809.7
		C1029.5,808.1,1028.2,806.8,1026.6,806.8z"/>
	<path class="st11" d="M1063,806.8h-8.1c-1.6,0-2.9,1.3-2.9,2.9v138.7c0,1.6,1.3,2.9,2.9,2.9h8.1c1.6,0,2.9-1.3,2.9-2.9V809.7
		C1065.9,808.1,1064.6,806.8,1063,806.8z"/>
	<g>
		<path class="st11" d="M925.5,1088c-7.8,0-16.2-4.7-17.7-15.4l-9.4-67l2.4-0.3l9.4,67c1.3,9.4,9,13.5,15.7,13.3
			c6.9-0.2,14.2-4.6,15-14l7.7-83.9l2.4,0.2l-7.7,83.9c-1,10.9-9.5,16-17.4,16.2C925.8,1088,925.6,1088,925.5,1088z"/>
	</g>
	<g>
		<path class="st11" d="M987,1088c-7.8,0-16.2-4.7-17.7-15.4l-9.4-67l2.4-0.3l9.4,67c1.3,9.4,8.9,13.5,15.7,13.3
			c6.9-0.2,14.2-4.6,15-14l7.7-83.9l2.4,0.2l-7.7,83.9c-1,10.9-9.5,16-17.4,16.2C987.3,1088,987.1,1088,987,1088z"/>
	</g>
	<g>
		<path class="st11" d="M1052.7,1088c-7.8,0-16.2-4.7-17.7-15.4l-9.4-67l2.4-0.3l9.4,67c1.3,9.4,8.8,13.5,15.7,13.3
			c6.9-0.2,14.2-4.6,15-14l7.7-83.9l2.4,0.2l-7.7,83.9c-1,10.9-9.5,16-17.4,16.2C1053,1088,1052.9,1088,1052.7,1088z"/>
	</g>
	<g>
		<path class="st10" d="M956.5,1116.7c-10.6,0-22.1-6.4-24.1-21l-13.1-93.3l2.4-0.3l13.1,93.3c1.9,13.4,12.7,19.1,22.3,18.9
			c9.8-0.2,20.2-6.5,21.4-20l10.7-116.8l2.4,0.2l-10.7,116.8c-1.4,15-12.9,21.9-23.7,22.2C956.9,1116.7,956.7,1116.7,956.5,1116.7z"
			/>
	</g>
	<g>
		<path class="st12" d="M1016.7,1116.7c-10.6,0-22.1-6.4-24.1-21l-13.1-93.3l2.4-0.3l13.1,93.3c1.9,13.4,12.5,19.1,22.3,18.9
			c9.8-0.2,20.2-6.5,21.4-20l10.7-116.8l2.4,0.2l-10.7,116.8c-1.4,15-12.9,21.9-23.7,22.2
			C1017.1,1116.7,1016.9,1116.7,1016.7,1116.7z"/>
	</g>
	<g>
		<path class="st5" d="M1676.3,1239.4c0,0,16.9,7.5,29.6-1c12.7-8.5,28.8-48,35.7-52.7c6.9-4.6,12.2-3.6,12.2-3.6l-16.2,114.2
			l-34.3-5.2l-24.2-8.1L1676.3,1239.4z"/>
		<path class="st6" d="M1712.5,1231.9c0,0,8.5,30.8-0.2,44.2c-8.7,13.4-10.6,12.8-8.4,17.2c2.1,4.4,34.3,9.6,34.3,9.6l18.5-128.4
			c0.8-9-5.2-14.3-11.7-7.6c-4.4,4.6-7.7,10-9.9,13.1C1728.2,1189.4,1712.5,1231.9,1712.5,1231.9z"/>
	</g>
	<path class="st13" d="M986.4,1221.1c0,0,327.9-96.1,371.3-93.2c40,2.7,336.8,111,336.8,111s2.5,33.6-19.4,49.1
		c0,0-234.3-30.7-325.9-55.1c0,0-222.2,165.9-362.8,160.6c-140.6-5.3-108.7-99.1-108.7-99.1L986.4,1221.1z"/>
	<path class="st14" d="M555.7,1137.2c0,0-18.9,28.4,3,55.7c21.9,27.3,151.8,112.8,220.1,142.6c68.4,29.9,127.3,78.1,127.3,78.1
		c110.2-75.1,88.2-196,88.2-196s-206.4-94.1-258.1-108.9c-108.1-31-152-28.3-152-28.3L555.7,1137.2z"/>
	<path class="st5" d="M501.9,1092l59.3,44.7c0,0,56.9-2.3,61.7-27.3c4.1-21-30.5-38.7-30.5-38.7s-41.8-10-58.6-22.8
		C517.2,1035.2,501.9,1092,501.9,1092z"/>
	<path class="st4" d="M533.9,1048c-16.7-12.8-32,44-32,44l4.9,3.7c4.4,0.5,8.4,0.3,12-0.6c18.2-4.7,34.9-18.4,43.7-33.3
		C551.8,1058,540.7,1053.3,533.9,1048z"/>
	<g>
		<path class="st5" d="M406,1051c-1.3,1.1,67.5,51.1,98.1,43.2s57.2-41.3,48.3-63.2c-9.9-24.2-89.9-66.5-126.8-48.3
			S406,1051,406,1051z"/>
		<path class="st15" d="M379.9,972.4c-7.6,25.3-1.7,47.6,1.3,56.2c-4.4,11-6.2,28.1,10,55.6c19.9,33.8,59.8,38.3,87.1,26.2
			c27.3-12.1,45.7-1.8,45.7-1.8l-7.8-8.5c-6-6.3-13.1-11.5-21.2-14.8c-4.8-2-10.3-3.7-15.4-4c-13.4-0.8-12.1-20.4-18.6-29.6
			c-5-7.1-20.7-15.8-29.1-27.2l-5.2-11.1c0,0-3.5-20.9,7.5-33.6S389.7,940,379.9,972.4z"/>
		
			<ellipse transform="matrix(0.4603 -0.8877 0.8877 0.4603 -696.4534 993.1193)" class="st5" cx="468.6" cy="1069.4" rx="10.7" ry="18.6"/>
	</g>
	<path class="st2" d="M516,1045.4l10.9-30.7c0,0,11.4,4.8,7,18.5C528.5,1049.8,516,1045.4,516,1045.4z"/>
	<path class="st16" d="M1698.1,953.6h-30.5v24.8h-24.8v30.5h24.8v24.8h30.5v-24.8h24.8v-30.5h-24.8V953.6z M1718.8,982.4v22.3H1694
		v24.8h-22.3v-24.8h-24.8v-22.3h24.8v-24.8h22.3v24.8H1718.8z"/>
	<path class="st16" d="M622.9,555.2h-39v31.6h-31.6v39h31.6v31.6h39v-31.6h31.6v-39h-31.6V555.2z M649.3,592v28.5h-31.6v31.6h-28.5
		v-31.6h-31.6V592h31.6v-31.6h28.5V592H649.3z"/>
	<path class="st16" d="M1044.3,413.3h-16.1v13.1H1015v16.1h13.1v13.1h16.1v-13.1h13.1v-16.1h-13.1V413.3z M1055.2,428.5v11.8h-13.1
		v13.1h-11.8v-13.1h-13.1v-11.8h13.1v-13.1h11.8v13.1H1055.2z"/>
	<path class="st16" d="M563.9,1514.9h-19.4v15.8h-15.8v19.4h15.8v15.8h19.4v-15.8h15.8v-19.4h-15.8V1514.9z M577,1533.3v14.2h-15.8
		v15.8h-14.2v-15.8h-15.8v-14.2h15.8v-15.8h14.2v15.8H577z"/>
	<path class="st16" d="M2411.3,1001.5h-19.4v15.8h-15.8v19.4h15.8v15.8h19.4v-15.8h15.8v-19.4h-15.8V1001.5z M2424.4,1019.8v14.2
		h-15.8v15.8h-14.2V1034h-15.8v-14.2h15.8v-15.8h14.2v15.8H2424.4z"/>
	<path class="st16" d="M832,291.7c-14,0-25.4,11.4-25.4,25.4c0,14,11.4,25.4,25.4,25.4c14,0,25.4-11.4,25.4-25.4
		C857.4,303.1,846,291.7,832,291.7z M832,336c-10.4,0-18.9-8.5-18.9-18.9c0-10.4,8.5-18.9,18.9-18.9c10.4,0,18.9,8.5,18.9,18.9
		C851,327.5,842.5,336,832,336z"/>
	<path class="st16" d="M2401.5,1226.3c-14,0-25.4,11.4-25.4,25.4s11.4,25.4,25.4,25.4c14,0,25.4-11.4,25.4-25.4
		S2415.5,1226.3,2401.5,1226.3z M2401.5,1270.6c-10.4,0-18.9-8.5-18.9-18.9s8.5-18.9,18.9-18.9c10.4,0,18.9,8.5,18.9,18.9
		S2412,1270.6,2401.5,1270.6z"/>
	<path class="st16" d="M2217,650.6c-7.7,0-13.9,6.3-13.9,13.9c0,7.7,6.3,13.9,13.9,13.9s13.9-6.3,13.9-13.9
		C2230.9,656.9,2224.7,650.6,2217,650.6z M2217,675c-5.7,0-10.4-4.7-10.4-10.4c0-5.7,4.7-10.4,10.4-10.4c5.7,0,10.4,4.7,10.4,10.4
		C2227.4,670.3,2222.7,675,2217,675z"/>
	<path class="st16" d="M870,620.2c7.7,0,13.9-6.3,13.9-13.9c0-7.7-6.3-13.9-13.9-13.9c-7.7,0-13.9,6.3-13.9,13.9
		C856,614,862.3,620.2,870,620.2z M870,595.9c5.7,0,10.4,4.7,10.4,10.4c0,5.7-4.7,10.4-10.4,10.4c-5.7,0-10.4-4.7-10.4-10.4
		C859.6,600.5,864.2,595.9,870,595.9z"/>
	<path class="st16" d="M271.5,1635.7h-12.9v10.4h-10.4v12.9h10.4v10.4h12.9V1659h10.4v-12.9h-10.4V1635.7z M280.2,1647.9v9.4h-10.4
		v10.4h-9.4v-10.4h-10.4v-9.4h10.4v-10.4h9.4v10.4H280.2z"/>
	<path class="st16" d="M2909.6,1274.1h-35.4v28.7h-28.7v35.4h28.7v28.7h35.4v-28.7h28.7v-35.4h-28.7V1274.1z M2933.6,1307.5v25.9
		h-28.7v28.7H2879v-28.7h-28.7v-25.9h28.7v-28.7h25.9v28.7H2933.6z"/>
	<path class="st16" d="M2554.3,721.4h-30.5v24.8H2499v30.5h24.8v24.8h30.5v-24.8h24.8v-30.5h-24.8V721.4z M2575,750.3v22.3h-24.8
		v24.8h-22.3v-24.8h-24.8v-22.3h24.8v-24.8h22.3v24.8H2575z"/>
	<path class="st16" d="M2784.4,1016.8c-10.3,0-18.7,8.4-18.7,18.7s8.4,18.7,18.7,18.7s18.7-8.4,18.7-18.7
		S2794.7,1016.8,2784.4,1016.8z M2784.4,1049.5c-7.7,0-13.9-6.3-13.9-13.9s6.3-13.9,13.9-13.9c7.7,0,13.9,6.3,13.9,13.9
		S2792.1,1049.5,2784.4,1049.5z"/>
	<path class="st16" d="M1855.2,1064.4c-8.8,0-15.9,7.2-15.9,15.9c0,8.8,7.2,15.9,15.9,15.9c8.8,0,15.9-7.2,15.9-15.9
		C1871.2,1071.5,1864,1064.4,1855.2,1064.4z M1855.2,1092.2c-6.6,0-11.9-5.3-11.9-11.9c0-6.6,5.3-11.9,11.9-11.9
		c6.6,0,11.9,5.3,11.9,11.9C1867.1,1086.9,1861.8,1092.2,1855.2,1092.2z"/>
	<path class="st16" d="M534.9,1737.4c-8.8,0-15.9,7.2-15.9,15.9s7.2,15.9,15.9,15.9c8.8,0,15.9-7.2,15.9-15.9
		S543.7,1737.4,534.9,1737.4z M534.9,1765.2c-6.6,0-11.9-5.3-11.9-11.9s5.3-11.9,11.9-11.9c6.6,0,11.9,5.3,11.9,11.9
		S541.5,1765.2,534.9,1765.2z"/>
	<path class="st16" d="M325.3,1268c-8.8,0-15.9,7.2-15.9,15.9s7.2,15.9,15.9,15.9c8.8,0,15.9-7.2,15.9-15.9S334.1,1268,325.3,1268z
		 M325.3,1295.8c-6.6,0-11.9-5.3-11.9-11.9c0-6.6,5.3-11.9,11.9-11.9s11.9,5.3,11.9,11.9C337.2,1290.5,331.8,1295.8,325.3,1295.8z"
		/>
	<path class="st16" d="M623.3,869.7c-10.2,0-18.6,8.3-18.6,18.6c0,10.2,8.3,18.6,18.6,18.6c10.2,0,18.6-8.3,18.6-18.6
		C641.9,878.1,633.6,869.7,623.3,869.7z M623.3,902.2c-7.6,0-13.9-6.2-13.9-13.9s6.2-13.9,13.9-13.9c7.6,0,13.9,6.2,13.9,13.9
		S631,902.2,623.3,902.2z"/>
	<g>
		<g>
			<path class="st17" d="M2687.3,1183.6c0,0-7.5,61.5-16.8,89.5c-9.3,28-18.2,54.7-11.3,121.9c6.9,67.1,11.2,72.7,12.8,90.1
				c1.6,17.4-0.9,90.8,2.8,102.9c3.7,12.1-21.8,96-23.6,132.1s-8.7,88.9,0,111.9l5-3.1c0,0-13.1-56,6.8-123.1
				c19.9-67.1,11.2-75.8,44.8-117.8c33.6-42,36.1-129,36.1-129s16.2-98.9,0-142.4S2726.5,1229.6,2687.3,1183.6z"/>
			<path class="st17" d="M2603.2,1119.6c0,0,9.9,35.7,5.2,60.3c-4.7,24.6-10.4,40.4-5.2,63.7c5.2,23.3,16.8,84-5.8,122.7
				s0.7,125.4-15.1,159c-15.9,33.6-13.1,53.2,5.6,96.1s53.5,99.5,44.1,190.9l-14.3-17.4c0,0,3.9-74-14.5-110.7
				s-58.2-88.3-59.5-118.7c-1.2-30.5-31.7-26.7-28-74.6s-8.1-60.3,3.7-104.4c0,0,1.9-2.5-1.9-35.4c-3.7-33,28-105.7,44.8-132.4
				C2579.2,1191.7,2602.4,1150.1,2603.2,1119.6z"/>
			<path class="st18" d="M2565.4,1324.1c0,0-12.4,56-3.1,86.4c9.3,30.5,20.5,54.1,19.9,100.1c-0.6,46,35.4,63.4,34.8,88.9
				c-0.6,25.5,7.5,52.8,14.3,73.4c6.8,20.5-3.1,98.9,3.1,134.9c6.2,36.1,12.4,34.2,12.4,34.2s-9.3-47.3-6.8-64.7
				c2.5-17.4,8.1-76.5,6.8-98.2s8.7-39.2,9.9-77.1c1.2-37.9,9.3-72.1-7.5-120S2635.7,1376.9,2565.4,1324.1z"/>
			<path class="st18" d="M2655,1804.5c0,0-6.3-63.9,45.9-87.2c52.2-23.3,87.5-22.8,111.7-78.7c24.2-56,24.2-132.4,32.6-148.3
				c0,0-22.4-3.7-44.8,36.4c-22.4,40.1-37.6,69.9-50.5,93.3c-12.9,23.3-31.6,16.8-47.4,34.5c-13.3,14.8-25.6,49.4-30.2,66.9
				c-1.5,5.7-3.7,11.2-6.6,16.3c-2.6,4.7-5.8,10.3-7.6,14.4c-3.7,8.1-7.2,54.1-7.2,54.1L2655,1804.5z"/>
			<path class="st18" d="M2632.6,1800c0,0-4.4-79.3-28.6-111c-24.2-31.7-72.7-45.4-78.3-68.4s0.6-92-34.8-130.6c0,0,5,42.9,0,54.4
				s-47.3,65-22.4,109.7c24.9,44.8,80.8,39.2,98.2,49.1c17.4,9.9,34.8,4.4,37.9,13.7c3.1,9.3,17.4,42.3,22.4,77.7L2632.6,1800z"/>
			<path class="st19" d="M2637.8,1744.4l2.1-85.8c0,0-4.1-67.1-11.6-121.9s-62.8-212.7-62.8-212.7s-12.4,56-3.1,86.4
				c9.3,30.5,20.5,54.1,19.9,100.1c-0.6,46,35.4,63.4,34.8,88.9c-0.6,25.5,7.5,52.8,14.3,73.4c6.8,20.5-3.1,98.9,3.1,134.9
				c3.4,19.8,6.8,28.1,9.2,31.6C2629.7,1810.6,2637.8,1744.4,2637.8,1744.4z"/>
			<path class="st19" d="M2755.1,1656.1c-22.4,12.4-44.3,17.7-65.9,47.9c-21.6,30.2-31.1,58.1-31.1,58.1s-5.5,26.9-6.9,40.6
				c-0.2,2.1-0.3,3.3-0.3,3.3l4.1-1.6c0,0-6.3-63.9,45.9-87.2c52.2-23.3,87.5-22.8,111.7-78.8c24.2-56,24.2-132.4,32.6-148.3
				c0,0-30.5,44.7-46.7,80.7C2782.4,1607,2777.4,1643.7,2755.1,1656.1z"/>
			<path class="st19" d="M2490.8,1544.5c-5,11.5-47.3,65-22.4,109.7c24.9,44.8,80.8,39.2,98.2,49.1c17.4,9.9,34.8,4.4,37.9,13.7
				c3.1,9.3,17.4,42.3,22.4,77.7l2.4,2.3c-1.4-14-3.8-35.2-7.4-50.8c-5.8-25.3-13.1-34.2-27.4-51.6c-14.3-17.4-76.5-42.3-95.6-59.7
				c-19.2-17.4,5.5-64.7,8-84.5c2.5-19.8-16.2-60.4-16.2-60.4S2495.8,1533,2490.8,1544.5z"/>
		</g>
		<g>
			<path class="st20" d="M2649.5,1740h-5h-67.3c-4.9,0-8.6,6.8-7.5,13.8l26.4,162.7c0.8,5.1,3.9,8.6,7.5,8.6h40.9h5h40.9
				c3.5,0,6.6-3.6,7.5-8.6l26.4-162.7c1.1-7.1-2.5-13.8-7.5-13.8H2649.5z"/>
			<polygon class="st21" points="2587.1,1861.3 2706.8,1861.3 2716.3,1802.8 2577.6,1802.8 			"/>
		</g>
	</g>
	<g>
		<path class="st22" d="M1076.7,1202.7c0,0,29.2-7.3,30.6-4.9c0.9,1.5,3.8,4.5-21.3,13.9C1061,1221.1,1076.7,1202.7,1076.7,1202.7z"
			/>
		<path class="st5" d="M1122.1,1215.1c1.1-3.1-4.3-6.6-8.4-9.3c-4.5-2.9-28.8-7.3-32.8-7.6s-35.1,11.8-46.5,18.7
			c-11.4,6.9-19.9,7.1-19.9,7.1c-33.8,0.9-134.4,14.2-172.6,19.9c0,0-105.6-50.3-108-50.8c-2.4-0.6-40.8,74.2-40.8,74.2l145.2,34.2
			c0.3,0.1,0.6,0.2,0.9,0.2c10.5-0.4,215.5-57.1,224.1-59.4c8.6-2.2,22.4-15,25.8-17.2s11.1-2.9,16.7-1.7c5.6,1.2,21.5,3.4,23.6,1.5
			C1131.6,1222.9,1122.1,1215.1,1122.1,1215.1z"/>
	</g>
	<path class="st23" d="M724.3,1280c-80-23-176.3-58.1-173.2-119c1.2-24,53.9-48.4,211.8,15.6C754.4,1206.6,740.6,1250.3,724.3,1280z
		"/>
	<g>
		<path class="st4" d="M1102.5,1248.7l-253.4,77.9c-2.5,0.8-5.1-0.6-5.8-3.1l-5.3-17.2c-0.8-2.5,0.6-5.1,3.1-5.8l253.4-77.9
			c2.5-0.8,5.1,0.6,5.8,3.1l5.3,17.2C1106.3,1245.4,1104.9,1248,1102.5,1248.7z"/>
		<path class="st24" d="M1112.2,1259.8c0-7.7-6.2-13.9-13.9-13.9c-1.7,0-3.4,0.4-4.9,0.9l0,0l-232.8,69l66.9,27.1l175.8-70.1l0,0
			C1108.5,1270.8,1112.2,1265.7,1112.2,1259.8z"/>
		<path class="st11" d="M1039.4,1658.9l263.7,145.3l132.3-181.6c0,0-209.8-70.9-215.3-65.7S1039.4,1658.9,1039.4,1658.9z"/>
		<path class="st10" d="M1333.3,1467.9c8,15,9.5,38.9,1.4,55.3c-13.4,26.9-46.2,37.9-73.1,24.5c-7.2-3.6-13.3-8.7-18.1-14.6
			c-13,8.7-24.6,16.5-34,22.9c8.6,11.6,20,21.4,33.9,28.3c47.1,23.5,104.4,4.3,127.8-42.8c14.9-29.9,12.6-63.9-3.1-90.8
			C1357.3,1457.7,1345.2,1460.1,1333.3,1467.9z"/>
		<path class="st11" d="M1682.9,1376.5l-38.8,35.9c-20.2,18.7-45.3,31.3-72.4,36.4l-346.4,64.9l36.3-97.3l164.7-85.6l256.5,37.6
			V1376.5z"/>
		<path class="st11" d="M864.1,1495.8c-13.6,10.3-36.9,15.6-54.3,10.1c-28.7-9-44.7-39.6-35.7-68.2c2.4-7.7,6.4-14.5,11.5-20.2
			c-10.6-11.4-20.2-21.7-28-30c-10.1,10.4-17.9,23.2-22.6,37.9c-15.7,50.3,12.3,103.7,62.6,119.4c31.9,10,65.1,2.3,89.1-17.5
			C878,1517.9,873.7,1506.3,864.1,1495.8z"/>
		<path class="st25" d="M936.1,1573.3l37.8,55.4c22,32.2,63.1,45.3,99.6,31.6l128.3-47.8c24.6-9.2,43.6-29.3,51.4-54.4l34.4-111.5
			c0,0-57.1-26.2-73.9-21.1C1196.8,1430.7,936.1,1573.3,936.1,1573.3z"/>
		<path class="st10" d="M1410.8,1302.9c-0.8,0-32.2,4.8-34.9,13.4l-215.5,22.3c0,0-300.9,117.4-299.3,113.2l2.9,109.8
			c0.4,14.6,12.1,26.5,26.7,27l46.8,1.7c3.7,0.1,7.4-0.5,10.8-1.8l272.8-103.1c41.3-15.6,79.9-37.8,114.2-65.6l88.5-71.9l409.4,45
			c18.3,2,36.3-5.7,47.5-20.3l9.8-12.8C1890.7,1360,1412.8,1302.9,1410.8,1302.9z"/>
		<path class="st4" d="M1920.8,1312.2l-518-59.8c-9-1-38.8-1.8-47.7-1.8c-12.7,0-46.3,11.9-54.5,14.4l-432.7,131.6
			c-17.6,5.4-27.6,24-22.2,41.7c5.4,17.6,24,27.6,41.7,22.2l432.7-131.6c6.1-1.9,70.2-10.7,75.2-10.2l518,59.8
			c18.3,2.1,34.9-11,37-29.3C1952.2,1330.9,1939.1,1314.3,1920.8,1312.2z"/>
		<path class="st11" d="M826.2,1412.4l-367.4-244.1l0.2-0.3c7.6-13.1,0.7-26.7-12.4-34.3l-67.9-39.2c-13.1-7.6-29.9-3.1-37.5,10
			l-9,15.6c-7.6,13.1-3.1,29.9,10,37.5l67.9,39.2c8,4.6,17.2,4.7,25,1.2l372.6,242.7c7.8,5.1,18.3,2.9,23.4-4.9l0,0
			C836.2,1428,834,1417.5,826.2,1412.4z"/>
		
			<rect x="467.8" y="1161.4" transform="matrix(0.8365 0.5479 -0.5479 0.8365 723.5948 -87.0549)" class="st11" width="79.8" height="15.6"/>
		<path class="st4" d="M793.4,1401.4L529,1228.2c-14.8-9.7-19-29.6-9.3-44.4l0,0c9.7-14.8,29.6-19,44.4-9.3l264.3,173.1
			c14.8,9.7,19,29.6,9.3,44.4l0,0C828.1,1406.9,808.2,1411.1,793.4,1401.4z"/>
		<path class="st4" d="M473.2,1181.9l-135.1-58.8c-16.3-7.1-23.7-26-16.6-42.2l0,0c7.1-16.3,26-23.7,42.2-16.6l135.1,58.8
			c16.3,7.1,23.7,26,16.6,42.2v0C508.3,1181.6,489.4,1189,473.2,1181.9z"/>
		<path class="st11" d="M991,1829.3h338.1v94.2H896.8l0,0C896.8,1871.5,939,1829.3,991,1829.3z"/>
		<path class="st11" d="M1133.9,1396.3L1133.9,1396.3l-251.3-79.1c-2.2-1-11.4-2.8-12.7-2.8c-17,0-30.7,13.7-30.7,30.7
			c0,11.9,6.8,22.2,16.6,27.3l0,0l0.1,0c1.9,1,3.9,1.7,6,2.3l223.8,86.1c0,0,31.3,11.9,37.6,11.9c21.5,0,38.9-17.4,38.9-38.9
			C1162.2,1415.9,1150.2,1400.9,1133.9,1396.3z"/>
		
			<ellipse transform="matrix(0.2803 -0.9599 0.9599 0.2803 -567.743 2110.1492)" class="st25" cx="1123.3" cy="1433.7" rx="20" ry="20"/>
		<path class="st25" d="M888.8,1345.1c0,10.4-8.4,18.8-18.8,18.8c-10.4,0-18.8-8.4-18.8-18.8c0-10.4,8.4-18.8,18.8-18.8
			C880.4,1326.2,888.8,1334.7,888.8,1345.1z"/>
		<path class="st25" d="M1106.5,1259.8c0,4.5-3.7,8.2-8.2,8.2c-4.5,0-8.2-3.7-8.2-8.2c0-4.5,3.7-8.2,8.2-8.2
			C1102.8,1251.6,1106.5,1255.3,1106.5,1259.8z"/>
		<path class="st10" d="M1215.8,1923.5l177.2-272.8c35.5-54.6,104.7-76.4,165.1-52l126.4,51.1c103.6,41.9,196.8,106.2,272.7,188.2
			l79.2,85.6H1215.8z"/>
		
			<ellipse transform="matrix(0.2557 -0.9668 0.9668 0.2557 -539.6946 2726.9585)" class="st25" cx="1501.2" cy="1714" rx="79.6" ry="79.6"/>
		<path class="st11" d="M1549.4,1714c0,26.7-21.6,48.3-48.3,48.3s-48.3-21.6-48.3-48.3c0-26.7,21.6-48.3,48.3-48.3
			S1549.4,1687.3,1549.4,1714z"/>
	</g>
	<g>
		<path class="st26" d="M2287.2,973.7c-1.5,4.9-2.3,6.6-4.2,9.9c-12.1,21.4-40.3,51.9-40.3,51.9L2221,988c0,0,3.6-14.9,9.7-36.3
			C2251.7,957,2271.7,960.1,2287.2,973.7z"/>
		<g>
			<path class="st27" d="M2151.9,1001.2l-166.9-26.4c0,0,19-46.3,25.8-46.3S2137,979,2137,979l9.5,18.5L2151.9,1001.2z"/>
			<g>
				<path class="st28" d="M2043.9,959.9c0,0-33.1,24-61.6,14.1c-28.5-9.9-40.3-43.5,29.2-92.8
					C2073.8,837.1,2043.9,959.9,2043.9,959.9z"/>
				<g>
					<path class="st5" d="M2114.1,724.2c0,0,5,0.3,6.2,2.7s26.2,10.5,29.2,31.8c3,21.3-17,19.1-17,19.1L2114.1,724.2z"/>
					<path class="st29" d="M2043.6,753.3l56.6-15.4l13.1,39.3c0,0-56.2,41.7-56.2,40.4C2057.2,816.2,2043.6,753.3,2043.6,753.3z"/>
					<g>
						<path class="st15" d="M1932.2,688l152.7-6.7c7.8-0.3,16.1,5,18.5,11.8l62.6,182.1c2.4,6.9-2.1,12.7-9.9,13.1l-152.7,6.7
							c-7.8,0.3-16.1-5-18.5-11.8l-62.6-182.1C1919.9,694.2,1924.4,688.4,1932.2,688z"/>
						<polygon class="st30" points="1929.4,694 2091.7,686.8 2158.5,881.2 1996.2,888.3 						"/>
						<path class="st31" d="M2042.8,680.3c-0.3-0.9-1.4-1.5-2.3-1.5l-68.1,3c-1,0-1.6,0.8-1.3,1.7l2.1,6.2l71.7-3.2L2042.8,680.3z"
							/>
						<path class="st31" d="M2003.8,672.8c-5.9,0.3-9.3,4.7-7.5,9.9c1.8,5.2,8.1,9.2,14,9c5.9-0.3,9.3-4.7,7.5-9.9
							S2009.7,672.5,2003.8,672.8z M2009.1,688.3c-3.8,0.2-7.8-2.4-9-5.7c-1.1-3.3,1-6.2,4.8-6.4c3.8-0.2,7.8,2.4,9,5.7
							C2015.1,685.3,2012.9,688.1,2009.1,688.3z"/>
						<g>
							<path class="st32" d="M2041.2,678.9c0.7,0.2,1.4,0.8,1.6,1.4l2.1,6.2l-71.7,3.2c1.5,4.3,6.7,7.6,11.6,7.4l54-2.4
								c4.9-0.2,7.7-3.9,6.2-8.2l-2.1-6.2C2042.6,679.7,2041.9,679.2,2041.2,678.9z"/>
							<path class="st32" d="M1972.3,681.9L1972.3,681.9c-0.6,0-1.1,0.3-1.3,0.8C1971.3,682.2,1971.7,681.9,1972.3,681.9z"/>
							<path class="st32" d="M1971,683c0-0.1,0-0.2,0-0.3C1971,682.8,1971,682.9,1971,683z"/>
						</g>
						<polygon class="st32" points="1955.4,733.8 2054.1,729.5 2053.1,726.6 1954.4,730.9 						"/>
						<polygon class="st32" points="1961.1,750.3 2059.8,746 2058.8,743.1 1960.1,747.4 						"/>
						<polygon class="st32" points="1967.4,768.7 2066.1,764.3 2065.1,761.4 1966.4,765.8 						"/>
						<polygon class="st32" points="1973,785.2 2071.8,780.9 2070.8,777.9 1972,782.3 						"/>
						<polygon class="st32" points="1978.7,801.7 2077.4,797.4 2076.4,794.5 1977.7,798.8 						"/>
						<polygon class="st32" points="1984.4,818.2 2083.1,813.9 2082.1,811 1983.4,815.3 						"/>
						<polygon class="st32" points="1990.1,834.8 2088.8,830.4 2087.8,827.5 1989.1,831.8 						"/>
						<polygon class="st32" points="1995.7,851.3 2094.5,846.9 2093.5,844 1994.7,848.4 						"/>
						<polygon class="st32" points="2003.1,872.6 2117,867.6 2116,864.7 2004.1,871.7 						"/>
					</g>
					<path class="st28" d="M2162.4,932.4c0,0,109.4,63.6,113.3,62.6c2.5-0.6,61.9-90.3,62.4-162.4c0.2-33.3-35.5-73.4-75.3-65.5
						c-20.1,4-19.7,9.4-49.4,51.2C2183.7,860.2,2162.4,932.4,2162.4,932.4z"/>
					<path class="st5" d="M2058.7,1841.3c0,0,2.9,46.2,2.9,46.3c1.1,5.9,5.2,20.4,5.2,25.7c0,20-98.2-17-76.2-25.9
						c2-0.8,12.4-6.9,13.1-13.7c1-10.5,3.6-31.8,3.6-31.8L2058.7,1841.3z"/>
					<path class="st15" d="M1992.1,1887.2c0,0,23.1,6.1,34.9,7.7s27.4-11.4,35.7-7.9c9.2,3.8,8.8,38.4,8.8,38.4
						s-123.7,9.8-158.4-0.3C1899.3,1921,1944.9,1901.5,1992.1,1887.2z"/>
					<path class="st5" d="M2259.6,1841.3c0,0,2.9,46.2,2.9,46.3c1.1,5.9,5.2,20.4,5.2,25.7c0,20-98.2-17-76.2-25.9
						c2-0.8,15.5-11.4,16.2-18.2c1-10.5,0.5-27.2,0.5-27.2L2259.6,1841.3z"/>
					<path class="st15" d="M2191.8,1887.2c0,0,23.1,6.1,34.9,7.7s27.4-11.4,35.7-7.9c9.2,3.8,9.6,38.4,9.6,38.4
						s-124.2,11.5-159.2-0.3C2079.3,1913.7,2122.4,1908.3,2191.8,1887.2z"/>
					<g>
						<path class="st5" d="M2250.5,691.8l11.1,68.3c0,0-42.4,33-67.2,26.1c-20.8-5.8-6.5-32.1-6.5-32.1s11.1-36.4,7.7-55.5
							C2192.2,679.3,2250.5,691.8,2250.5,691.8z"/>
						<path class="st33" d="M2242.5,712.4c-10.6,4.9-31.7,11.5-48,13.1c1.6-9.6,2.5-19.7,1.1-27.1c-1.6-8.8,10-10.9,22.9-10.6
							c16.9,1.4,32,4,32,4l2.1,13.1C2249.4,708.2,2246.1,710.8,2242.5,712.4z"/>
						<path class="st5" d="M2263.3,595.8c1.7-0.6,10.5,77.3-12,98.9c-22.5,21.6-65.2,29-79.8,12.3c-16.2-18.5-12.5-102.3,22.1-124.7
							C2228.1,560,2263.3,595.8,2263.3,595.8z"/>
						<path class="st11" d="M2207.8,540.5c26,4.7,42.4,19.1,48.5,25.3c11.8,1.2,27.8,7,43.6,32.2c19.4,30.9,3.1,65.5-21.3,82.6
							c-24.4,17.1-23.2,40.4-23.2,40.4l-9.1-22.1c0,0,0.1-18.5,6.2-29.8c6.1-11.3-11.7-18.7-16.4-28c-3.7-7.2-3.3-23.7-9-35.6
							c0,0-23.3-17.1-40.2-17.4C2158,587.4,2174.5,534.5,2207.8,540.5z"/>
						<path class="st11" d="M2206.1,593.3c0,0,15.3,15.7,12.8,36.9c-2.4,21.2-14.6,60.1-4.9,70.8s41.5,21.5,41.5,21.5l13.3-77
							c0,0-11-34.2-13.4-36.6C2253,606.6,2206.1,593.3,2206.1,593.3z"/>
						<path class="st5" d="M2203.9,645.5c-0.5,9.5,4,17.3,10,17.3c6,0,11.3-7.6,11.8-17.2c0.5-9.5-4-17.3-10-17.3
							C2209.7,628.3,2204.4,636,2203.9,645.5z"/>
					</g>
					<path class="st13" d="M2237.4,1112.1c0,0,16.6,78,9.9,137.1s-7.3,269.2-7.3,269.2l25.9,336.1l-61.4,1.3
						c0,0-72.8-335.9-71.5-327.3c1.4,8.6-24.4-236.5-24.4-236.5l86.8-187.3L2237.4,1112.1z"/>
					<path class="st13" d="M2221.1,1108.4c0,0,10.9,70.2-2.7,101c-13.6,30.8-116.4,333-117.7,357.6c-1.4,24.6-35.5,297-35.5,297
						l-71.4-1.9l-15.4-302.8l32.4-380.6l31.4-96.2L2221.1,1108.4z"/>
					<path class="st5" d="M2261.6,760c0,0-17.6,11.2-34,9.9c-16.4-1.3-39.6-16-39.6-16l3.2-10.6c0,0,42.5-6,43.6-5.3
						C2235.8,738.6,2261.6,760,2261.6,760z"/>
					<path class="st5" d="M2125.2,745.7c0,0-20.7-5.9-25.6-8.3c-4.9-2.4-8.5,4.7-3.7,9.4c1.2,1.2,10.3,10.2,17.3,14.5
						c7,4.4,14.8,3.6,14.8,3.6L2125.2,745.7z"/>
					<path class="st9" d="M2031.2,997.5c9.4-49.4,77.3-203.3,82.8-231.6c2.6-13.8,39.3-14.1,74.2-12.3c36.9,1.9,73.5,6.4,73.5,6.4
						s32.6,5.2,47,18.2c14.4,13,18.2,49.1-2.5,117.6c-16.3,54.1-36.5,83.7-46.5,123.1c-2,13.2-3.8,26.2-6.1,41.5
						c-3.7,58.9,8,517.9,8,517.9s-224.6,44.9-291.1-9.3C1970.5,1569.1,2021.6,1048.1,2031.2,997.5z"/>
					<path class="st28" d="M1964.9,928.5c0,0,72.5,32.9,76.5,32.9c2.6,0,117.7-83.5,140.1-140.2c12.4-31.4-13.6-66.5-43.2-66.4
						c-20.5,0.1-29.7,5.2-70.4,38.5C2027.3,826.5,1964.9,928.5,1964.9,928.5z"/>
				</g>
			</g>
		</g>
	</g>
	<path class="st10" d="M1879.3,625.1h-332.2c-3.1,0-5.6,2.5-5.6,5.6v213.5c0,3.1,2.5,5.6,5.6,5.6h332.2c3.1,0,5.6-2.5,5.6-5.6V630.6
		C1884.9,627.6,1882.4,625.1,1879.3,625.1z M1874.2,830.9c0,3.1-2.5,5.6-5.6,5.6h-310.8c-3.1,0-5.6-2.5-5.6-5.6V643.8
		c0-3.1,2.5-5.6,5.6-5.6h310.8c3.1,0,5.6,2.5,5.6,5.6V830.9z"/>
	<path class="st10" d="M899.1,1012.8h178.6c5.6,0,10.2-4.6,10.2-10.2v-89.8c0-5.6-4.6-10.2-10.2-10.2H899.1
		c-5.6,0-10.2,4.6-10.2,10.2v89.8C888.9,1008.2,893.5,1012.8,899.1,1012.8z"/>
	<path class="st8" d="M1077.7,974.9H899.1c-5.6,0-10.2-4.6-10.2-10.2v37.9c0,5.6,4.6,10.2,10.2,10.2h178.6c5.6,0,10.2-4.6,10.2-10.2
		v-37.9C1087.9,970.3,1083.3,974.9,1077.7,974.9z"/>
	<rect x="906.5" y="826.7" class="st10" width="13.9" height="7.8"/>
	<rect x="942.9" y="826.7" class="st10" width="13.9" height="7.8"/>
	<rect x="979.2" y="826.7" class="st10" width="13.9" height="7.8"/>
	<rect x="1015.6" y="826.7" class="st10" width="13.9" height="7.8"/>
	<rect x="1052" y="826.7" class="st10" width="13.9" height="7.8"/>
	<rect x="906.5" y="838.7" class="st34" width="13.9" height="1.6"/>
	<rect x="942.9" y="838.7" class="st34" width="13.9" height="1.6"/>
	<rect x="979.2" y="838.7" class="st34" width="13.9" height="1.6"/>
	<rect x="1015.6" y="838.7" class="st34" width="13.9" height="1.6"/>
	<rect x="1052" y="838.7" class="st34" width="13.9" height="1.6"/>
	<path class="st11" d="M1190.4,340c8.6-5.8,22.9-8.2,33.3-4.3c17.1,6.4,25.7,25.5,19.3,42.6c-1.7,4.6-4.4,8.6-7.7,11.8
		c6,7.3,11.5,13.8,15.9,19.1c6.5-5.9,11.7-13.4,15-22.2c11.3-29.9-3.9-63.3-33.8-74.6c-19-7.2-39.4-3.7-54.6,7.5
		C1182.8,326.1,1185,333.3,1190.4,340z"/>
	<path class="st14" d="M1295.1,489.8L1295.1,489.8c-18,16.1-45.6,14.5-61.6-3.4L1085,320.5c-16.1-18-14.5-45.6,3.4-61.6l0,0
		L1295.1,489.8z"/>
	<path class="st10" d="M1313.6,503L1313.6,503c-12.1,10.8-30.6,9.8-41.4-2.3l-194.4-217.3c-10.8-12.1-9.8-30.6,2.3-41.4l0,0
		c12.1-10.8,30.6-9.8,41.4,2.3l194.4,217.3C1326.7,473.6,1325.7,492.2,1313.6,503z"/>
	<path class="st35" d="M1833.9,675.9c-7-12.7-17.9-13.6-27.8-10.9c-8.6,2.4-19.3,3.7-22,4c-2.7-0.3-13.4-1.6-22-4
		c-10-2.7-20.8-1.8-27.8,10.9c-7,12.7-6.7,26.8,3.9,46.9c10.5,20.1,1.2,25.2,7.9,50.5c6.7,25.3,11.6,35,19.3,29.5s4.3-17.3,5.6-28.3
		c1.3-10.7,1.4-25,13.1-26.3c11.7,1.2,11.9,15.5,13.1,26.3c1.3,10.9-2.1,22.8,5.6,28.3s12.7-4.2,19.3-29.5
		c6.7-25.3-2.6-30.4,7.9-50.5S1840.9,688.6,1833.9,675.9z"/>
	<g>
		<rect x="1576.2" y="709.1" class="st10" width="138.4" height="17.6"/>
		<rect x="1576.2" y="735.3" class="st10" width="138.4" height="17.6"/>
		<rect x="1576.2" y="761.4" class="st10" width="138.4" height="17.6"/>
		<rect x="1576.2" y="709.1" class="st36" width="26.2" height="17.6"/>
		<rect x="1576.2" y="735.3" class="st36" width="64.2" height="17.6"/>
		<rect x="1576.2" y="761.4" class="st36" width="30.8" height="17.6"/>
	</g>
	<rect x="97.6" y="1923.3" class="st11" width="2928" height="13"/>
</g>
</svg>
