<?xml version="1.0" encoding="utf-8"?>
<!-- Generator: Adobe Illustrator 23.0.5, SVG Export Plug-In . SVG Version: 6.00 Build 0)  -->
<svg version="1.1" xmlns="http://www.w3.org/2000/svg" xmlns:xlink="http://www.w3.org/1999/xlink" x="0px" y="0px"
	 viewBox="0 0 3000 2000" style="enable-background:new 0 0 3000 2000;" xml:space="preserve">
<style type="text/css">
	.st0{fill:none;}
	.st1{opacity:0.3;fill:url(#SVGID_1_);}
	.st2{fill:url(#SVGID_2_);}
	.st3{fill:#FFFFFF;}
	.st4{fill:url(#SVGID_3_);}
	.st5{fill:url(#SVGID_4_);}
	.st6{opacity:0.2;fill:url(#SVGID_5_);}
	.st7{opacity:0.3;fill:url(#SVGID_6_);}
	.st8{opacity:0.2;fill:url(#SVGID_7_);}
	.st9{opacity:0.3;fill:url(#SVGID_8_);}
	.st10{opacity:0.2;fill:url(#SVGID_9_);}
	.st11{opacity:0.3;fill:url(#SVGID_10_);}
	.st12{fill:url(#SVGID_11_);}
	.st13{fill:url(#SVGID_12_);}
	.st14{fill:url(#SVGID_13_);}
	.st15{fill:url(#SVGID_14_);}
	.st16{fill:url(#SVGID_15_);}
	.st17{fill:url(#SVGID_16_);}
	.st18{fill:url(#SVGID_17_);}
	.st19{fill:url(#SVGID_18_);}
	.st20{fill:url(#SVGID_19_);}
	.st21{fill:url(#SVGID_20_);}
	.st22{fill:url(#SVGID_21_);}
	.st23{fill:url(#SVGID_22_);}
	.st24{fill:url(#SVGID_23_);}
	.st25{fill:url(#SVGID_24_);}
	.st26{fill:url(#SVGID_25_);}
	.st27{fill:url(#SVGID_26_);}
	.st28{fill:url(#SVGID_27_);}
	.st29{fill:url(#SVGID_28_);}
	.st30{fill:url(#SVGID_29_);}
	.st31{fill:url(#SVGID_30_);}
	.st32{fill:url(#SVGID_31_);}
	.st33{fill:url(#SVGID_32_);}
	.st34{fill:url(#SVGID_33_);}
	.st35{fill:url(#SVGID_34_);}
	.st36{fill:url(#SVGID_35_);}
	.st37{fill:url(#SVGID_36_);}
	.st38{fill:url(#SVGID_37_);}
	.st39{opacity:0.44;fill:#FFFFFF;}
	.st40{fill:url(#SVGID_38_);}
	.st41{fill:url(#SVGID_39_);}
	.st42{fill:url(#SVGID_40_);}
	.st43{fill:url(#SVGID_41_);}
	.st44{fill:url(#SVGID_42_);}
	.st45{fill:url(#SVGID_43_);}
	.st46{fill:url(#SVGID_44_);}
	.st47{fill:url(#SVGID_45_);}
	.st48{fill:url(#SVGID_46_);}
	.st49{fill:url(#SVGID_47_);}
	.st50{fill:url(#SVGID_48_);}
</style>
<g id="Background">
	<g>
		<g>
			<rect class="st0" width="3000" height="2000"/>
		</g>
	</g>
</g>
<g id="Illustration">
	<g>
		
			<linearGradient id="SVGID_1_" gradientUnits="userSpaceOnUse" x1="2817.3376" y1="2584.2642" x2="1044.8135" y2="382.9004" gradientTransform="matrix(0.9999 1.440436e-02 -1.440436e-02 0.9999 14.7273 -21.8188)">
			<stop  offset="0" style="stop-color:#B37CFF"/>
			<stop  offset="1" style="stop-color:#F895E7"/>
		</linearGradient>
		<path class="st1" d="M2330.9,1720.3c-41.3,40.9-80.1,67.1-110.8,87.7c-360.8,243.2-782.1,165.1-871.6,146.2
			c-132.2-27.9-387.7-81.9-569.8-295.5c-275.5-323.2-274.3-893.3-51.9-1222.3c40.7-60.2,330.4-335.1,758.2-383.3
			c258.9-29.2,534.6,49.3,750.1,229.3C2687.4,660.4,2643.5,1410.6,2330.9,1720.3z"/>
		<g>
			
				<linearGradient id="SVGID_2_" gradientUnits="userSpaceOnUse" x1="893.3067" y1="1080.4685" x2="156.6323" y2="224.5222" gradientTransform="matrix(0.9999 1.440436e-02 -1.440436e-02 0.9999 14.7273 -21.8188)">
				<stop  offset="0" style="stop-color:#B37CFF"/>
				<stop  offset="1" style="stop-color:#F895E7"/>
			</linearGradient>
			<path class="st2" d="M641.5,46.1c-1.9-13.4,14.8-21.8,24.2-12.3c95.3,97.4,321,387.4,231.3,881c-91.9,505.6-31.3,751.9,77.3,903
				c15.1,21-10.7,46.8-32.7,32.7c-72.2-46.1-164.7-124.4-231.4-248.3C401.4,1028.1,675.7,284.6,641.5,46.1z"/>
			<path class="st3" d="M706.8,242.3c8.5,69.5,15.7,139.2,20.3,209.2c4.9,69.9,7.8,140,8.4,210.1c0.3,70.1-0.6,140.3-4.6,210.4
				c-3.6,70.1-10.3,140.1-17.2,210.4c-6.5,70.2-13.5,141-13.3,212.4c0.2,71.3,8.9,143.4,30.6,211.4c5.4,16.9,11.2,33.9,17.9,50.2
				c6.4,16.5,13.6,32.7,21,48.8c15.1,32,32.3,63.1,51.9,92.6c39.2,59,87.6,111.7,141.7,156.6c5.7,4.7,14.3,3.8,19.2-2
				c4.8-5.7,4.3-14.1-1.1-18.9l0,0c-12.8-11.3-25.5-22.8-37.6-34.8c-6.2-5.9-12-12.1-18-18.1c-5.7-6.3-11.7-12.3-17.3-18.8
				c-22.6-25.4-43.3-52.4-61.9-80.9c-37.4-56.7-66.3-119.6-87.2-184.5c-10.1-32.6-17.7-66-22.7-99.9c-5-33.9-7.3-68.4-7.7-103
				c-0.8-69.4,5.6-139.4,11.6-209.7c5.9-70.3,11.4-140.9,14-211.6c1.4-35.3,2.1-70.7,2.2-106c0.2-17.7,0-35.3-0.2-53
				c-0.3-17.6-0.7-35.3-1.3-52.9c-2.4-70.5-6.9-140.8-13.7-210.8c-7.1-69.9-16.1-139.6-27.8-208.7c-0.3-2-2.2-3.3-4.2-2.9
				C707.9,238.5,706.6,240.3,706.8,242.3z"/>
		</g>
		<g>
			
				<linearGradient id="SVGID_3_" gradientUnits="userSpaceOnUse" x1="520.8411" y1="1875.3804" x2="1244.509" y2="399.097" gradientTransform="matrix(0.9994 3.659917e-02 -3.659917e-02 0.9994 6.1993 -24.7395)">
				<stop  offset="0" style="stop-color:#B37CFF"/>
				<stop  offset="1" style="stop-color:#F895E7"/>
			</linearGradient>
			<path class="st4" d="M952.6,285.6c0.4-9.8,13.4-13.7,18.8-5.7c55,80.8,177.6,314.4,49.6,654.2c-131.1,348-120.2,530.3-62.7,650.9
				c8,16.7-13.7,31.9-27.5,19.2c-45.3-41.6-100.8-108.5-132-204.6C654.2,953.9,945.8,459.2,952.6,285.6z"/>
			<path class="st3" d="M973.5,432.9c-3,50.4-7,100.8-12.9,151.1c-5.6,50.3-12.7,100.4-21.4,150.3c-8.9,49.9-18.7,99.6-30.7,148.9
				c-11.7,49.4-25.6,98.3-39.7,147.3c-13.8,49.1-28,98.5-37.1,149.3c-9.2,50.7-12.4,103-5.8,153.9c1.7,12.7,3.5,25.4,6.2,37.9
				c2.4,12.5,5.4,24.9,8.6,37.2c6.5,24.6,14.7,48.8,24.8,72.1c20.2,46.7,47.7,90.1,80.3,128.6c3.4,4.1,9.7,4.5,13.9,0.9
				c4.2-3.5,4.9-9.5,1.7-13.5l0,0c-7.6-9.6-15.2-19.3-22.2-29.3c-3.6-4.9-7-10-10.4-15.1c-3.3-5.2-6.7-10.2-9.8-15.5
				c-12.7-20.8-23.9-42.5-33.4-65.1c-19.2-44.9-31.5-93-37.9-141.7c-2.9-24.4-4-49-3.1-73.7c0.9-24.7,3.7-49.5,7.9-74.1
				c8.5-49.4,22.1-98.4,35.6-147.5c13.4-49.2,26.5-98.7,37.5-148.6c5.6-24.9,10.7-49.9,15.4-75c2.4-12.5,4.6-25.1,6.8-37.6
				c2.1-12.6,4.1-25.1,6-37.7c7.5-50.4,13.4-100.9,17.7-151.4c4.1-50.6,6.7-101.1,7.5-151.7c0-1.4-1.2-2.6-2.6-2.5
				C974.8,430.4,973.6,431.5,973.5,432.9z"/>
		</g>
		<g>
			
				<linearGradient id="SVGID_4_" gradientUnits="userSpaceOnUse" x1="1923.4449" y1="-1322.7355" x2="1761.1033" y2="138.3378" gradientTransform="matrix(0.9999 1.440436e-02 -1.440436e-02 0.9999 14.7273 -21.8188)">
				<stop  offset="0" style="stop-color:#FDF53F"/>
				<stop  offset="1" style="stop-color:#D93C65"/>
			</linearGradient>
			<path class="st5" d="M2514.7,1895.9l-1848.4-25.5c-28.6-0.4-51.2-35.8-50.5-79.1l4.9-325.7c1.2-77.5,43.5-139.7,94.6-139
				c161.9-36.1,320.9-29,476.8,25.3c192.1-32.3,383.9-29.5,575.6,7.9c209.7-56.2,449.7-48.3,704.7-9c45.1,0.6,80.8,56.6,79.8,125
				l-5.6,373.4C2546.1,1875.2,2531.9,1896.1,2514.7,1895.9z"/>
			<g>
				<g>
					<path class="st3" d="M1238.9,1252.3c0,0-0.4,421.1-94.9,452.4c-7.7,2.6-14.5,2.4-20.4,0.1c-66.6-26-29.5-334.2-118.3-356.3
						l-96.5-1.3c-97.3,21.3-55.7,386.1-149.3,352.2c-5.3-1.9-10.2-5-14.8-9.2c-0.3-0.3-0.6-0.6-0.9-0.9
						c-76.4-72.8-65.5-444.8-65.5-444.8c-78.9-127.4-55.6-298.3-55.6-298.3c-5.8-106,129.7-192.7,206.9-145.5
						c47.4,29,100.8,41.4,135,46.7c28.4-3.6,70.1-11.7,111-30.1c8.5-3.8,17.1-8.1,25.4-12.9c78.6-45.1,211.4,45.4,202.4,151.1
						C1303.5,955.6,1321.6,1127.1,1238.9,1252.3z"/>
					
						<linearGradient id="SVGID_5_" gradientUnits="userSpaceOnUse" x1="1072.877" y1="1255.0302" x2="1305.0435" y2="1255.0302" gradientTransform="matrix(0.9999 1.440436e-02 -1.440436e-02 0.9999 14.7273 -21.8188)">
						<stop  offset="0" style="stop-color:#53D8FF"/>
						<stop  offset="1" style="stop-color:#3840F7"/>
					</linearGradient>
					<path class="st6" d="M1238.9,1252.3c0,0-0.4,421.1-94.9,452.4c-7.7,2.6-14.5,2.5-20.4,0.1c76.7-60.7,36.9-383.2,15.4-424.9
						c-21.6-42.1,43.1-118.3,71.5-265.4s-135-197.2-135-197.2c8.5-3.8,17.1-8.1,25.4-12.9c78.6-45.1,211.4,45.4,202.4,151.1
						C1303.5,955.6,1321.6,1127.1,1238.9,1252.3z"/>
					
						<linearGradient id="SVGID_6_" gradientUnits="userSpaceOnUse" x1="754.6823" y1="1533.0874" x2="934.7853" y2="1533.0874" gradientTransform="matrix(0.9999 1.440436e-02 -1.440436e-02 0.9999 14.7273 -21.8188)">
						<stop  offset="0" style="stop-color:#53D8FF"/>
						<stop  offset="1" style="stop-color:#3840F7"/>
					</linearGradient>
					<path class="st7" d="M929.9,1347.4l-21-0.3c-97.3,21.3-55.7,386.1-149.3,352.2c-5.3-1.9-10.2-5-14.8-9.2
						c77,30.7,74.2-262,87.7-310.3C845.9,1331.6,929.9,1347.4,929.9,1347.4z"/>
				</g>
				<g>
					<path class="st3" d="M1865.5,1277.9c0,0-0.4,421.1-94.9,452.4c-7.7,2.6-14.5,2.4-20.4,0.1c-66.6-26-29.5-334.2-118.3-356.3
						l-96.5-1.3c-97.3,21.3-55.7,386.1-149.3,352.2c-5.3-1.9-10.2-5-14.8-9.2c-0.3-0.3-0.6-0.6-0.9-0.9
						c-76.4-72.8-65.5-444.8-65.5-444.8c-78.9-127.4-55.6-298.3-55.6-298.3c-5.8-106,129.7-192.7,206.9-145.5
						c47.4,29,100.8,41.4,135,46.7c28.4-3.6,70.1-11.7,111-30.1c8.5-3.8,17.1-8.1,25.4-12.9c78.6-45.1,211.4,45.4,202.4,151.1
						C1930.1,981.2,1948.2,1152.8,1865.5,1277.9z"/>
					
						<linearGradient id="SVGID_7_" gradientUnits="userSpaceOnUse" x1="1699.7828" y1="1271.6431" x2="1931.9493" y2="1271.6431" gradientTransform="matrix(0.9999 1.440436e-02 -1.440436e-02 0.9999 14.7273 -21.8188)">
						<stop  offset="0" style="stop-color:#53D8FF"/>
						<stop  offset="1" style="stop-color:#3840F7"/>
					</linearGradient>
					<path class="st8" d="M1865.5,1277.9c0,0-0.4,421.1-94.9,452.4c-7.7,2.6-14.5,2.5-20.4,0.1c76.7-60.7,36.9-383.2,15.4-424.9
						c-21.6-42.1,43.1-118.3,71.5-265.4s-135-197.2-135-197.2c8.5-3.8,17.1-8.1,25.4-12.9c78.6-45.1,211.4,45.4,202.4,151.1
						C1930.1,981.2,1948.2,1152.8,1865.5,1277.9z"/>
					
						<linearGradient id="SVGID_8_" gradientUnits="userSpaceOnUse" x1="1381.5881" y1="1549.7002" x2="1561.691" y2="1549.7002" gradientTransform="matrix(0.9999 1.440436e-02 -1.440436e-02 0.9999 14.7273 -21.8188)">
						<stop  offset="0" style="stop-color:#53D8FF"/>
						<stop  offset="1" style="stop-color:#3840F7"/>
					</linearGradient>
					<path class="st9" d="M1556.5,1373.1l-21-0.3c-97.3,21.3-55.7,386.1-149.3,352.2c-5.3-1.9-10.2-5-14.8-9.2
						c77,30.7,74.2-262,87.7-310.3C1472.5,1357.2,1556.5,1373.1,1556.5,1373.1z"/>
				</g>
				<g>
					<path class="st3" d="M2492.7,1269.6c0,0-0.4,421.1-94.9,452.4c-7.7,2.6-14.5,2.4-20.4,0.1c-66.6-26-29.5-334.2-118.3-356.3
						l-96.5-1.3c-97.3,21.3-55.7,386.1-149.3,352.2c-5.3-1.9-10.2-5-14.8-9.2c-0.3-0.3-0.6-0.6-0.9-0.9
						c-76.4-72.8-65.5-444.8-65.5-444.8c-78.9-127.4-55.6-298.3-55.6-298.3c-5.8-106,129.7-192.7,206.9-145.5
						c47.4,29,100.8,41.4,135,46.7c28.4-3.6,70.1-11.7,111-30.1c8.5-3.8,17.1-8.1,25.4-12.9c78.6-45.1,211.4,45.4,202.4,151.1
						C2557.3,972.8,2575.5,1144.4,2492.7,1269.6z"/>
					
						<linearGradient id="SVGID_9_" gradientUnits="userSpaceOnUse" x1="2326.8242" y1="1254.2455" x2="2558.9907" y2="1254.2455" gradientTransform="matrix(0.9999 1.440436e-02 -1.440436e-02 0.9999 14.7273 -21.8188)">
						<stop  offset="0" style="stop-color:#53D8FF"/>
						<stop  offset="1" style="stop-color:#3840F7"/>
					</linearGradient>
					<path class="st10" d="M2492.7,1269.6c0,0-0.4,421.1-94.9,452.4c-7.7,2.6-14.5,2.5-20.4,0.1c76.7-60.7,36.9-383.2,15.4-424.9
						c-21.6-42.1,43.1-118.3,71.5-265.4s-135-197.2-135-197.2c8.5-3.8,17.1-8.1,25.4-12.9c78.6-45.1,211.4,45.4,202.4,151.1
						C2557.3,972.8,2575.5,1144.4,2492.7,1269.6z"/>
					
						<linearGradient id="SVGID_10_" gradientUnits="userSpaceOnUse" x1="2008.6295" y1="1532.3026" x2="2188.7324" y2="1532.3026" gradientTransform="matrix(0.9999 1.440436e-02 -1.440436e-02 0.9999 14.7273 -21.8188)">
						<stop  offset="0" style="stop-color:#53D8FF"/>
						<stop  offset="1" style="stop-color:#3840F7"/>
					</linearGradient>
					<path class="st11" d="M2183.7,1364.7l-21-0.3c-97.3,21.3-55.7,386.1-149.3,352.2c-5.3-1.9-10.2-5-14.8-9.2
						c77,30.7,74.2-262,87.7-310.3C2099.7,1348.9,2183.7,1364.7,2183.7,1364.7z"/>
				</g>
				<g>
					<g>
						<g>
							
								<linearGradient id="SVGID_11_" gradientUnits="userSpaceOnUse" x1="1066.3555" y1="1056.1274" x2="803.4318" y2="1210.5048" gradientTransform="matrix(0.9999 1.440436e-02 -1.440436e-02 0.9999 14.7273 -21.8188)">
								<stop  offset="0" style="stop-color:#53D8FF"/>
								<stop  offset="1" style="stop-color:#3840F7"/>
							</linearGradient>
							<path class="st12" d="M941.3,1042.6l-78.9,1c-27.4,0.4-49.9,20.6-50.3,45.3l-1.7,113.4c-0.4,24.6,21.6,44.1,48.9,43.4
								l78.9-1.9c27.1-0.6,49.2-21,49.6-45.3l1.7-112.3C990,1061.7,968.4,1042.2,941.3,1042.6z"/>
							
								<linearGradient id="SVGID_12_" gradientUnits="userSpaceOnUse" x1="1019.9847" y1="1035.0427" x2="892.3268" y2="1162.7006" gradientTransform="matrix(0.9999 1.440436e-02 -1.440436e-02 0.9999 14.7273 -21.8188)">
								<stop  offset="0" style="stop-color:#53D8FF"/>
								<stop  offset="1" style="stop-color:#3840F7"/>
							</linearGradient>
							<path class="st13" d="M927.2,1083.5l-51.8,0.8c-14.9,0.2-27.2,11.3-27.4,24.7l-1.1,71.7c-0.2,13.4,11.7,24,26.6,23.7
								l51.8-1.1c14.8-0.3,26.9-11.4,27.1-24.7l1.1-71.3C953.8,1093.9,942,1083.3,927.2,1083.5z"/>
						</g>
						<g>
							
								<linearGradient id="SVGID_13_" gradientUnits="userSpaceOnUse" x1="1703.4594" y1="1060.9817" x2="1471.4448" y2="1167.3219" gradientTransform="matrix(0.9999 1.440436e-02 -1.440436e-02 0.9999 14.7273 -21.8188)">
								<stop  offset="0" style="stop-color:#53D8FF"/>
								<stop  offset="1" style="stop-color:#3840F7"/>
							</linearGradient>
							<path class="st14" d="M1587,1034l-73.5,1c-25.5,0.3-46.5,19.9-46.9,43.7l-1.6,109.4c-0.4,23.8,20.1,42.6,45.6,41.9l73.6-1.8
								c25.2-0.6,45.9-20.2,46.3-43.8l1.6-108.4C1632.3,1052.5,1612.2,1033.7,1587,1034z"/>
							
								<linearGradient id="SVGID_14_" gradientUnits="userSpaceOnUse" x1="1662.1877" y1="1019.5812" x2="1540.9772" y2="1140.7919" gradientTransform="matrix(0.9999 1.440436e-02 -1.440436e-02 0.9999 14.7273 -21.8188)">
								<stop  offset="0" style="stop-color:#53D8FF"/>
								<stop  offset="1" style="stop-color:#3840F7"/>
							</linearGradient>
							<path class="st15" d="M1573.8,1073.6l-48.3,0.7c-13.9,0.2-25.3,10.9-25.5,23.8l-1,69.2c-0.2,12.9,10.9,23.2,24.8,22.9
								l48.3-1.1c13.8-0.3,25.1-11,25.3-23.9l1-68.8C1598.6,1083.6,1587.6,1073.4,1573.8,1073.6z"/>
						</g>
						<g>
							
								<linearGradient id="SVGID_15_" gradientUnits="userSpaceOnUse" x1="2347.9023" y1="1034.406" x2="2156.635" y2="1102.1971" gradientTransform="matrix(0.9999 1.440436e-02 -1.440436e-02 0.9999 14.7273 -21.8188)">
								<stop  offset="0" style="stop-color:#53D8FF"/>
								<stop  offset="1" style="stop-color:#3840F7"/>
							</linearGradient>
							<path class="st16" d="M2163.2,1026.4l-68.9,0.9c-23.9,0.3-43.6,19.2-43.9,42.2l-1.6,105.9c-0.3,23,18.8,41.2,42.7,40.6
								l68.9-1.7c23.6-0.6,43-19.5,43.4-42.3l1.6-105C2205.7,1044.3,2186.9,1026.1,2163.2,1026.4z"/>
							
								<linearGradient id="SVGID_16_" gradientUnits="userSpaceOnUse" x1="2235.3755" y1="1005.66" x2="2119.7834" y2="1121.2522" gradientTransform="matrix(0.9999 1.440436e-02 -1.440436e-02 0.9999 14.7273 -21.8188)">
								<stop  offset="0" style="stop-color:#53D8FF"/>
								<stop  offset="1" style="stop-color:#3840F7"/>
							</linearGradient>
							<path class="st17" d="M2150.8,1064.7l-45.2,0.7c-13,0.2-23.7,10.5-23.9,23.1l-1,67c-0.2,12.5,10.2,22.5,23.2,22.2l45.2-1
								c12.9-0.3,23.5-10.6,23.7-23.1l1-66.6C2174.1,1074.4,2163.7,1064.5,2150.8,1064.7z"/>
						</g>
					</g>
					<g>
						
							<linearGradient id="SVGID_17_" gradientUnits="userSpaceOnUse" x1="942.7111" y1="1095.9269" x2="764.1487" y2="1477.5121" gradientTransform="matrix(0.9999 1.440436e-02 -1.440436e-02 0.9999 14.7273 -21.8188)">
							<stop  offset="0" style="stop-color:#53D8FF"/>
							<stop  offset="1" style="stop-color:#3840F7"/>
						</linearGradient>
						<path class="st18" d="M955.5,1042.8l-78.9,1c-27.4,0.4-49.9,20.6-50.3,45.3l-1.7,113.4c-0.4,24.6,21.6,44.1,48.9,43.4
							l78.9-1.9c27.1-0.6,49.2-21,49.6-45.3l1.7-112.3C1004.2,1061.9,982.6,1042.4,955.5,1042.8z"/>
						
							<linearGradient id="SVGID_18_" gradientUnits="userSpaceOnUse" x1="1579.6853" y1="1098.465" x2="1408.7739" y2="1463.6998" gradientTransform="matrix(0.9999 1.440436e-02 -1.440436e-02 0.9999 14.7273 -21.8188)">
							<stop  offset="0" style="stop-color:#53D8FF"/>
							<stop  offset="1" style="stop-color:#3840F7"/>
						</linearGradient>
						<path class="st19" d="M1601.2,1034.2l-73.5,1c-25.5,0.3-46.5,19.9-46.9,43.7l-1.6,109.4c-0.4,23.8,20.1,42.6,45.6,41.9
							l73.6-1.8c25.2-0.6,45.9-20.2,46.3-43.8l1.6-108.4C1646.5,1052.7,1626.4,1033.9,1601.2,1034.2z"/>
						
							<linearGradient id="SVGID_19_" gradientUnits="userSpaceOnUse" x1="2153.7385" y1="1088.64" x2="1989.5527" y2="1439.5027" gradientTransform="matrix(0.9999 1.440436e-02 -1.440436e-02 0.9999 14.7273 -21.8188)">
							<stop  offset="0" style="stop-color:#53D8FF"/>
							<stop  offset="1" style="stop-color:#3840F7"/>
						</linearGradient>
						<path class="st20" d="M2177.4,1026.6l-68.9,0.9c-23.9,0.3-43.6,19.2-43.9,42.2l-1.6,105.9c-0.3,23,18.8,41.2,42.7,40.6
							l68.9-1.7c23.6-0.6,43-19.5,43.4-42.3l1.6-105C2219.9,1044.5,2201,1026.3,2177.4,1026.6z"/>
						
							<linearGradient id="SVGID_20_" gradientUnits="userSpaceOnUse" x1="1531.0588" y1="1149.6403" x2="1460.5958" y2="289.5119" gradientTransform="matrix(0.9999 1.440436e-02 -1.440436e-02 0.9999 14.7273 -21.8188)">
							<stop  offset="0" style="stop-color:#53D8FF"/>
							<stop  offset="1" style="stop-color:#3840F7"/>
						</linearGradient>
						<path class="st21" d="M914.7,1157.2l-0.4-26c6.6-0.1,665.7-9.7,1226.8-22.9l0.6,26C1580.5,1147.5,921.3,1157.1,914.7,1157.2z"
							/>
						
							<linearGradient id="SVGID_21_" gradientUnits="userSpaceOnUse" x1="957.0085" y1="782.1179" x2="890.7343" y2="1388.056" gradientTransform="matrix(0.9999 1.440436e-02 -1.440436e-02 0.9999 14.7273 -21.8188)">
							<stop  offset="0" style="stop-color:#53D8FF"/>
							<stop  offset="1" style="stop-color:#3840F7"/>
						</linearGradient>
						<path class="st22" d="M941.4,1083.7l-51.8,0.8c-14.9,0.2-27.2,11.3-27.4,24.7l-1.1,71.7c-0.2,13.4,11.7,24,26.6,23.7l51.8-1.1
							c14.8-0.3,26.9-11.4,27.1-24.7l1.1-71.3C968,1094.1,956.2,1083.5,941.4,1083.7z"/>
						
							<linearGradient id="SVGID_22_" gradientUnits="userSpaceOnUse" x1="1654.9563" y1="593.9319" x2="1470.1749" y2="1693.1448" gradientTransform="matrix(0.9999 1.440436e-02 -1.440436e-02 0.9999 14.7273 -21.8188)">
							<stop  offset="0" style="stop-color:#53D8FF"/>
							<stop  offset="1" style="stop-color:#3840F7"/>
						</linearGradient>
						<path class="st23" d="M1588,1073.8l-48.3,0.7c-13.9,0.2-25.3,10.9-25.5,23.8l-1,69.2c-0.2,12.9,10.9,23.2,24.8,22.9l48.3-1.1
							c13.8-0.3,25.1-11,25.3-23.9l1-68.8C1612.8,1083.8,1601.8,1073.6,1588,1073.8z"/>
						
							<linearGradient id="SVGID_23_" gradientUnits="userSpaceOnUse" x1="2247.7244" y1="789.4231" x2="1958.0131" y2="1682.3038" gradientTransform="matrix(0.9999 1.440436e-02 -1.440436e-02 0.9999 14.7273 -21.8188)">
							<stop  offset="0" style="stop-color:#53D8FF"/>
							<stop  offset="1" style="stop-color:#3840F7"/>
						</linearGradient>
						<path class="st24" d="M2165,1064.9l-45.2,0.7c-13,0.2-23.7,10.5-23.9,23.1l-1,67c-0.2,12.5,10.2,22.5,23.2,22.2l45.2-1
							c12.9-0.3,23.5-10.6,23.7-23.1l1-66.6C2188.2,1074.6,2177.9,1064.7,2165,1064.9z"/>
					</g>
				</g>
			</g>
		</g>
		<g>
			<g>
				
					<linearGradient id="SVGID_24_" gradientUnits="userSpaceOnUse" x1="-662.303" y1="322.1936" x2="-1274.1349" y2="1104.9789" gradientTransform="matrix(-0.9999 -1.440436e-02 -1.440436e-02 0.9999 871.4724 -9.4767)">
					<stop  offset="0" style="stop-color:#53EAC9"/>
					<stop  offset="0.9964" style="stop-color:#45AED8"/>
				</linearGradient>
				<path class="st25" d="M1527.1,662.4l34.3,8.6c41.8,12.8,77.2,16.4,107.5,13.7c94.8-8.4,140.2-78.4,176.1-122.8
					c47.3-58.6,98.4-47.7,98.4-47.7l-33.3,130.4c-71.8,107.4-172.3,111.2-239.6,97.8c-42.9-8.5-72.3-23.9-72.3-23.9
					C1519.5,695.2,1527.1,662.4,1527.1,662.4z"/>
				
					<linearGradient id="SVGID_25_" gradientUnits="userSpaceOnUse" x1="-1549.7433" y1="717.7927" x2="-1976.7339" y2="1264.0898" gradientTransform="matrix(-0.9713 0.2376 0.2376 0.9713 -324.5401 252.0105)">
					<stop  offset="0" style="stop-color:#F9B776"/>
					<stop  offset="1" style="stop-color:#F47960"/>
				</linearGradient>
				<path class="st26" d="M1448.3,725c0.4-6.8,3.9-13,9.6-17l55.5-38.6c0,0-1-7.9-16.2-9.8c-15.2-1.9-15.8-17.8-15.8-17.8
					s21.1,3.9,52.4,10.6c17.9,3.8,30.2,15.2,37.5,24.2l-10.7,23.9c-35.1,20-73,31.2-112.8,36L1448.3,725z"/>
			</g>
			
				<linearGradient id="SVGID_26_" gradientUnits="userSpaceOnUse" x1="-1186.722" y1="1314.3398" x2="-1385.4558" y2="1595.6249" gradientTransform="matrix(-0.9999 -1.440436e-02 -1.440436e-02 0.9999 871.4724 -9.4767)">
				<stop  offset="0" style="stop-color:#53EAC9"/>
				<stop  offset="0.9964" style="stop-color:#45AED8"/>
			</linearGradient>
			<polygon class="st27" points="2256,1460.1 1983.4,1466.6 1984.9,1370.1 2215.3,1352.9 			"/>
			
				<linearGradient id="SVGID_27_" gradientUnits="userSpaceOnUse" x1="-845.5363" y1="-67.8726" x2="-647.7452" y2="428.2819" gradientTransform="matrix(0.9999 1.440436e-02 -1.440436e-02 0.9999 2746.7112 17.5378)">
				<stop  offset="0" style="stop-color:#2B3582"/>
				<stop  offset="1" style="stop-color:#150E42"/>
			</linearGradient>
			<path class="st28" d="M1995.1,213.9c0,0,68.9,23.3,112.4,119.8c11.9,26.4,78.4,31.9,84.5,85.8c3.1,27.8,24,50.3,52.5,55
				c70.9,11.5,179.9,48.8,195.7,168.6c12,91.4-36.5,125.4-87.1,136.6c-37.1,8.3-62.3,42.8-55.3,79.1c6.7,34.8-4.7,74.8-67.2,105.7
				c-140.2,69.2-275.6-172.3-275.6-172.3l-22.2-418.8L1995.1,213.9z"/>
			
				<linearGradient id="SVGID_28_" gradientUnits="userSpaceOnUse" x1="-344.3588" y1="1915.6824" x2="-245.6083" y2="1915.6824" gradientTransform="matrix(0.9999 1.440436e-02 -1.440436e-02 0.9999 2746.7112 17.5378)">
				<stop  offset="0" style="stop-color:#2B3582"/>
				<stop  offset="1" style="stop-color:#150E42"/>
			</linearGradient>
			<path class="st29" d="M2375.2,1905.2l4.9,44.8c0.9,8.5,7.7,15.3,16.5,16.4c14.8,1.8,38.5,3.8,61.8,1.8c10.2-0.9,17-10.8,14-20.3
				c-5.4-17.3-15.4-43.4-30.1-58.9l-51.2-0.7C2381.7,1888.1,2374.2,1896,2375.2,1905.2z"/>
			
				<linearGradient id="SVGID_29_" gradientUnits="userSpaceOnUse" x1="-759.8166" y1="2293.646" x2="-622.083" y2="683.8838" gradientTransform="matrix(0.9999 1.440436e-02 -1.440436e-02 0.9999 2746.7112 17.5378)">
				<stop  offset="0" style="stop-color:#F9B776"/>
				<stop  offset="1" style="stop-color:#F47960"/>
			</linearGradient>
			<path class="st30" d="M1981.8,1375.6l-9.4,49.2c0,0,24.7,284.5,28.1,398.2c0.5,17.8-4.5,35.4-14.4,50.4l-51.5,78.5l129.1-71.4
				l2.8-15.1l-20.5-28.2l32.2-317.9c1.9-18.7-1.8-37.5-10.7-54.2l-25.7-48.5L1981.8,1375.6z"/>
			
				<linearGradient id="SVGID_30_" gradientUnits="userSpaceOnUse" x1="-803.3309" y1="1898.4938" x2="-643.4479" y2="1898.4938" gradientTransform="matrix(0.9999 1.440436e-02 -1.440436e-02 0.9999 2746.7112 17.5378)">
				<stop  offset="0" style="stop-color:#2B3582"/>
				<stop  offset="1" style="stop-color:#150E42"/>
			</linearGradient>
			<path class="st31" d="M1926.1,1963.3l40.8,0.6c7.6,0.1,14.9-3.2,19.7-9c13-15.8,39.8-46.7,52.4-47.4c17-0.9,13.9,57.6,13.9,57.6
				l9.5,0.1l13.1-72.5c3.3-18.2-5.8-36.5-22.6-45.3l0,0c0,0-4.3,27.8-25.5,39.8c-21.2,12-86.5,55.2-86.5,55.2s-7.9-1.2-16.6,0.2
				C1911.4,1944.6,1913,1963.1,1926.1,1963.3z"/>
			
				<linearGradient id="SVGID_31_" gradientUnits="userSpaceOnUse" x1="-473.7332" y1="2316.1665" x2="-336.1802" y2="708.5151" gradientTransform="matrix(0.9999 1.440436e-02 -1.440436e-02 0.9999 2746.7112 17.5378)">
				<stop  offset="0" style="stop-color:#F9B776"/>
				<stop  offset="1" style="stop-color:#F47960"/>
			</linearGradient>
			<path class="st32" d="M2156.8,1401.4c0,0,165,314,190.9,385.6c25.9,71.5,34.4,131,34.7,136.7c0.4,8.8,11.6,17.4,42.7,17.8
				c16,0.2,24-5.9,27.9-11.9c3.4-5.1,3.6-11.5,0.9-17c-9.5-19.4-39.7-81.3-50.9-109.3c-13.3-33.5-40.6-184.8-56.1-237.4
				c-15.5-52.7-33-109.8-102.9-163.2C2244.1,1402.6,2196.2,1355.9,2156.8,1401.4z"/>
			
				<linearGradient id="SVGID_32_" gradientUnits="userSpaceOnUse" x1="-1005.3489" y1="534.4227" x2="-1337.002" y2="1003.8398" gradientTransform="matrix(-0.9999 -1.440436e-02 -1.440436e-02 0.9999 871.4724 -9.4767)">
				<stop  offset="0" style="stop-color:#CE1567"/>
				<stop  offset="1" style="stop-color:#7A1DBC"/>
			</linearGradient>
			<path class="st33" d="M2057.3,889.2c-41.1-180.2,71.3-280.3,71.3-280.3c-44.2-42.3-112.1-70.3-155.3-85
				c-25.6-8.7-54.1-3.4-74.4,14c-35.3,30.3-84.6,81.6-75.8,125.7c7.9,39.6,81.9,237.8,81.9,237.8S1975.8,935,2057.3,889.2z"/>
			
				<linearGradient id="SVGID_33_" gradientUnits="userSpaceOnUse" x1="-983.3485" y1="815.9111" x2="-1382.9982" y2="1484.291" gradientTransform="matrix(-0.9999 -1.440436e-02 -1.440436e-02 0.9999 871.4724 -9.4767)">
				<stop  offset="0" style="stop-color:#2B3582"/>
				<stop  offset="1" style="stop-color:#150E42"/>
			</linearGradient>
			<path class="st34" d="M2153,979.4c-17-52.2-95.7-90.3-95.7-90.3c-81.5,45.9-152.2,12.2-152.2,12.2s-16.9,58.9-6.7,114
				c10.2,55.1,74,409.3,74,409.3c108.7,22.9,276.9-17.7,276.9-17.7C2181.8,1286.7,2170,1031.6,2153,979.4z"/>
			
				<linearGradient id="SVGID_34_" gradientUnits="userSpaceOnUse" x1="-775.354" y1="706.664" x2="-749.513" y2="517.6176" gradientTransform="matrix(0.9999 1.440436e-02 -1.440436e-02 0.9999 2746.7112 17.5378)">
				<stop  offset="0" style="stop-color:#F9B776"/>
				<stop  offset="1" style="stop-color:#F47960"/>
			</linearGradient>
			<path class="st35" d="M2014,393.9l33.2,155.3c3.2,13.7-9.6,11.3-23.8,8.5c-23.2-4.6-53.2-13.8-62.9-31.5c-1-1.8-1.5-3.8-1.7-5.9
				l-13.7-107.6c-1.1-8.5,3.8-16.7,12-20.1l29.7-12.3C1998.2,375.7,2011.2,382.2,2014,393.9z"/>
			<g>
				
					<linearGradient id="SVGID_35_" gradientUnits="userSpaceOnUse" x1="-581.6353" y1="1128.9796" x2="-355.8931" y2="727.2344" gradientTransform="matrix(0.9044 -0.4265 0.4265 0.9044 1998.3195 -766.8049)">
					<stop  offset="0" style="stop-color:#F9B776"/>
					<stop  offset="1" style="stop-color:#F47960"/>
				</linearGradient>
				<path class="st36" d="M1922.7,269.2c0,0-30.5,33-30.5,98.2c0,65.2,31.4,81,57.3,73.2c26-7.7,62.1-24.9,83.8-76.9
					C2055,311.8,1963.2,228.1,1922.7,269.2z"/>
				
					<linearGradient id="SVGID_36_" gradientUnits="userSpaceOnUse" x1="-534.3357" y1="776.4022" x2="-419.5063" y2="1064.4492" gradientTransform="matrix(0.9044 -0.4265 0.4265 0.9044 1998.3195 -766.8049)">
					<stop  offset="0" style="stop-color:#2B3582"/>
					<stop  offset="1" style="stop-color:#150E42"/>
				</linearGradient>
				<path class="st37" d="M1993.6,347.1c0,0-9.2-91.2-81.1-59.5l-11.3,19.1c0,0-47.3-31.3-14.3-71.6c33-40.3,91.6-46.3,137.3,1.5
					c45.6,47.8,67.1,83.9,49.7,124.7c-17.4,40.8-44.8,16.1-44.8,16.1s4.4-32.7-8.9-43.1c-13.3-10.4-21,13-21,13L1993.6,347.1z"/>
				
					<linearGradient id="SVGID_37_" gradientUnits="userSpaceOnUse" x1="-531.9036" y1="1156.701" x2="-306.1763" y2="754.9823" gradientTransform="matrix(0.9044 -0.4265 0.4265 0.9044 1998.3195 -766.8049)">
					<stop  offset="0" style="stop-color:#F9B776"/>
					<stop  offset="1" style="stop-color:#F47960"/>
				</linearGradient>
				<path class="st38" d="M2005.8,352.2c0,0-5-46.8,22.2-39.7c27.2,7.1,2.3,44.3-8.1,57.5L2005.8,352.2z"/>
			</g>
			<path class="st39" d="M1961.8,218.4c16.6,5.5,31.4,15.4,44.7,26.3c13.4,11,25,23.9,34.7,38c9.7,14.1,17.5,29.4,22.9,45.5
				c2.7,8.1,4.8,16.3,6.3,24.6c1.6,8.4,2.8,16.9,5.4,25.4c2.5,8.4,6.6,16.7,13,23.2c6.3,6.6,14,11.4,21.8,15.6
				c7.8,4.2,15.8,7.9,23.3,12.1c7.5,4.2,14.4,9.3,20.5,15.2c12.2,11.8,20.9,26.8,25.1,43c2.3,8.1,4,16.6,7,25
				c2.9,8.3,7.7,16.6,15,22.5c7.1,6,15.8,9.6,24.4,12.2c8.7,2.5,17.5,4.1,26.2,5.6c17.3,2.9,34.1,7.5,50.2,14.3
				c15.9,6.8,31,15.6,44.2,26.7c13.1,11,24.3,24.4,31.8,39.5c7.5,15.1,10.9,32.2,8.4,48.7c-2.6,16.4-10.4,32.5-23.4,43.6
				c-6.4,5.5-14,9.8-22.3,12c-8.3,2.1-17.2,2.3-25.7,0.8c-17-2.8-33.1-13.6-39.3-29.6l-1.3,0.4c6,16.7,22.5,28.2,40.1,31.5
				c8.8,1.7,18.1,1.8,26.9-0.3c8.8-2.1,17-6.6,23.9-12.3c13.9-11.5,22-28.4,24.9-45.5c2.8-17.4-0.7-35.4-8.4-51.1
				c-7.7-15.8-19.1-29.7-32.6-41.1c-13.5-11.5-28.9-20.7-45.2-27.7c-16.3-7-33.7-11.9-51.2-15c-8.7-1.6-17.3-3.2-25.5-5.7
				c-8.2-2.5-16.1-5.9-22.3-11.2c-6.3-5.2-10.6-12.3-13.4-20.1c-2.9-7.8-4.6-16.2-7-24.5c-4.6-16.9-13.9-32.8-26.8-45.1
				c-6.4-6.2-13.8-11.5-21.6-15.8c-7.8-4.3-15.8-8-23.5-12c-7.6-4.1-15-8.6-20.7-14.6c-5.9-5.9-9.7-13.4-12.2-21.4
				c-2.5-8-3.8-16.4-5.5-24.9c-1.6-8.5-3.8-16.9-6.6-25.1c-5.6-16.4-13.7-32-23.7-46.3c-10.2-14.1-22.3-27.1-36.1-37.9
				c-13.8-10.8-28.9-20.4-45.9-25.7L1961.8,218.4z"/>
			<path class="st39" d="M2054,337c0.4,11,0.9,22.1,2.8,33.1c1.9,11,5,22,11,31.8c3,4.9,6.7,9.5,10.9,13.5c4.2,4,8.9,7.4,13.6,10.6
				c9.5,6.3,18.6,12.5,27,19.7c16.7,14.2,30.6,32,34.7,53c4.8,20.8,3,43.8,12.2,65.6c4.7,10.8,12.6,20.2,21.8,27.3
				c9.3,7.2,19.8,12.6,30.7,16.6c21.9,8,44.8,11,66.6,16.2c21.7,5.1,43.3,13.4,58.4,29.2c7.3,7.8,13.8,17.4,13.7,28
				c-0.1,10.7-5.3,20.8-10.5,30.5l1.2,0.6c5.8-9.4,11.8-19.4,12.4-31.1c0.3-5.8-1.2-11.6-3.8-16.8c-2.5-5.2-5.8-9.9-9.6-14.3
				c-15.7-17.3-38.2-26.5-60.3-32.3c-22.2-6-44.9-8.9-65.6-16.8c-10.3-3.9-20.1-9.1-28.5-15.7c-8.4-6.7-15.2-15-19.3-24.6
				c-8.5-19.4-7.3-42-12.4-64.1c-2.5-11.1-7.3-22-14-31.4c-6.6-9.5-14.8-17.7-23.7-24.8c-8.8-7.3-18.6-13.4-28.1-19.4
				c-9.4-6-17.9-12.8-23.7-22c-6-9-9.6-19.4-11.9-30.1c-2.3-10.7-3.4-21.7-4.6-32.6L2054,337z"/>
			
				<linearGradient id="SVGID_38_" gradientUnits="userSpaceOnUse" x1="-983.9765" y1="608.6896" x2="-1800.2916" y2="1764.0911" gradientTransform="matrix(-0.9999 -1.440436e-02 -1.440436e-02 0.9999 871.4724 -9.4767)">
				<stop  offset="0" style="stop-color:#9CFFFB"/>
				<stop  offset="1" style="stop-color:#9BFFFA"/>
			</linearGradient>
			<path class="st40" d="M1973,667.2L2042,525c28.4,7.5,87.3,85.5,87.3,85.5s-61.5,231.3-5.2,293.9c50,55.6,171.2,459.2,197.8,549.1
				c1.3,4.4,0.5,9.1-2.1,12.8c-2.7,3.8-6.9,6.2-11.6,6.6l-139.4,12c-7.7,0.7-14.7-4.2-16.6-11.4l-187.6-722.8
				C1957.4,722.7,1960.3,693.2,1973,667.2z"/>
			
				<linearGradient id="SVGID_39_" gradientUnits="userSpaceOnUse" x1="-1174.2601" y1="996.7955" x2="-957.8859" y2="996.7955" gradientTransform="matrix(-0.9999 -1.440436e-02 -1.440436e-02 0.9999 871.4724 -9.4767)">
				<stop  offset="0" style="stop-color:#53EAC9"/>
				<stop  offset="0.9964" style="stop-color:#45AED8"/>
			</linearGradient>
			<path class="st41" d="M1821.6,685c0,0-22.3-78.9,85.5-153.2c0,0,46.5-33.3,51.6-11.5l-40.6,175.7l106.2,780.5
				c0.7,5-1.3,10.1-5.2,13.4c-3.9,3.4-9.3,4.6-14.4,3.3l-28.9-7.4c-5.8-1.5-10.2-6.1-11.4-11.8c-15.4-75.4-117.4-583.2-84.7-616.2
				C1879.6,857.9,1818.8,700.6,1821.6,685z"/>
			
				<linearGradient id="SVGID_40_" gradientUnits="userSpaceOnUse" x1="-1282.9225" y1="769.9288" x2="-785.4662" y2="769.9288" gradientTransform="matrix(-0.9999 -1.440436e-02 -1.440436e-02 0.9999 871.4724 -9.4767)">
				<stop  offset="0" style="stop-color:#9CFFFB"/>
				<stop  offset="1" style="stop-color:#9BFFFA"/>
			</linearGradient>
			<path class="st42" d="M2129.4,610.5c0,0,65.6,273.4-83.9,323.1s-338.1-85.7-338.1-85.7s-32.3-16.2-51-12
				c-18.7,4.2-15.3-63.3,19.8-80.8c35.1-17.5,73.5,59.6,73.5,59.6s324.5,162.2,298.8-109.5C2048.5,705.1,2006.1,613.3,2129.4,610.5z
				"/>
			<g>
				
					<linearGradient id="SVGID_41_" gradientUnits="userSpaceOnUse" x1="-715.697" y1="558.1016" x2="-197.65" y2="-242.9529" gradientTransform="matrix(-0.9999 -1.440436e-02 -1.440436e-02 0.9999 871.4724 -9.4767)">
					<stop  offset="0" style="stop-color:#2B3582"/>
					<stop  offset="1" style="stop-color:#150E42"/>
				</linearGradient>
				<path class="st43" d="M1913.9,1003.9l-76.8-274.7c-0.9-3.1-3.6-5.4-6.9-5.8c-14.6-1.9-57-7.1-106-11.8
					c-59-5.7-127.5-10.5-168.5-7.7c-5.8,0.4-9.4,6.3-6.9,11.4c22.6,46,115.7,233.1,162.8,294.6c1.6,2,4,3.3,6.6,3.3l187.7,0.9
					C1911.4,1014,1915.3,1009,1913.9,1003.9z"/>
				
					<linearGradient id="SVGID_42_" gradientUnits="userSpaceOnUse" x1="-796.6914" y1="560.6938" x2="-836.2747" y2="734.5161" gradientTransform="matrix(-0.9999 -1.440436e-02 -1.440436e-02 0.9999 871.4724 -9.4767)">
					<stop  offset="0" style="stop-color:#53D8FF"/>
					<stop  offset="1" style="stop-color:#3840F7"/>
				</linearGradient>
				<path class="st44" d="M1716.3,687.8l-58.5-10.3c-3.1-0.5-5.7,2.3-4.8,5.2l5.5,17.1c0.5,1.5,1.8,2.6,3.4,2.8l56.3,8.1
					c2.9,0.4,5.4-2.1,4.7-4.9l-3.4-14.9C1719.3,689.3,1717.9,688.1,1716.3,687.8z"/>
				
					<linearGradient id="SVGID_43_" gradientUnits="userSpaceOnUse" x1="-817.5059" y1="633.4206" x2="-836.4291" y2="746.9607" gradientTransform="matrix(-0.9999 -1.440436e-02 -1.440436e-02 0.9999 871.4724 -9.4767)">
					<stop  offset="0" style="stop-color:#53D8FF"/>
					<stop  offset="1" style="stop-color:#3840F7"/>
				</linearGradient>
				<path class="st45" d="M1759.5,736.4L1755,712c-0.4-2.5-2.5-4.3-5.1-4.6l-118.3-13.3c-4-0.4-7.2,3-6.3,6.8l7.1,30.5
					c0.6,2.4,2.7,4.2,5.3,4.4l115.6,7.2C1757.1,743.3,1760.1,740,1759.5,736.4z"/>
				
					<linearGradient id="SVGID_44_" gradientUnits="userSpaceOnUse" x1="-1045.2694" y1="885.7897" x2="-937.5298" y2="885.7897" gradientTransform="matrix(-0.9999 -1.440436e-02 -1.440436e-02 0.9999 871.4724 -9.4767)">
					<stop  offset="0" style="stop-color:#F9B776"/>
					<stop  offset="1" style="stop-color:#F47960"/>
				</linearGradient>
				<path class="st46" d="M1895.4,937.5c0,0,11.9-44.7,7.6-60.7c-4.3-16-12.8-36.6-42.2-32.4s-64.2,15.6-64.2,15.6
					s1.4,20.8,23.8,14.4l-14,10.2c0,0,1.7,16.6,20.7,8l-13.1,13.6c0,0,7.9,13.7,21.9,5.2C1849.9,902.8,1856,942.4,1895.4,937.5z"/>
			</g>
			<g>
				<g>
					
						<linearGradient id="SVGID_45_" gradientUnits="userSpaceOnUse" x1="-1197.1409" y1="897.1827" x2="-1210.8727" y2="916.6186" gradientTransform="matrix(-0.9999 -1.440436e-02 -1.440436e-02 0.9999 871.4724 -9.4767)">
						<stop  offset="0" style="stop-color:#53EAC9"/>
						<stop  offset="0.9964" style="stop-color:#45AED8"/>
					</linearGradient>
					<path class="st47" d="M2014.2,935.7c0.1,0,0.1,0,0.2,0c67.7,0.9,94.4-48.4,94.6-48.9c0.9-1.8,0.1-1.7-1.8-2.6
						c-1.9-0.9-4.2,1-5.1,2.9c-0.2,0.5-25,48.1-88.1,50c-2.1,0.1-3.7-2.6-3.6-0.6C2010.4,938.4,2012.2,935.6,2014.2,935.7z"/>
				</g>
				<g>
					
						<linearGradient id="SVGID_46_" gradientUnits="userSpaceOnUse" x1="-1130.1323" y1="725.5106" x2="-1186.761" y2="805.662" gradientTransform="matrix(-0.9999 -1.440436e-02 -1.440436e-02 0.9999 871.4724 -9.4767)">
						<stop  offset="0" style="stop-color:#53EAC9"/>
						<stop  offset="0.9964" style="stop-color:#45AED8"/>
					</linearGradient>
					<path class="st48" d="M1990.8,849.3c0.6,0,1.2-0.1,1.8-0.4c75.9-37,58.2-145.8,57.4-150.5c-0.3-2-2.3-3.4-4.4-3
						c-2.1,0.3-3.5,2.2-3.2,4.3c0.2,1.1,17.6,108.1-53.2,142.6c-1.9,0.9-2.7,3.2-1.7,5C1988.1,848.5,1989.4,849.3,1990.8,849.3z"/>
				</g>
			</g>
			
				<linearGradient id="SVGID_47_" gradientUnits="userSpaceOnUse" x1="-1093.5415" y1="577.3265" x2="-1220.1567" y2="756.5361" gradientTransform="matrix(-0.9999 -1.440436e-02 -1.440436e-02 0.9999 871.4724 -9.4767)">
				<stop  offset="0" style="stop-color:#53EAC9"/>
				<stop  offset="0.9964" style="stop-color:#45AED8"/>
			</linearGradient>
			<path class="st49" d="M1961.2,688.8C1974.7,649.1,2042,525,2042,525l26.2,16.9l-50.7,146.4c-2.2,6.3-8.3,10.5-15.1,10.4
				c-3.6-0.1-6.7,2.6-7,6.2l-10.3,125.2C1985.2,829.9,1947.7,728.5,1961.2,688.8z"/>
			
				<linearGradient id="SVGID_48_" gradientUnits="userSpaceOnUse" x1="-1006.4943" y1="548.3535" x2="-1163.8706" y2="771.1019" gradientTransform="matrix(-0.9999 -1.440436e-02 -1.440436e-02 0.9999 871.4724 -9.4767)">
				<stop  offset="0" style="stop-color:#9CFFFB"/>
				<stop  offset="1" style="stop-color:#9BFFFA"/>
			</linearGradient>
			<path class="st50" d="M1888.8,650.7c-2-4.9-2.2-10.3-0.4-15.2l42.1-122l25-18.8l2.4,19.2l-24.1,114.2l4.8,208.8l-40.2-112.7
				c-2-5.5-1.6-11.5,1-16.8l2.6-5.3c2.8-5.6,3-12,0.6-17.8L1888.8,650.7z"/>
		</g>
	</g>
</g>
</svg>
