<?xml version="1.0" encoding="utf-8"?>
<!-- Generator: Adobe Illustrator 23.0.5, SVG Export Plug-In . SVG Version: 6.00 Build 0)  -->
<svg version="1.1" xmlns="http://www.w3.org/2000/svg" xmlns:xlink="http://www.w3.org/1999/xlink" x="0px" y="0px"
	 viewBox="0 0 3000 2000" style="enable-background:new 0 0 3000 2000;" xml:space="preserve">
<style type="text/css">
	.st0{fill:none;}
	.st1{fill:url(#SVGID_1_);}
	.st2{fill:url(#SVGID_2_);}
	.st3{fill:#FFFFFF;}
	.st4{fill:url(#SVGID_3_);}
	.st5{fill:#BDD0FB;}
	.st6{opacity:0.43;}
	.st7{fill:#91B3FA;}
	.st8{fill:#7D97F4;}
	.st9{fill:url(#SVGID_4_);}
	.st10{fill:url(#SVGID_5_);}
	.st11{fill:url(#SVGID_6_);}
	.st12{fill:url(#SVGID_7_);}
	.st13{fill:url(#SVGID_8_);}
	.st14{fill:url(#SVGID_9_);}
	.st15{fill:url(#SVGID_10_);}
	.st16{fill:url(#SVGID_11_);}
	.st17{fill:url(#SVGID_12_);}
	.st18{fill:url(#SVGID_13_);}
	.st19{fill:url(#SVGID_14_);}
	.st20{fill:url(#SVGID_15_);}
</style>
<g id="Background">
	<g>
		<g>
			<rect class="st0" width="3000" height="2000"/>
		</g>
	</g>
</g>
<g id="Illustration">
	<g>
		<linearGradient id="SVGID_1_" gradientUnits="userSpaceOnUse" x1="2756.0105" y1="2444.4082" x2="1122.4236" y2="415.5957">
			<stop  offset="0" style="stop-color:#DAE3FE"/>
			<stop  offset="1" style="stop-color:#E9EFFD"/>
		</linearGradient>
		<path class="st1" d="M2330.1,1627.8c-38.8,38.6-75.5,63.5-104.5,83.2c-341,231.2-744.6,163.8-830.4,147.3
			c-126.6-24.3-371.5-71.3-548.4-267.9C579,1292.9,620.7,824.2,828.4,514.9c38-56.6,238.7-370.7,646.6-421
			c246.9-30.5,534.6,31,743,195.9C2655.3,635.9,2624.2,1335.3,2330.1,1627.8z"/>
		<g>
			<g>
				<linearGradient id="SVGID_2_" gradientUnits="userSpaceOnUse" x1="942.4584" y1="729.3428" x2="1399.3662" y2="729.3428">
					<stop  offset="0" style="stop-color:#FEBBBA"/>
					<stop  offset="1" style="stop-color:#FF928E"/>
				</linearGradient>
				<path class="st2" d="M1339,1321.6c-6.1,18.3-29.9,24.8-45.5,12.5c-86-67.6-310.9-279.5-306.5-644.3
					c3.7-308.1-25.3-475.5-44-550.6c-4-15.9,15.9-27.3,29-16.8C1117.3,238.9,1559.1,659.3,1339,1321.6z"/>
				<path class="st3" d="M1311.6,1322.9c-0.4,0.3-0.8,0.5-1.3,0.7c-4,1.7-8.7,0.1-10.5-3.6c-2.1-4.2-209.6-429.3-225-857.9
					c-0.1-4.1,3.3-7.6,7.6-7.7c4.4-0.1,8,3.1,8.2,7.2c15.2,425.5,221.4,847.9,223.5,852.1C1315.7,1317,1314.6,1320.8,1311.6,1322.9z
					"/>
			</g>
		</g>
		<g>
			<linearGradient id="SVGID_3_" gradientUnits="userSpaceOnUse" x1="662.2802" y1="996.5474" x2="1392.5978" y2="996.5474">
				<stop  offset="0" style="stop-color:#FF928E"/>
				<stop  offset="1" style="stop-color:#FE7062"/>
			</linearGradient>
			<path class="st4" d="M663.3,222c-5.4-12,12.6-23.1,25.9-16.1c135.6,70.9,470.4,293.6,477.8,766.4
				c6.2,394.6,92.8,610.4,213.3,740.5c34.7,37.4-9.8,93-57.5,72c-72.1-31.7-149.6-77.1-218.8-142
				C604.9,1174.6,758.8,435.1,663.3,222z"/>
			<path class="st3" d="M774,364.2c23.9,58,46.3,116.4,65.9,175.2c20,58.7,37.7,117.8,52.9,177.2c15,59.4,28.5,119,38.7,178.9
				c10.5,59.8,17.7,119.9,24.7,180.2c7.4,60.2,14.4,120.9,29.5,181.5c15,60.4,39.6,120.6,77.8,176c9.5,13.8,19.4,27.5,30.3,40.7
				c10.5,13.3,21.8,26.3,33.4,39.1c23.3,25.6,48.9,50.1,76.6,73c55.6,45.9,120.1,85.4,189.2,117.8c7.3,3.4,16.6,1.7,20.8-3.7
				c4.2-5.4,1.9-12.4-5.1-15.9l0,0c-16.5-8.2-32.9-16.6-48.8-25.5c-8-4.3-15.8-9-23.7-13.4c-7.7-4.7-15.5-9.2-23-14.1
				c-30.3-19.2-58.8-39.9-85.2-62c-53.1-44.1-98.1-94.3-134.7-147.2c-17.9-26.6-33.3-54-45.8-82.3c-12.5-28.2-22.3-57.2-29.9-86.5
				c-15.3-58.7-22.8-118.8-30.8-179c-8-60.2-16.7-120.7-28.5-180.9c-5.8-30.1-12.3-60.1-19.6-90.1c-3.5-15-7.4-29.9-11.2-44.9
				c-4-14.9-8.2-29.8-12.4-44.7c-17.3-59.5-36.9-118.6-59-177.2c-22.4-58.5-46.8-116.6-74.1-174c-0.8-1.6-3.1-2.5-5.3-2
				C774.5,361,773.4,362.7,774,364.2z"/>
		</g>
		<g>
			<path class="st3" d="M2062.6,1194.2c0,0,9.5,655.4-140.6,706.2c-12.2,4.1-23,4.1-32.5,0.6c-106.9-39.1-55.1-519.6-197.3-552.1
				h-154c-154.9,35.2-79.6,602.2-229.8,551.5c-8.4-2.8-16.4-7.6-23.8-14c-0.5-0.4-1-0.9-1.5-1.3
				c-123.7-111.6-115.3-690.9-115.3-690.9c-129.1-196.6-95.9-463.2-95.9-463.2c-11.8-164.9,202.4-302.8,326.7-230.9
				c76.3,44.1,161.9,62.3,216.6,69.8c45.3-6.2,111.6-19.7,176.4-49.2c13.5-6.1,27-13,40.2-20.6c124.3-71.9,338.5,66.1,326.7,230.9
				C2158.5,730.9,2191.6,997.6,2062.6,1194.2z"/>
			<path class="st5" d="M1571.7,1348.9h-33.5c-154.9,35.2-79.6,602.2-229.8,551.5c-8.4-2.8-16.4-7.6-23.8-14
				c123.7,46.2,112.1-409.5,132.4-484.9C1437.3,1326,1571.7,1348.9,1571.7,1348.9z"/>
		</g>
		<g>
			<g class="st6">
				<path class="st7" d="M1057.6,899.2c308.4,86.7,679.5,86.7,1113.4,0c52-187.6,31.1-366.3,31.1-366.3
					c12.7-191-219-351-353.5-267.8c-14.3,8.9-28.9,16.7-43.5,23.8c-70.1,34.1-141.9,49.7-190.8,56.9
					c-59.2-8.7-151.7-29.8-234.3-80.9c-134.5-83.3-366.2,76.9-353.5,268C1026.5,532.9,1005.6,711.6,1057.6,899.2z"/>
			</g>
			<path class="st8" d="M2202.2,532.9c12.7-191-219-351-353.5-267.8c-14.3,8.9-28.9,16.7-43.5,23.8
				c-70.1,34.1-141.9,49.7-190.8,56.9c-59.2-8.7-151.7-29.8-234.3-80.9c-134.5-83.3-366.2,76.9-353.5,268c0,0-20.8,178.7,31.1,366.3
				c8.2,2.3,16.5,4.5,24.8,6.7c-42.3-176.3-24-338.5-24-338.5c-12.1-187.9,207.9-345.5,335.7-263.6c78.4,50.3,166.3,71,222.5,79.6
				c46.5-7.1,114.7-22.4,181.2-56c13.9-7,27.8-14.7,41.3-23.4c127.8-81.9,347.7,75.5,335.7,263.4c0,0,18,160.4-23.3,335.6
				c6.5-1.3,13-2.5,19.6-3.8C2223,711.6,2202.2,532.9,2202.2,532.9z"/>
		</g>
		<g>
			<linearGradient id="SVGID_4_" gradientUnits="userSpaceOnUse" x1="2220.2134" y1="1298.9675" x2="2542.6895" y2="905.9496">
				<stop  offset="0" style="stop-color:#4F52FF"/>
				<stop  offset="1" style="stop-color:#4042E2"/>
			</linearGradient>
			<path class="st9" d="M1987.4,1891.3c3,0,5.4-2.3,5.4-5.1v-607c0-2.8-2.4-5.1-5.4-5.1c-3,0-5.4,2.3-5.4,5.1v607
				C1982,1889.1,1984.4,1891.3,1987.4,1891.3z"/>
			<linearGradient id="SVGID_5_" gradientUnits="userSpaceOnUse" x1="2310.4919" y1="1366.4895" x2="2632.968" y2="973.4715">
				<stop  offset="0" style="stop-color:#4F52FF"/>
				<stop  offset="1" style="stop-color:#4042E2"/>
			</linearGradient>
			<path class="st10" d="M2133,1891.3c3,0,5.4-2.3,5.4-5.1v-607c0-2.8-2.4-5.1-5.4-5.1c-3,0-5.4,2.3-5.4,5.1v607
				C2127.7,1889.1,2130.1,1891.3,2133,1891.3z"/>
			<path class="st8" d="M2491,1895.2c0.7,0,1.4-0.1,2.1-0.4c2.7-1.1,4-4.1,2.8-6.7L2221,1277.3c-1.2-2.6-4.3-3.8-7.1-2.7
				c-2.7,1.1-4,4.1-2.8,6.7l274.9,610.9C2486.9,1894,2488.9,1895.2,2491,1895.2z"/>
			<path class="st8" d="M2321.2,1895.2c0.7,0,1.4-0.1,2.1-0.4c2.7-1.1,4-4.1,2.8-6.7l-274.9-610.9c-1.2-2.6-4.3-3.8-7.1-2.7
				c-2.7,1.1-4,4.1-2.8,6.7l274.9,610.9C2317.1,1894,2319.1,1895.2,2321.2,1895.2z"/>
			<path class="st8" d="M1979,1284.8h251.8c4.2,0,7.6-3.2,7.6-7.2l0,0c0-4-3.4-7.2-7.6-7.2H1979c-4.2,0-7.6,3.2-7.6,7.2l0,0
				C1971.4,1281.6,1974.8,1284.8,1979,1284.8z"/>
			<path class="st8" d="M2087.8,1377.7h170.3c3,0,5.4-2.3,5.4-5.1c0-2.8-2.4-5.1-5.4-5.1h-170.3c-3,0-5.4,2.3-5.4,5.1
				C2082.4,1375.5,2084.8,1377.7,2087.8,1377.7z"/>
			<rect x="2140" y="1483.1" class="st8" width="170.3" height="10.2"/>
			<rect x="2190.6" y="1598.6" class="st8" width="170.3" height="10.2"/>
			<path class="st8" d="M2243.7,1724.3H2414c3,0,5.4-2.3,5.4-5.1c0-2.8-2.4-5.1-5.4-5.1h-170.3c-3,0-5.4,2.3-5.4,5.1
				C2238.3,1722.1,2240.7,1724.3,2243.7,1724.3z"/>
			<path class="st8" d="M2295,1839.9h170.3c3,0,5.4-2.3,5.4-5.1c0-2.8-2.4-5.1-5.4-5.1H2295c-3,0-5.4,2.3-5.4,5.1
				C2289.6,1837.6,2292,1839.9,2295,1839.9z"/>
		</g>
		<g>
			
				<linearGradient id="SVGID_6_" gradientUnits="userSpaceOnUse" x1="-3887.5833" y1="557.1591" x2="-3740.6023" y2="557.1591" gradientTransform="matrix(-1 0 0 1 -1668.0594 0)">
				<stop  offset="0" style="stop-color:#FEBBBA"/>
				<stop  offset="1" style="stop-color:#FF928E"/>
			</linearGradient>
			<path class="st11" d="M2176.2,475.2c0,0,6.6,114.5-103.7,173l26.6,57.2c0,0,99.9-57.1,96.2-212.8c-0.1-4.5,1.6-8.8,4.7-12.2
				l16-29.3c6.3-6.9,3-12.9-1.1-22.6c-2.2-5.3-6.4-9.6-11.8-12.2l-15.3-7.2c-2-0.9-3,0.8-3.4,2.9c-1.5,6.6-0.5,2.2,2.4,18.4
				l2.5,20.6c-3.9,8.2-3.8,9.7-13.3,9l-14-9.1c-1.4-0.9-3.3,0.4-2.7,1.9C2162.4,461.5,2168,469,2176.2,475.2z"/>
			
				<linearGradient id="SVGID_7_" gradientUnits="userSpaceOnUse" x1="3526.7405" y1="1109.469" x2="3666.0564" y2="1109.469" gradientTransform="matrix(1 0 0 1 -1463.7382 0)">
				<stop  offset="0" style="stop-color:#FEBBBA"/>
				<stop  offset="1" style="stop-color:#FF928E"/>
			</linearGradient>
			<path class="st12" d="M2063,988c0,0,74.5,153.4,113.6,217c0,0,7.8,40,0,52.6l-6.6,2.8l30.9-0.9c0,0,2.7-53.8,0.6-56.8
				c-2.1-3-6.4-2.8-6.4-2.8s-13.2-99.1-51.6-120.3l-37.2-120.9L2063,988z"/>
			
				<linearGradient id="SVGID_8_" gradientUnits="userSpaceOnUse" x1="2903.4639" y1="2615.7842" x2="3137.6108" y2="2188.4651" gradientTransform="matrix(1 0 0 1 -1463.7382 0)">
				<stop  offset="0" style="stop-color:#09005D"/>
				<stop  offset="1" style="stop-color:#1A0F91"/>
			</linearGradient>
			<path class="st13" d="M2156.8,1267.9c0,0.7,24.1,0.4,37.2,0.2c4.8-0.1,9-3.3,10-7.8l9.9-49.2c0.9-4.7-2.2-9.2-7.1-10.3l-5.5-1.2
				c0,0-7.9,10.2-5.4,19.9c2.5,9.6,4.7,34.6-1.6,37.5c-6.3,2.9-24.3,3.4-24.3,3.4S2157.2,1261.5,2156.8,1267.9z"/>
			
				<linearGradient id="SVGID_9_" gradientUnits="userSpaceOnUse" x1="2779.762" y1="2574.5486" x2="3017.1887" y2="2141.2444" gradientTransform="matrix(1 0 0 1 -1463.7382 0)">
				<stop  offset="0" style="stop-color:#09005D"/>
				<stop  offset="1" style="stop-color:#1A0F91"/>
			</linearGradient>
			<path class="st14" d="M1992.4,1268.7c-2.4,1.3-1.4,4.8,1.4,4.8c22-0.2,71.2-0.9,75.6-2.6c5.6-2.2-2.1-21.4-10.2-27.9l-44.8,13.8
				L1992.4,1268.7z"/>
			
				<linearGradient id="SVGID_10_" gradientUnits="userSpaceOnUse" x1="3442.2041" y1="1119.2548" x2="3522.8794" y2="1119.2548" gradientTransform="matrix(1 0 0 1 -1463.7382 0)">
				<stop  offset="0" style="stop-color:#FEBBBA"/>
				<stop  offset="1" style="stop-color:#FF928E"/>
			</linearGradient>
			<path class="st15" d="M1978.5,978.2c0,0,48.2,220.1,61.8,263l-32.2,19.1c0,0,16.2-2.6,28.1-3.4c12-0.8,23-13.8,23-13.8l-3.9-5.8
				c0,0-12.1-218.9-9.1-243.7L1978.5,978.2z"/>
			
				<linearGradient id="SVGID_11_" gradientUnits="userSpaceOnUse" x1="3268.4158" y1="547.4704" x2="3426.3516" y2="547.4704" gradientTransform="matrix(1 0 0 1 -1463.7382 0)">
				<stop  offset="0" style="stop-color:#FEBBBA"/>
				<stop  offset="1" style="stop-color:#FF928E"/>
			</linearGradient>
			<path class="st16" d="M1858.9,464.8c0,0-6.6,114.5,103.7,173l-26.6,57.2c0,0-99.9-57.1-96.2-212.8c0.1-4.5-1.6-8.8-4.7-12.2
				l-21.2-23.3c-8.1-8.9-11.1-20.9-8.1-32.2l2.8-10.6c0.9-3.5,5.2-5.2,8.5-3.4l2.2,1.2c7.1,3.9,12.7,9.8,16,16.8l10.4,22
				c3.9,8.2,9.1,11.1,18.6,10.3l15.6-1.8c2-0.2,3.1,2.1,1.6,3.4C1875.6,457.6,1868.2,461.7,1858.9,464.8z"/>
			
				<linearGradient id="SVGID_12_" gradientUnits="userSpaceOnUse" x1="3545.1733" y1="560.6113" x2="3904.9233" y2="585.0742" gradientTransform="matrix(1 0 0 1 -1463.7382 0)">
				<stop  offset="0" style="stop-color:#FEBBBA"/>
				<stop  offset="1" style="stop-color:#FF928E"/>
			</linearGradient>
			<path class="st17" d="M2037.3,518.1c-1.6,0.9-50.8,20.1-40.2,68.4c0.6,2.9,2.6,5.3,5.5,6.5c7.2,3,22.8,8.3,41.4,6.5
				c25.8-2.5,42.7-45,41.9-57.3C2085.1,529.8,2053,508.9,2037.3,518.1z"/>
			<path class="st8" d="M1978.1,971.6l53,249.8c7.3,7.4,17.7,4.9,28.9,0l-13.8-227.8l16.9-5.6l103.5,207.4
				c13.8-2.4,21.9-9.7,26.9-19.9c-8.1-42.6-22.3-77.5-47.4-99.3l-40.8-129.1L1978.1,971.6z"/>
			<linearGradient id="SVGID_13_" gradientUnits="userSpaceOnUse" x1="2023.7504" y1="684.3668" x2="2682.199" y2="-351.5909">
				<stop  offset="0" style="stop-color:#4F52FF"/>
				<stop  offset="1" style="stop-color:#4042E2"/>
			</linearGradient>
			<path class="st18" d="M1958.8,629.2c18.5,4.8,81,20.4,120,19.7l-24,127.8l1.9,20.8l-78.2-0.3c0,0-22-48.3-39.4-72.3
				c-5-7-1.3-15.2,1.6-23.2l-3.9-2.5c-4-2.5-5.7-7.2-4.2-11.5l19-55C1952.7,630,1955.8,628.5,1958.8,629.2z"/>
			<linearGradient id="SVGID_14_" gradientUnits="userSpaceOnUse" x1="2128.8311" y1="750.0394" x2="2782.4165" y2="-278.2668">
				<stop  offset="0" style="stop-color:#4F52FF"/>
				<stop  offset="1" style="stop-color:#4042E2"/>
			</linearGradient>
			<path class="st19" d="M1972.3,786.4l1.5,12.6c0,0-22.1,62.5,11,208.4c0,0,71.8,19.2,130.7-26.7c0,0-16.6-137.7-21.2-144.2
				c-22.6-32-37.7-38.9-37.7-38.9l-0.7-13.8C2056.1,783.8,1993,794.6,1972.3,786.4z"/>
			
				<linearGradient id="SVGID_15_" gradientUnits="userSpaceOnUse" x1="3602.0244" y1="540.3394" x2="3481.9194" y2="780.549" gradientTransform="matrix(1 0 0 1 -1463.7382 0)">
				<stop  offset="0" style="stop-color:#09005D"/>
				<stop  offset="1" style="stop-color:#1A0F91"/>
			</linearGradient>
			<path class="st20" d="M2052.3,499.4c-1.3,0.2-28.4,9.1-15,27.7c13.5,18.6,18.5,29.5,12.1,37.7c-5.8,7.4-18.6,3.2-17.5,18.7
				c0.2,3.1-1.2,6.1-3.9,7.8c-12.1,7.7-41.6,31.6-12.4,65.5c2.4,2.8,2.9,6.6,1,9.7c-8.6,14.5-26.6,57.1,38.6,80.7
				c64.4,23.3,87.7-16.5,94.2-32.3c1.4-3.4,5-5.5,8.9-5.4c7.1,0.3,17.1-0.8,16.6-9.7c-0.3-5.4-3.9-10.3-8.1-14.2
				c-4.2-3.9-3.4-10.6,1.7-13.3c3.8-2.1,7.2-5.3,8.7-10.3c3.9-13.7-3.9-54.5-45.3-61.4c-3.5-0.6-7.1-3.6-7.6-6.9c0,0,0-0.1,0-0.1
				c-0.6-3.2,0.6-6.4,3.3-8.3c6.6-4.6,15.1-13.8,8.2-28.6c-6.1-13.1-17.8-17.6-26.6-19c-5.1-0.8-8.5-5.4-7.4-10.2
				C2104.9,514.1,2102.3,493.2,2052.3,499.4z"/>
		</g>
	</g>
</g>
</svg>
