<?xml version="1.0" encoding="utf-8"?>
<!-- Generator: Adobe Illustrator 23.0.5, SVG Export Plug-In . SVG Version: 6.00 Build 0)  -->
<svg version="1.1" id="Layer_1" xmlns="http://www.w3.org/2000/svg" xmlns:xlink="http://www.w3.org/1999/xlink" x="0px" y="0px"
	 viewBox="0 0 3000 2000" style="enable-background:new 0 0 3000 2000;" xml:space="preserve">
<style type="text/css">
	.st0{display:none;fill:#FFFFFF;}
	.st1{fill:#EDF4FF;}
	.st2{fill:#AFCDFB;}
	.st3{fill:#6488D3;}
	.st4{fill:#7EA6ED;}
	.st5{fill:#FFB07B;}
	.st6{fill:#415DA5;}
	.st7{fill:#EA8E50;}
	.st8{fill:#AA3E39;}
	.st9{fill:#B84C42;}
	.st10{fill:#739CF3;}
	.st11{fill:#2C3A64;}
	.st12{fill:#9FC1F4;}
	.st13{fill:#C5DDF9;}
	.st14{fill:#FFFFFF;}
	.st15{fill:#F1A34F;}
	.st16{fill:#E58435;}
	.st17{fill:#F4AC75;}
	.st18{fill:#ABDDDA;}
	.st19{fill:#91CECF;}
	.st20{fill:#C97C47;}
	.st21{fill:#B64C41;}
	.st22{fill:#D6716B;}
	.st23{fill:#35488B;}
	.st24{fill:#B2CBFD;}
	.st25{fill:#7A97F3;}
	.st26{fill:#88ADE5;}
	.st27{fill:#EE9849;}
	.st28{fill:#163560;}
	.st29{fill:#FFB27D;}
	.st30{fill:#FCA56B;}
	.st31{fill:#466AA5;}
	.st32{fill:#D3A688;}
	.st33{fill:#F9DFCD;}
	.st34{fill:#FFEADC;}
	.st35{fill:#F4D7C3;}
	.st36{fill:#EECCB3;}
	.st37{fill:#2E3552;}
</style>
<rect transform="matrix(-1 -1.224647e-16 1.224647e-16 -1 3000 2000)" class="st0" width="3000" height="2000"/>
<g>
	<path class="st1" d="M2588.3,1709.6c0,0,201.8-415.9-84-727.2C2218.5,671.2,1972.7,843.7,1848,835
		c-124.7-8.6-159.9-306.8-528.8-389c-368.9-82.2-717.6,94.4-680.4,365.6c55.4,404.9-636.4,196.5-281,899.8L2588.3,1709.6z"/>
	<polygon class="st2" points="1199.2,1699.6 418.4,902.4 448.2,872.6 1229,1669.7 	"/>
	<g>
		<g>
			<path class="st3" d="M1143.4,1707.8H1488c39.2,0,74-15.6,93-41.8c18.2-25,18.1-54.8-0.4-79.7l-106.8-140.4h-72.5l123.5,166
				c6.8,9.1,6.8,19.6,0.1,28.8c-7.4,10.2-21.3,16.3-37.1,16.3h-284.3C1170.4,1656.9,1143.4,1679.7,1143.4,1707.8L1143.4,1707.8z"/>
		</g>
		<path class="st4" d="M1241.5,1596.5h214.7c6.7,0,12.3,5.5,12.3,12.3v35.9c0,6.7-5.5,12.3-12.3,12.3h-214.7
			c-6.7,0-12.3-5.5-12.3-12.3v-35.9C1229.3,1602,1234.8,1596.5,1241.5,1596.5z"/>
		<path class="st2" d="M1412.5,1345.5l282.1-352.2c8.2-11.4,16-21.2,23.5-29.4c22.9-25.1,56.8-37.1,90.4-32.1l0,0
			c41.9,8,57.1,54.9,49,96.8l-263.4,351.8c-5.2,27.3-24.4,48.5-48.7,57.8c-2.6,1-5.3,1.9-8,2.6c-10.8,2.8-22.4,3.4-34,1.1l-29.4-5.6
			C1432.1,1428.2,1404.4,1387.4,1412.5,1345.5z"/>
		<path class="st5" d="M1014.8,1285.1l21.9,28.8c0,0,142.8-1.5,187.4-21.7c14.5-6.6,146.9,4.4,184.3-10c8-3.1,14.6-7.2,19.6-12.8
			c28.3-32.6,12.7-69.2,12.7-69.2s-56.9-5.9-111.8-1.7c-39.1,3-98.1,13.4-122.3,27.8C1168.6,1249,1014.8,1285.1,1014.8,1285.1z"/>
		<path class="st6" d="M982.3,1235.3c2.3,0.2,4.4,1.5,5.7,3.6c3.4,5.2,8.4,15.9,20.1,23.4c6.5,4.2,26.3,22.1,26.3,22.1l0.1,0.1
			c0.2,0.5,0.3,3-3.8,15.6c-2.1,6.5,10.2,12.2,10.2,12.2s-0.7,2.1-2.5,4.1c-1.4,1.6-3.7,3.1-6.9,3.6c-4.5,0.6-11.6,5.9-16.2,9.7
			c-2.8,2.3-4.8,4.2-4.8,4.2s-2.5,1.5-7.3-8.9l-4.2-12.6c-0.8-4.4-0.8-7.9-1.8-12.4c-1.5-6.8-4.8-9-5.6-9.5
			c-0.1-0.1-0.2-0.1-0.2-0.1l-18-53.5C974.6,1235,979,1235,982.3,1235.3z"/>
		<path class="st5" d="M1595.9,945.4c0,0-10.9,16.7-20.1,35.4c-3.9,8-7.5,16.4-9.8,24l57.7,34.2c0,0-0.6-33.1,10.6-52.6
			c0.7-1.2,1.4-2.3,2.1-3.3c2.3-3.2,5-5.9,8.2-7.7l-5.3-8.1l-21.6-10.8L1595.9,945.4z"/>
		<path class="st7" d="M1595.9,945.4c0,0-10.9,16.7-20.1,35.4c21.9,11.2,48.8,7.4,58.5,5.5c0.7-1.2,1.4-2.3,2.1-3.3l-8.6-13.2
			l-10.1-13.5L1595.9,945.4z"/>
		<path class="st5" d="M1571.8,959.4c0,0,50.3,50.7,81.3,18.9c31.1-31.8,58.5-46.7,27.7-80.4c-30.8-33.7-49-27.7-61.9-19.6
			C1606,886.3,1559.5,945.4,1571.8,959.4z"/>
		<path class="st8" d="M1327.6,1202.6c-0.2,3.3,0.1,30.7,17.7,42.7c11.4,7.9,39.2,27,65.9,36.9c7.8-3.5,14.3-7.9,18.9-13.8
			c26.6-34,9.2-69.8,9.2-69.8S1382.2,1195.6,1327.6,1202.6z"/>
		<path class="st9" d="M1514.7,1185.2c0,0-63.3,16.9-109.3-1.9c0,0-39.6,11.1-86.2,15.9c0,0,16.5,75.4,27.1,88.1
			c3.4,4.1,60.9,4.2,98.8,4.8c22.7,0.4,44.4-9.3,59.1-26.5c6.1-7.1,12.6-15.5,18.9-25.1C1546.7,1205,1514.7,1185.2,1514.7,1185.2z"
			/>
		<path class="st10" d="M1430.5,1135.6l18.2-25.9l17.1-22c26-33.4,58.5-61.3,95.4-82.2l6.4-3.6c0,0,42.8,6.5,59,11.1
			c0,0,7.6,44.6-0.3,67.4c-4.7,13.3-35,81.9-95.6,152.5c0,0-52,18.6-96.3-22.4c-6.8-6.1-28.9-16.5-33.6-30.6
			C1399.2,1175.2,1427,1139.2,1430.5,1135.6z"/>
		<path class="st9" d="M1704.1,1015.1l56.5-67.7c8.6-10.3,6.8-25.7-4-33.8l-1.6-1.2c-10.1-7.6-24.5-5.7-32.3,4.2l-54.9,68.8
			c-8,10-6.5,24.5,3.4,32.7h0C1681.1,1026.4,1695.9,1025.1,1704.1,1015.1z"/>
		<path class="st11" d="M1722.9,918.5c0,0-3-1.4-6.6-0.7c0,0,0-0.1,0-0.1c5.5-7.8,3.6-21,3.6-21c0.3,7.2-7.1,14.7-7.1,14.7
			c2.7-26.2-59.9-50-65.7-52.4c-5.8-2.4-3.8-12.2-3.8-12.2c-12.6,1-27.6,15.2-29,30.6c-1.5,15.4,4.2,57.9,11.1,53.3
			c14.8-10,16.7,13.3,2.4,19.7c-9.8,4.4-2.9,24.8,6.1,34.7c7.3,8,12.2,2.6,17.3,0.6c1.3-0.5,2.6-0.8,3.9-1
			c19.3-2,41.2-18.2,53.7-40.8c5-9,6.7-18.4,7.2-23.1C1717.7,920.1,1721,918.7,1722.9,918.5z"/>
		<path class="st3" d="M1589.3,1051.6c0,0,26.4,41.4,1.7,97.9c0,0-32.5,51.5-60.3,83.4c0,0-50.4,24.8-108.1-28.6l60.3-25.7
			L1589.3,1051.6z"/>
		<path class="st5" d="M1332.8,1195.6c1.9-2.3,9.2-10.6,32.8-10.9l0,0c25.8-2.2,101-9.5,107.6-19.1c4.5-6.5,66.2-130.5,71.6-131.3
			c17.8-2.6,48.6,29.4,44,45.1c0,0-63.6,129.5-77.6,132c-22.7,4-103.9,1.1-134.1-5.4c-3.7,2-17.8,9.6-21.2,11.1
			c-3.9,1.7-19.1,1.7-25.2-2.7C1324.6,1210.1,1328.6,1200.6,1332.8,1195.6z"/>
		<path class="st10" d="M1510,1091.1c10.6,19.7,31.1,35.9,58.3,41.2c5.4-6.4,20.5-52.9,20.5-52.9c4.6-15.7,6.1-69.4-42.5-50
			C1516,1041.6,1513.9,1080.6,1510,1091.1z"/>
		<path class="st12" d="M923,1559.9l268.9-116.8l-59.8-137.5l-268.9,116.8c-33.4,14.5-48.7,53.3-34.2,86.7l7.2,16.6
			C850.8,1559.1,889.6,1574.4,923,1559.9z"/>
		<path class="st4" d="M1091.4,1421.4v-98.2l40.7-17.7l59.8,137.5l-54.9,23.8l0,0C1111.8,1466.9,1091.4,1446.6,1091.4,1421.4z"/>
		<path class="st12" d="M1165.9,1289.9h318.5L1740.8,984c20.2-26.4,32.5-38.3,48.3-47.7c6.7-4,14.6-5.3,22.3-3.9l0,0
			c0.9,0.2,1.7,0.3,2.6,0.5c51.1,11.7,38.3,67.1,39.7,114.7l-259.7,332.8c-2.7,14-9,26.4-17.9,36.4c-9.2,17.4-27.4,29.1-47.9,29.1
			h-362.5c-6.5,0-12.7-1.2-18.5-3.3c-7.4-2.7-14.1-7.1-19.6-12.6c-9.8-9.8-15.9-23.3-15.9-38.2l0,0v-31.6V1344
			C1111.8,1314.3,1136.1,1289.9,1165.9,1289.9z"/>
		<path class="st3" d="M1113.4,1374.8h479.2c3.3,0,18.8,0.3,18.8-6l0,0c0-3.3-2.7-6-6-6h-492.1c-3.3,0-6,2.7-6,6l0,0
			C1107.4,1372.1,1110.1,1374.8,1113.4,1374.8z"/>
	</g>
	
		<rect x="308.9" y="604.6" transform="matrix(-0.7071 0.7071 -0.7071 -0.7071 1675.8677 557.3461)" class="st2" width="827.2" height="42.2"/>
	
		<rect x="977" y="414.4" transform="matrix(-0.7071 -0.7071 0.7071 -0.7071 1545.386 1511.1434)" class="st2" width="217.4" height="42.2"/>
	<g>
		<path class="st3" d="M1148,497.9c-47.2,47.2-61.6,109.5-32.1,139c29.5,29.5,91.7,15.1,139-32.1c47.2-47.2,61.6-109.5,32.1-139
			C1257.5,436.2,1195.2,450.6,1148,497.9z"/>
		
			<ellipse transform="matrix(0.7071 -0.7071 0.7071 0.7071 -63.3246 1072.3297)" class="st12" cx="1262.8" cy="612.6" rx="214.6" ry="134"/>
		<path class="st10" d="M1099.5,618.5c-15.6,50.4-10.5,97.3,18.5,126.4c52.3,52.3,162.7,26.8,246.5-57
			c31.3-31.3,54.5-66.3,68.5-100.6c-12.5,40.3-38.2,82.8-75.5,120.1c-83.8,83.8-194.1,109.3-246.5,57
			C1078.3,731.5,1076,676,1099.5,618.5z"/>
		
			<ellipse transform="matrix(0.7071 -0.7071 0.7071 0.7071 -69.6219 1087.5323)" class="st13" cx="1278" cy="627.8" rx="167.3" ry="104.5"/>
		<path class="st14" d="M1268.5,612.6c-17.6,17.6-22.9,40.7-11.9,51.7c11,11,34.1,5.6,51.7-11.9c17.6-17.6,22.9-40.7,11.9-51.7
			C1309.2,589.7,1286,595.1,1268.5,612.6z"/>
		
			<ellipse transform="matrix(0.7071 -0.7071 0.7071 0.7071 -46.5631 1045.8557)" class="st14" cx="1239.2" cy="579.1" rx="45" ry="28.1"/>
		<path class="st14" d="M1345.5,535.6c-17.6,17.6-22.9,40.7-11.9,51.7c11,11,34.1,5.6,51.7-11.9c17.6-17.6,22.9-40.7,11.9-51.7
			C1386.2,512.7,1363.1,518,1345.5,535.6z"/>
		<path class="st14" d="M1194.2,686.9c-17.6,17.6-22.9,40.7-11.9,51.7s34.1,5.6,51.7-11.9c17.6-17.6,22.9-40.7,11.9-51.7
			C1234.9,664,1211.8,669.3,1194.2,686.9z"/>
		<path class="st14" d="M1317.2,661.4c-13.5,13.5-17.6,31.3-9.2,39.7c8.4,8.4,26.2,4.3,39.7-9.2c13.5-13.5,17.6-31.3,9.2-39.7
			C1348.5,643.8,1330.7,647.9,1317.2,661.4z"/>
	</g>
	<circle class="st3" cx="1004.1" cy="353.9" r="51.5"/>
	<path class="st2" d="M982.7,353.9c0,11.8,9.6,21.3,21.3,21.3c11.8,0,21.3-9.6,21.3-21.3c0-11.8-9.6-21.3-21.3-21.3
		C992.3,332.6,982.7,342.1,982.7,353.9z"/>
	<circle class="st3" cx="450.4" cy="897.8" r="51.5"/>
	<path class="st2" d="M429.1,897.8c0,11.8,9.6,21.3,21.3,21.3s21.3-9.6,21.3-21.3c0-11.8-9.6-21.3-21.3-21.3S429.1,886,429.1,897.8z
		"/>
	<g>
		<g>
			<path class="st11" d="M513.6,1609.6c0,0-21.3,19.7-17.1,33.7c4.1,14,23.3,23.3,25.9,40.5c2.6,17.1,13,26.5,22.3,26.5
				c9.3,0,44.5,0,44.5,0s6.9-12-9.7-15.7c-16.6-3.6-22.9-23.7-21.8-42.4c1-18.7-1.6-43.6-1.6-43.6l-35.3-8.3L513.6,1609.6z"/>
			<path class="st11" d="M778.7,1709.5c0.3,0.2,0.8,0.3,1.4,0.5h119.1c-1-4.2-4.9-12.2-18.8-14.5c-18.6-3-50.8-13.8-58-37.6
				c-0.2-0.8-0.4-1.6-0.6-2.3c-5.7-25.4-47.2,7.8-47.2,7.8s-0.1,1-0.3,2.7C773.3,1675.4,770.8,1705.5,778.7,1709.5z"/>
			<path class="st15" d="M875.4,1029.6c0,0-6.3,78.6-13.7,173.2c-10.1,128.4-22.2,286.1-23.4,316c-2.1,51.9-10.4,134.9-10.4,134.9
				s-19.7,19.7-59.1,11.4c0,0-35.1-118.5-45.2-243.8c-0.2-2.1-0.3-4.1-0.5-6.2c-9.3-127.6-23.9-396.3-23.9-396.3L875.4,1029.6z"/>
			<path class="st16" d="M875.4,1029.6c0,0-6.3,78.6-13.7,173.2l-138.1,218.5c-0.2-2.1-0.3-4.1-0.5-6.2
				c-9.3-127.6-23.9-396.3-23.9-396.3L875.4,1029.6z"/>
			<path class="st15" d="M846.7,1039c0,0-113.6,284.8-188.3,418.6c-74.7,133.8-98,171.2-98,171.2s-42.8-17.1-46.7-28.8
				c0,0,28.6-258.4,78.6-321.3c28.3-35.6,61.5-142.4,63-179.7c1.6-37.3,10.1-111.3,10.1-111.3L846.7,1039z"/>
		</g>
		<g>
			<path class="st17" d="M811.9,511.7C769.5,525,696.3,489,696.3,489s33-24.8,36.7-76.2c0.1-0.7,0.1-1.4,0.1-2.1
				c0.2-3.8,0.3-7.8,0.1-11.9l11.6,9.3l43.4,35c0,0-2.2,17.2-3.1,46c6.9,3.8,12.4,7.9,16.5,11.6
				C808.5,506.8,811.9,511.7,811.9,511.7z"/>
			<path class="st17" d="M649.3,483.5c0,0,111.9-17.6,185.6,31.1c0,0,50.1,327.4,6.5,358.3c-43.6,31-192.1,0-192.1,0V483.5z"/>
			<path class="st18" d="M798.6,1225.1H596.4c0,0,23.5-345,30.2-428.9c5.5-68.1,17-231.4,21.1-290.7c1-13.8,1.5-22,1.5-22l48.3-8.2
				l82.9,107.4c0,0,13.1,286.5,12.6,331.7c-0.5,45.2,5.2,221.1,5.5,250.7C798.9,1194.7,798.6,1225.1,798.6,1225.1z"/>
			<path class="st18" d="M780.5,582.7l18.1,642.4h95.3c0,0-4.4-422.5-4.7-461.3c-0.3-38.8,10.4-206-19.4-232
				c-24.8-21.7-84.6-42.8-84.6-42.8L780.5,582.7z"/>
			<path class="st19" d="M785.7,474.2c0,0,27.2,18.7,26.1,25.4c-1,6.7-4.7,17.3-4.7,17.3l-16.6-3.4l14,9.9c0,0-15.9,46.4-24,59.3
				L785.7,474.2z"/>
			<path class="st19" d="M636.4,665.6c11.9-73.1,149.3,34.9,137.8,130.7c-21.1,177.3-111.1,375-177.8,428.8L636.4,665.6z"/>
			<path class="st20" d="M733,412.8c-0.2-1.3-0.6-2-0.6-2l0.7-0.2l11.7-2.5l43.4,35c0,0-1.9,16.3-3.2,46
				C784.9,489,740.3,464.3,733,412.8z"/>
			<path class="st17" d="M805.9,453.7c0,0-75.5-2.1-73.5-49.1c2-47-6.3-78.9,42-79.6c48.3-0.6,56.9,17.7,60,33.6
				C837.5,374.4,825.6,453,805.9,453.7z"/>
			<path class="st11" d="M732.4,410.8c0,0,9.8,2.6,17.6-7.8c7.8-10.4,20.8-50.4,37.9-52.9c17.1-2.6,39.7,10.1,47,2.9
				c10.6-10.6,24.3-27.9,24.3-27.9s-85-60.6-118.9-32.5C706.4,320.5,694.5,361.5,732.4,410.8z"/>
			<g>
				<path class="st11" d="M834.4,578.7c-1.6-29.1-17.5-76.5-17.6-77l4.5,2c0.6,1.9,13.2,45.2,14.8,74.9L834.4,578.7z"/>
			</g>
			<g>
				<path class="st11" d="M724.4,665.6c-1.6-1.7-40.5-39-32.2-65.2c3.2-10.2,9.2-14.2,15.5-17.2c5.9-2.1,19.6-4.4,26.7,0.1
					c12.9,8.1,19.5,30.7,21.4,68.1l-1.6,0.1c-2.3-44.4-13.7-60.5-22.3-64.1c-10.8-4.6-29.6-2.7-35.6,14.5
					c-4.1,11.9,3.9,28.4,11.4,39.8c8.3,12.6,17.3,23.8,17.4,23.9H724.4z"/>
			</g>
			<path class="st21" d="M728.4,669.6L728.4,669.6c-1.5,1.5-3.9,1.5-5.4,0l-2.7-2.7c-1.5-1.5-1.5-3.9,0-5.4l0,0
				c1.5-1.5,3.9-1.5,5.4,0l2.7,2.7C729.9,665.7,729.9,668.1,728.4,669.6z"/>
			<path class="st21" d="M755.2,658.5L755.2,658.5c-2.1,0-3.8-1.7-3.8-3.8v-3.8c0-2.1,1.7-3.8,3.8-3.8l0,0c2.1,0,3.8,1.7,3.8,3.8
				v3.8C759,656.8,757.3,658.5,755.2,658.5z"/>
			<path class="st11" d="M824.5,578.7c0-5.7,4.6-10.4,10.4-10.4c5.7,0,10.4,4.6,10.4,10.4c0,5.7-4.6,10.4-10.4,10.4
				C829.2,589,824.5,584.4,824.5,578.7z"/>
			<path class="st22" d="M830,578.7c0-2.9,2.4-5.3,5.3-5.3c2.9,0,5.3,2.4,5.3,5.3c0,2.9-2.4,5.3-5.3,5.3
				C832.4,583.9,830,581.6,830,578.7z"/>
			<g>
				<path class="st19" d="M787.8,1225.1c-0.1-0.6-6.6-65.4-4.7-121.6c0.8-23.8,0.1-51.7-0.5-78.7c-0.9-38.5-3-75.7,0.1-99.9
					c5.3-41.4,4.3-229.7,2.1-250.1c-2.1-19.9-0.1-41.7,1.9-48.3c2-6.7-6.6-43.4-6.7-43.8l1-0.3c0.4,1.5,9.7,37.7,7.6,44.7
					c-2,6.5-4.9,27.8-2.8,47.5c2.2,20.4,6.4,208.6,1,250.1c-3.1,24.1-4.2,61.4-3.2,99.9c0.7,27,1.3,55,0.5,78.8
					c-1.9,56.2,7.7,120.9,7.7,121.6H787.8z"/>
			</g>
			<path class="st18" d="M955.3,708.4c0,0,25.6,44-1.2,55.6c-26.8,11.6-29.7-0.6-29.7-0.6L955.3,708.4z"/>
			<path class="st18" d="M740.9,735.5c0,0,4.1,8.3,3.6,15.7c-0.5,7.8-4.1,19.6-4.1,19.6s-157.9,33.6-188.6,5.5
				c-33-30.2,28.2-256.8,54.3-279c11.3-9.6,35-15.4,57-18.9c12.1-1.9,23.6-3.1,32.2-3.9c8.8-0.8,14.6-1,14.6-1l-3.6,13.2l-13.8,51.2
				l-16.1,59.7c0,0-48.3,99.4-49.8,108.7C625,715.6,740.9,735.5,740.9,735.5z"/>
			<path class="st19" d="M780.5,582.7l-62.7-119.6c0,0-23.4,4.7-31.3,12.1c0,0,4,36,7.1,43.9c0,0,12.1-1.4,13.8-0.3
				c0,0-5.9,9-7.6,10C699.8,528.8,754.4,554.2,780.5,582.7z"/>
			<g>
				<path class="st11" d="M707.9,587.3c-4.3-9.5-42.1-90.1-32.4-110.7l3.7-0.5c-7.3,15.6,18.9,85.7,30.3,110.8L707.9,587.3z"/>
			</g>
			<path class="st19" d="M791.1,657.1c0-2.8,2.3-5,5-5c2.8,0,5,2.3,5,5c0,2.8-2.3,5-5,5C793.4,662.2,791.1,659.9,791.1,657.1z"/>
			<path class="st19" d="M791.1,939.2c0-2.8,2.3-5,5-5c2.8,0,5,2.3,5,5c0,2.8-2.3,5-5,5C793.4,944.3,791.1,942,791.1,939.2z"/>
			<path class="st19" d="M793.7,810.3c0-2.8,2.3-5,5-5c2.8,0,5,2.3,5,5c0,2.8-2.3,5-5,5C795.9,815.4,793.7,813.1,793.7,810.3z"/>
			<path class="st19" d="M793.7,1061.8c0-2.8,2.3-5,5-5c2.8,0,5,2.3,5,5s-2.3,5-5,5C795.9,1066.8,793.7,1064.6,793.7,1061.8z"/>
			<path class="st16" d="M738,501.7c0,0,18.1,8.6,46.3,3.3l-3.8,77.7L738,501.7z"/>
			<g>
				<polygon class="st23" points="848.2,593.7 1011.6,608.3 911.9,785.3 758.2,776.5 				"/>
				<path class="st24" d="M863.3,592.9c0,0,0.1-25,13.9-23.3c13.8,1.7,18,26.9,18,26.9L863.3,592.9z"/>
				<polygon class="st25" points="1010.5,606.1 847.2,591.4 757.1,774.3 758.2,776.6 848.3,593.7 1011.6,608.3 				"/>
				<path class="st14" d="M877.2,569.6c0,0,23.1,11.3,14.9,47.6c-8.2,36.3-18.3,56.2-12.4,77.7l110,10.1c0,0-12-28.5,1.3-57.4
					c13.3-28.9,3.8-61.9-8.3-64.8L877.2,569.6z"/>
			</g>
			<path class="st17" d="M932.1,752.4c0,0-16.7-20.1-13.3-34.6c3.5-14.5,15.9-17.9,23.5-12.8c7.6,5.1,18.7,16.9,16.6,25.9
				C956.9,739.9,940.6,756.6,932.1,752.4z"/>
			<path class="st17" d="M732.6,740.4c0,0,28.3-12.5,41.3-8.8c13,3.6,30.5,6.2,31.9,10.9c1.4,4.7-9.3,22-25.3,22.8
				c-15.9,0.9-44,8.3-50.7,0C723,757,732.6,740.4,732.6,740.4z"/>
		</g>
	</g>
	<g>
		<g>
			<g>
				<path class="st26" d="M2183,1686.2c0-14.3-11.6-26-26-26c-14.3,0-26,11.6-26,26s11.6,26,26,26
					C2171.3,1712.2,2183,1700.6,2183,1686.2z"/>
				<path class="st3" d="M2175,1686.2c0-10-8.1-18-18-18c-10,0-18,8.1-18,18c0,10,8.1,18,18,18C2167,1704.3,2175,1696.2,2175,1686.2
					z"/>
			</g>
			<g>
				<path class="st26" d="M1853.3,1686.2c0-14.3-11.6-26-26-26s-26,11.6-26,26s11.6,26,26,26S1853.3,1700.6,1853.3,1686.2z"/>
				
					<ellipse transform="matrix(1.315417e-02 -0.9999 0.9999 1.315417e-02 117.1457 3491.1873)" class="st3" cx="1827.3" cy="1686.2" rx="18" ry="18"/>
			</g>
			<g>
				<path class="st12" d="M2045.6,1058.8h29.6c-1.2,0-2.2-1-2.2-2.2c0-1.2,1-2.2,2.2-2.2h21.4c1.2,0,2.2,1,2.2,2.2
					c0,1.2-1,2.2-2.2,2.2h-0.1c7.6,0,13.9,6.2,13.9,13.9v73.9c0,7.6-6.2,13.9-13.9,13.9h-50.8c-7.6,0-13.9-6.2-13.9-13.9v-73.9
					C2031.8,1065,2038,1058.8,2045.6,1058.8z"/>
				<path class="st3" d="M1978.2,1042.1h18.5c-1.1,0-2-0.9-2-2v-1.2c0-1.1,0.9-2,2-2h14.2c1.1,0,2,0.9,2,2v1.2c0,1.1-0.9,2-2,2h-2.5
					c7,0,12.7,5.7,12.7,12.7v95.2c0,7-5.7,12.7-12.7,12.7h-30.1c-7,0-12.7-5.7-12.7-12.7v-95.2
					C1965.5,1047.8,1971.2,1042.1,1978.2,1042.1z"/>
			</g>
			<g>
				<g>
					<polygon class="st12" points="1926.9,1095.8 1948.8,1095.8 1952.8,1062 1924.5,1062 					"/>
					<path class="st2" d="M1924.3,1060.5h28.4c0.3,0,0.5,0.2,0.5,0.5v0.5c0,0.3-0.2,0.5-0.5,0.5h-28.4c-0.3,0-0.5-0.2-0.5-0.5v-0.5
						C1923.8,1060.7,1924,1060.5,1924.3,1060.5z"/>
				</g>
				<g>
					<polygon class="st12" points="1926.9,1100.4 1948.8,1100.4 1952.8,1066.6 1924.5,1066.6 					"/>
					<path class="st2" d="M1924.3,1065.1h28.4c0.3,0,0.5,0.2,0.5,0.5v0.5c0,0.3-0.2,0.5-0.5,0.5h-28.4c-0.3,0-0.5-0.2-0.5-0.5v-0.5
						C1923.8,1065.3,1924,1065.1,1924.3,1065.1z"/>
				</g>
				<g>
					<polygon class="st12" points="1926.9,1105.4 1948.8,1105.4 1952.8,1071.6 1924.5,1071.6 					"/>
					<path class="st2" d="M1924.3,1070.1h28.4c0.3,0,0.5,0.2,0.5,0.5v0.5c0,0.3-0.2,0.5-0.5,0.5h-28.4c-0.3,0-0.5-0.2-0.5-0.5v-0.5
						C1923.8,1070.3,1924,1070.1,1924.3,1070.1z"/>
				</g>
				<g>
					<polygon class="st12" points="1926.9,1111.9 1948.8,1111.9 1952.8,1078.1 1924.5,1078.1 					"/>
					<path class="st2" d="M1924.3,1076.7h28.4c0.3,0,0.5,0.2,0.5,0.5v0.5c0,0.3-0.2,0.5-0.5,0.5h-28.4c-0.3,0-0.5-0.2-0.5-0.5v-0.5
						C1923.8,1076.9,1924,1076.7,1924.3,1076.7z"/>
				</g>
				<g>
					<polygon class="st12" points="1926.9,1116.7 1948.8,1116.7 1952.8,1083 1924.5,1083 					"/>
					<path class="st2" d="M1924.3,1081.5h28.4c0.3,0,0.5,0.2,0.5,0.5v0.5c0,0.3-0.2,0.5-0.5,0.5h-28.4c-0.3,0-0.5-0.2-0.5-0.5v-0.5
						C1923.8,1081.7,1924,1081.5,1924.3,1081.5z"/>
				</g>
			</g>
			<g>
				<g>
					<path class="st21" d="M2181.1,933.7h1.6c0,0,0,0,0,0c0-1.7,1.4-3,3-3h2.7c1.7,0,3,1.4,3,3c0,0,0,0,0,0h1.6c3.6,0,6.6,3,6.6,6.6
						v58.3c0,3.6-3,6.6-6.6,6.6h-11.9c-3.6,0-6.6-3-6.6-6.6v-58.3C2174.6,936.6,2177.5,933.7,2181.1,933.7z"/>
					<path class="st21" d="M2150.5,933.7h1.6c0,0,0,0,0,0c0-1.7,1.4-3,3-3h2.7c1.7,0,3,1.4,3,3c0,0,0,0,0,0h1.6c3.6,0,6.6,3,6.6,6.6
						v58.3c0,3.6-3,6.6-6.6,6.6h-11.9c-3.6,0-6.6-3-6.6-6.6v-58.3C2144,936.6,2146.9,933.7,2150.5,933.7z"/>
					<path class="st21" d="M2117.1,933.7h1.6c0,0,0,0,0,0c0-1.7,1.4-3,3-3h2.7c1.7,0,3,1.4,3,3c0,0,0,0,0,0h1.6c3.6,0,6.6,3,6.6,6.6
						v58.3c0,3.6-3,6.6-6.6,6.6h-11.9c-3.6,0-6.6-3-6.6-6.6v-58.3C2110.5,936.6,2113.5,933.7,2117.1,933.7z"/>
					<path class="st27" d="M2048.8,894.3h18.5c-1.1,0-2-0.9-2-2v-1.2c0-1.1,0.9-2,2-2h14.2c1.1,0,2,0.9,2,2v1.2c0,1.1-0.9,2-2,2
						h-2.5c7,0,12.7,5.7,12.7,12.7v95.2c0,7-5.7,12.7-12.7,12.7h-30.1c-7,0-12.7-5.7-12.7-12.7V907
						C2036.2,900,2041.9,894.3,2048.8,894.3z"/>
				</g>
				<g>
					<g>
						<polygon class="st12" points="1926.9,947.9 1948.8,947.9 1952.8,914.1 1924.5,914.1 						"/>
						<path class="st2" d="M1924.3,912.7h28.4c0.3,0,0.5,0.2,0.5,0.5v0.5c0,0.3-0.2,0.5-0.5,0.5h-28.4c-0.3,0-0.5-0.2-0.5-0.5v-0.5
							C1923.8,912.9,1924,912.7,1924.3,912.7z"/>
					</g>
					<g>
						<polygon class="st12" points="1926.9,952.5 1948.8,952.5 1952.8,918.7 1924.5,918.7 						"/>
						<path class="st2" d="M1924.3,917.3h28.4c0.3,0,0.5,0.2,0.5,0.5v0.5c0,0.3-0.2,0.5-0.5,0.5h-28.4c-0.3,0-0.5-0.2-0.5-0.5v-0.5
							C1923.8,917.5,1924,917.3,1924.3,917.3z"/>
					</g>
					<g>
						<polygon class="st12" points="1926.9,957.5 1948.8,957.5 1952.8,923.7 1924.5,923.7 						"/>
						<path class="st2" d="M1924.3,922.3h28.4c0.3,0,0.5,0.2,0.5,0.5v0.5c0,0.3-0.2,0.5-0.5,0.5h-28.4c-0.3,0-0.5-0.2-0.5-0.5v-0.5
							C1923.8,922.5,1924,922.3,1924.3,922.3z"/>
					</g>
					<g>
						<polygon class="st12" points="1926.9,964.1 1948.8,964.1 1952.8,930.3 1924.5,930.3 						"/>
						<path class="st2" d="M1924.3,928.8h28.4c0.3,0,0.5,0.2,0.5,0.5v0.5c0,0.3-0.2,0.5-0.5,0.5h-28.4c-0.3,0-0.5-0.2-0.5-0.5v-0.5
							C1923.8,929,1924,928.8,1924.3,928.8z"/>
					</g>
					<g>
						<polygon class="st12" points="1926.9,968.9 1948.8,968.9 1952.8,935.1 1924.5,935.1 						"/>
						<path class="st2" d="M1924.3,933.7h28.4c0.3,0,0.5,0.2,0.5,0.5v0.5c0,0.3-0.2,0.5-0.5,0.5h-28.4c-0.3,0-0.5-0.2-0.5-0.5v-0.5
							C1923.8,933.9,1924,933.7,1924.3,933.7z"/>
					</g>
				</g>
				<g>
					<g>
						<polygon class="st12" points="1967,947.9 1988.9,947.9 1992.9,914.1 1964.5,914.1 						"/>
						<path class="st2" d="M1964.3,912.7h28.4c0.3,0,0.5,0.2,0.5,0.5v0.5c0,0.3-0.2,0.5-0.5,0.5h-28.4c-0.3,0-0.5-0.2-0.5-0.5v-0.5
							C1963.9,912.9,1964.1,912.7,1964.3,912.7z"/>
					</g>
					<g>
						<polygon class="st12" points="1967,952.5 1988.9,952.5 1992.9,918.7 1964.5,918.7 						"/>
						<path class="st2" d="M1964.3,917.3h28.4c0.3,0,0.5,0.2,0.5,0.5v0.5c0,0.3-0.2,0.5-0.5,0.5h-28.4c-0.3,0-0.5-0.2-0.5-0.5v-0.5
							C1963.9,917.5,1964.1,917.3,1964.3,917.3z"/>
					</g>
					<g>
						<polygon class="st12" points="1967,957.5 1988.9,957.5 1992.9,923.7 1964.5,923.7 						"/>
						<path class="st2" d="M1964.3,922.3h28.4c0.3,0,0.5,0.2,0.5,0.5v0.5c0,0.3-0.2,0.5-0.5,0.5h-28.4c-0.3,0-0.5-0.2-0.5-0.5v-0.5
							C1963.9,922.5,1964.1,922.3,1964.3,922.3z"/>
					</g>
					<g>
						<polygon class="st12" points="1967,964.1 1988.9,964.1 1992.9,930.3 1964.5,930.3 						"/>
						<path class="st2" d="M1964.3,928.8h28.4c0.3,0,0.5,0.2,0.5,0.5v0.5c0,0.3-0.2,0.5-0.5,0.5h-28.4c-0.3,0-0.5-0.2-0.5-0.5v-0.5
							C1963.9,929,1964.1,928.8,1964.3,928.8z"/>
					</g>
					<g>
						<polygon class="st12" points="1992.9,935.1 1988.9,968.9 1967,968.9 1964.5,935.1 						"/>
						<path class="st2" d="M1964.3,933.7h28.4c0.3,0,0.5,0.2,0.5,0.5v0.5c0,0.3-0.2,0.5-0.5,0.5h-28.4c-0.3,0-0.5-0.2-0.5-0.5v-0.5
							C1963.9,933.9,1964.1,933.7,1964.3,933.7z"/>
					</g>
				</g>
				<g>
					<g>
						<polygon class="st12" points="1885.6,947.9 1907.5,947.9 1911.5,914.1 1883.2,914.1 						"/>
						<path class="st2" d="M1883,912.7h28.4c0.3,0,0.5,0.2,0.5,0.5v0.5c0,0.3-0.2,0.5-0.5,0.5H1883c-0.3,0-0.5-0.2-0.5-0.5v-0.5
							C1882.5,912.9,1882.7,912.7,1883,912.7z"/>
					</g>
					<g>
						<polygon class="st12" points="1885.6,952.5 1907.5,952.5 1911.5,918.7 1883.2,918.7 						"/>
						<path class="st2" d="M1883,917.3h28.4c0.3,0,0.5,0.2,0.5,0.5v0.5c0,0.3-0.2,0.5-0.5,0.5H1883c-0.3,0-0.5-0.2-0.5-0.5v-0.5
							C1882.5,917.5,1882.7,917.3,1883,917.3z"/>
					</g>
					<g>
						<polygon class="st12" points="1885.6,957.5 1907.5,957.5 1911.5,923.7 1883.2,923.7 						"/>
						<path class="st2" d="M1883,922.3h28.4c0.3,0,0.5,0.2,0.5,0.5v0.5c0,0.3-0.2,0.5-0.5,0.5H1883c-0.3,0-0.5-0.2-0.5-0.5v-0.5
							C1882.5,922.5,1882.7,922.3,1883,922.3z"/>
					</g>
					<g>
						<polygon class="st12" points="1885.6,964.1 1907.5,964.1 1911.5,930.3 1883.2,930.3 						"/>
						<path class="st2" d="M1883,928.8h28.4c0.3,0,0.5,0.2,0.5,0.5v0.5c0,0.3-0.2,0.5-0.5,0.5H1883c-0.3,0-0.5-0.2-0.5-0.5v-0.5
							C1882.5,929,1882.7,928.8,1883,928.8z"/>
					</g>
					<g>
						<polygon class="st12" points="1885.6,968.9 1907.5,968.9 1911.5,935.1 1883.2,935.1 						"/>
						<path class="st2" d="M1883,933.7h28.4c0.3,0,0.5,0.2,0.5,0.5v0.5c0,0.3-0.2,0.5-0.5,0.5H1883c-0.3,0-0.5-0.2-0.5-0.5v-0.5
							C1882.5,933.9,1882.7,933.7,1883,933.7z"/>
					</g>
				</g>
			</g>
			<g>
				<g>
					<polygon class="st12" points="1891.1,1095.8 1913,1095.8 1917,1062 1888.7,1062 					"/>
					<path class="st2" d="M1888.5,1060.5h28.4c0.3,0,0.5,0.2,0.5,0.5v0.5c0,0.3-0.2,0.5-0.5,0.5h-28.4c-0.3,0-0.5-0.2-0.5-0.5v-0.5
						C1888,1060.7,1888.2,1060.5,1888.5,1060.5z"/>
				</g>
				<g>
					<polygon class="st12" points="1891.1,1100.4 1913,1100.4 1917,1066.6 1888.7,1066.6 					"/>
					<path class="st2" d="M1888.5,1065.1h28.4c0.3,0,0.5,0.2,0.5,0.5v0.5c0,0.3-0.2,0.5-0.5,0.5h-28.4c-0.3,0-0.5-0.2-0.5-0.5v-0.5
						C1888,1065.3,1888.2,1065.1,1888.5,1065.1z"/>
				</g>
				<g>
					<polygon class="st12" points="1891.1,1105.4 1913,1105.4 1917,1071.6 1888.7,1071.6 					"/>
					<path class="st2" d="M1888.5,1070.1h28.4c0.3,0,0.5,0.2,0.5,0.5v0.5c0,0.3-0.2,0.5-0.5,0.5h-28.4c-0.3,0-0.5-0.2-0.5-0.5v-0.5
						C1888,1070.3,1888.2,1070.1,1888.5,1070.1z"/>
				</g>
				<g>
					<polygon class="st12" points="1891.1,1111.9 1913,1111.9 1917,1078.1 1888.7,1078.1 					"/>
					<path class="st2" d="M1888.5,1076.7h28.4c0.3,0,0.5,0.2,0.5,0.5v0.5c0,0.3-0.2,0.5-0.5,0.5h-28.4c-0.3,0-0.5-0.2-0.5-0.5v-0.5
						C1888,1076.9,1888.2,1076.7,1888.5,1076.7z"/>
				</g>
				<g>
					<polygon class="st12" points="1891.1,1116.7 1913,1116.7 1917,1083 1888.7,1083 					"/>
					<path class="st2" d="M1888.5,1081.5h28.4c0.3,0,0.5,0.2,0.5,0.5v0.5c0,0.3-0.2,0.5-0.5,0.5h-28.4c-0.3,0-0.5-0.2-0.5-0.5v-0.5
						C1888,1081.7,1888.2,1081.5,1888.5,1081.5z"/>
				</g>
			</g>
			<g>
				<path class="st3" d="M1796.1,1010.2L1796.1,1010.2c4.7,0,8.5,3.8,8.5,8.5v82.7c0,4.7-3.8-1.5-8.5-1.5l0,0
					c-4.7,0-8.5,6.2-8.5,1.5v-82.7C1787.6,1014.1,1791.4,1010.2,1796.1,1010.2z"/>
				<path class="st3" d="M1851.6,1010.3c4.5,0.3,7.9,4.3,7.9,8.8v86.3c-7.4,8.7-16.9,3.4-16.9-3.9v-82.7
					C1842.5,1013.9,1846.6,1009.9,1851.6,1010.3z"/>
				<path class="st3" d="M2131.5,1010.2c4.7,0,8.5,3.8,8.5,8.5v82.7c0,4.7-3.8-1.5-8.5-1.5s-8.5,6.2-8.5,1.5v-82.7
					C2123,1014.1,2126.9,1010.2,2131.5,1010.2z"/>
				<path class="st3" d="M2186.4,1010.2L2186.4,1010.2c4.7,0,8.5,3.8,8.5,12.5v72.7c0,0.7-3.8,4.5-8.5,4.5l0,0
					c-4.7,0-8.5,0.2-8.5-4.5v-76.7C2177.9,1014.1,2181.7,1010.2,2186.4,1010.2z"/>
			</g>
			<path class="st3" d="M1771.7,955.4h353.9c3.1,0,5.6,2.5,5.6,5.6v58.7c0,3.1-2.5,5.6-5.6,5.6h-353.9c-3.1,0-5.6-2.5-5.6-5.6V961
				C1766,957.9,1768.6,955.4,1771.7,955.4z"/>
			<path class="st12" d="M1871.2,955.4h353.9c3.1,0,5.6,2.5,5.6,5.6v58.7c0,3.1-2.5,5.6-5.6,5.6h-353.9c-3.1,0-5.6-2.5-5.6-5.6V961
				C1865.6,957.9,1868.1,955.4,1871.2,955.4z"/>
			<path class="st3" d="M1780.5,1094.4h336.2c7.9,0,14.4,6.5,14.4,14.4v544.5c0,7.9-6.5,14.4-14.4,14.4h-336.2
				c-7.9,0-14.4-6.5-14.4-14.4v-544.5C1766,1100.9,1772.5,1094.4,1780.5,1094.4z"/>
			<path class="st12" d="M1880,1094.4h336.2c7.9,0,14.4,6.5,14.4,14.4v544.5c0,7.9-6.5,14.4-14.4,14.4H1880
				c-7.9,0-14.4-6.5-14.4-14.4v-544.5C1865.6,1100.9,1872.1,1094.4,1880,1094.4z"/>
			<path class="st3" d="M2197.7,1650.6h-299.1c-8.5,0-15.3-6.9-15.3-15.3v-508.3c0-8.5,6.9-15.3,15.3-15.3h299.1
				c8.5,0,15.3,6.9,15.3,15.3v508.3C2213,1643.7,2206.1,1650.6,2197.7,1650.6z M1898.6,1116.6c-5.7,0-10.3,4.6-10.3,10.3v508.3
				c0,5.7,4.6,10.3,10.3,10.3h299.1c5.7,0,10.3-4.6,10.3-10.3v-508.3c0-5.7-4.6-10.3-10.3-10.3H1898.6z"/>
			<circle class="st3" cx="1908" cy="1366.8" r="9"/>
		</g>
		<g>
			<path class="st28" d="M2657.6,1652.6c0,0-3.5,56.1-14.3,56.9c-1.4,0.1-55,0.1-55,0.1h-68.2c0,0,0.2-16.9,20.2-20.4
				c20-3.5,53.5-17.5,65.6-44C2618.6,1617.5,2657.6,1652.6,2657.6,1652.6z"/>
			<path class="st15" d="M2661.6,1657.8c0,0-20.8,7-37,7c-18.1,0-34.6-4.9-34.6-4.9s-3.9-37.9-25.5-121.3
				c-11.3-43.7-27.4-100-50.4-169.8c-63.5-193.1-82.8-306-84.5-316.7c-0.1-0.6-0.1-0.8-0.1-0.8l0.2-0.1l195.1-85.7
				c0,0-24.1,266.1,6.7,368.3c4.3,14.3,8,30.9,11.2,48.9C2662,1493.6,2661.6,1657.8,2661.6,1657.8z"/>
			<path class="st16" d="M2642.6,1382.6l-78.1,156c-11.3-43.7-27.4-100-50.4-169.8c-63.5-193.1-82.8-306-84.5-316.7
				c0-0.3,0-0.6,0.1-0.9l195.1-85.7c0,0-24.1,266.1,6.7,368.3C2635.8,1348,2639.4,1364.6,2642.6,1382.6z"/>
			<path class="st28" d="M2509.5,1652.6c0,0-3.5,56.1-14.3,56.9c-1.4,0.1-55,0.1-55,0.1l-68.4-0.4c0,0,0.4-16.5,20.4-20
				c20-3.5,53.5-17.5,65.6-44C2470.5,1617.5,2509.5,1652.6,2509.5,1652.6z"/>
			<path class="st15" d="M2394.7,971.7c0,0-2.5,172.4,27.3,384.2c29.8,211.7,19.7,301.6,19.7,301.6s20.5,6.6,28.8,7.3
				c21.1,1.7,42.7-4.9,42.7-4.9s42.7-211.8,30.5-317.8c-12.2-106,58.5-363.6,58.5-363.6L2394.7,971.7z"/>
			<path class="st29" d="M2533,568.2l-38.1,25l-55-10.3c0.8-4.4,4.4-22.9,7.7-39.5c0.2-1,0.4-2,0.6-2.9c2.8-14.2,5.3-26.4,5.3-26.4
				l51.4-22.7l19.2-8.5c-0.1,0.3-1.5,15.7-1.7,18C2518.7,541,2533,568.2,2533,568.2z"/>
			<path class="st18" d="M2383.3,979.2c0.8,91,6.8,303.9,11.3,308.3c47.4,45.8,255.9-12.5,267-63c11-50.4-42-646.4-123-670.2
				c-16.8-4.9-106.6,24.1-106.6,24.1s-14.1,36.9-23.3,83.8c-3.4,17.4-14.6,141.5-21.1,224.5c-1.7,22.1-3.1,41.3-4,54.7
				C2383.2,947,2383.1,960.5,2383.3,979.2z"/>
			<path class="st30" d="M2518.5,501.6c-11.3,19.1-53.3,35.6-70.9,41.7c0.2-1,0.4-2,0.6-2.9c2.8-14.2,5.3-26.4,5.3-26.4l51.4-22.7
				C2516.2,491.2,2523.1,493.8,2518.5,501.6z"/>
			<path class="st29" d="M2434.1,510.9c0,0,82.8,25.8,98.1-26c15.3-51.8,36.3-83.4-15.9-102c-52.2-18.7-68.4-2-77.7,14.1
				C2429.3,413.1,2413,502.9,2434.1,510.9z"/>
			<path class="st28" d="M2441.8,392c0,0,5.3,60.3,17.7,57.7c12.5-2.6,23.8-4.6,21.9,13.6c-1.8,18.2-19.1,39.2,19.3,42.4
				c38.4,3.2,93.6-95.9,83.1-114.6C2553.5,336.9,2397.8,326,2441.8,392z"/>
			<path class="st19" d="M2454,555.6c1.1-0.5,61.6-27.6,68.7-25.3c7.1,2.3,15.9,24,15.9,24L2432,578.4
				C2432,578.4,2440.4,561.3,2454,555.6z"/>
			<path class="st19" d="M2383.3,979.2c197.9-134,181.7-318.3,181.7-318.3c-77.2,43.6-153.7,146.6-177.5,225.8
				c-1.7,22.1-3.1,41.3-4,54.7C2383.2,947,2383.1,960.5,2383.3,979.2z"/>
			<g>
				<path class="st29" d="M2254,965.8c0,0-1.9-1.8-6.4-2.5c-3.8-1.6-14.4-7.2-16.1-9c-5.5-5.8-8-0.2-4.3,5.8
					c0.8,1.3,3.9,3.6,4.9,4.9c-9.1,2.7-21.4,8.7-37.8,21.1c0,0-13,9,3.4,12.4c11,2.3,15.5-1.6,31,1.4c15.6,2.9,31.2-1.6,37.5-11.4
					l10.9-7.4l-7.3-21.4L2254,965.8z"/>
				<path class="st18" d="M2490.5,580.3c0,0,171,4.3-4,279.8c-28,44.1-211.4,130.9-211.4,130.9s-15.2-19.1-7.9-33.7
					c0,0,124.2-122.2,140-126.3c14-3.7,22.8-162.9,37.8-200.3C2459.9,593.2,2490.5,580.3,2490.5,580.3z"/>
			</g>
		</g>
	</g>
	<g>
		
			<rect x="1526.9" y="381.2" transform="matrix(-1 -1.224647e-16 1.224647e-16 -1 3600.6455 1148.0396)" class="st24" width="546.8" height="385.6"/>
		
			<rect x="1545.9" y="401.2" transform="matrix(-1 -1.224647e-16 1.224647e-16 -1 3600.6445 1148.04)" class="st14" width="508.9" height="345.5"/>
		
			<rect x="2073.6" y="381.2" transform="matrix(-1 -1.224647e-16 1.224647e-16 -1 4150.7344 1148.0396)" class="st31" width="3.6" height="385.6"/>
		<g>
			<path class="st32" d="M1994,653.1c-4.3,14-10,26.6-17.2,36.5c-39.7,54.7-49.1-2.2-58.6-29c-9-25.2-20.8-36.2-42.8-25.5
				c-16.2,7.8-32.1,77.6-56.1,77.2c-19.5-0.3-80-77.2-41.1-214.1c0.7-2.6,1.8-5.5,3.3-8.4c7.2-13.7,24.1-27.4,63-14.9
				c35.6,11.4,37,18.6,61.3,11.9c24.3-6.7,60.6-33.6,85.1-6.1C2006,497.5,2013.5,590.1,1994,653.1z"/>
			<path class="st33" d="M1994,653.1c-3.5,8.8-7.7,16.7-12.6,23.5c-39.7,54.7-49.1-2.2-58.6-29c-9-25.2-20.8-36.2-42.8-25.5
				c-16.2,7.8-32.1,77.6-56.1,77.2c-19-0.3-76.9-73.3-43.9-203.8c0.5-1.9,1-3.8,1.5-5.7c7.2-13.7,24.1-27.4,63-14.9
				c35.6,11.4,37,18.6,61.3,11.9c24.3-6.7,60.6-33.6,85.1-6.1c10.3,11.5,17.1,57.9,14.3,106.2C2003.8,609.6,2000.3,632.9,1994,653.1
				z"/>
			<path class="st34" d="M1986.4,500.1c5.1,14-0.7,40.4-9.8,40.4c-9.2,0-13.2-24.6-21.8-35.3c-12.3-15.5-0.6-23.4,8.6-23.4
				C1972.5,481.9,1981.7,487.2,1986.4,500.1z"/>
			<path class="st35" d="M1995.5,648.1c-0.5,1.7-1,3.4-1.5,5c-3.5,8.8-7.7,16.7-12.6,23.5c-29.9,41.2-42.6,19-51.1-5.8c0,0,0,0,0,0
				c-2.8-8.1-5.1-16.6-7.5-23.2c-5-14.2-11-23.9-19.2-27.7l0,0c-4.3-2-9.3-2.5-15-1c-2.7,0.7-5.6,1.7-8.6,3.2
				c-10.3,5-20.5,35.1-32.7,56.2c-7,12-14.6,21.2-23.4,21c-15.7-0.3-57.8-49.9-53.6-140.5l0,0c0.5-10.2,1.5-20.8,3.3-32
				c1.3-8.6,3.1-17.5,5.3-26.7c0.4-1.5,0.7-3.1,1.1-4.6c2.4,4.3,5.2,8.9,8.4,13.6c20.5,30.7,56.9,68.9,115.9,81.2
				c9.4,2,19.4,3.3,30,3.8c21.2,1.1,44.7-1.1,70.9-7.4c-0.5,8.1-1.2,16.3-2.2,24.3l0,0C2001.2,623.8,1998.8,636.4,1995.5,648.1z"/>
			<path class="st36" d="M1903.6,619.9c-4.3-2-9.3-2.5-15-1c-2.7,0.7-5.6,1.7-8.6,3.2c-10.3,5-20.5,35.1-32.7,56.2
				c-7,12-14.6,21.2-23.4,21c-15.7-0.3-57.8-49.9-53.6-140.5c6.8,20.7,20.5,96.4,64.4,88.8C1863.7,642.5,1865.8,611.4,1903.6,619.9z
				"/>
			<path class="st36" d="M1995.5,648.1c-0.5,1.7-1,3.4-1.5,5c-3.5,8.8-7.9,16.6-12.6,23.5c-41.2,60-52-9.2-60.6-34.1
				c0.2,0.6,15.6,39.1,40,30.6c20.4-7.1,36.6-29.9,42-62.1C2001.2,623.8,1998.8,636.4,1995.5,648.1z"/>
			<g>
				<path class="st32" d="M1787.9,530c0.2-1.3,1.5-2.3,2.8-2c1.3,0.2,2.3,1.5,2,2.8c-0.2,1.3-1.5,2.3-2.8,2
					C1788.6,532.6,1787.7,531.4,1787.9,530z"/>
				<path class="st32" d="M1796.4,518.8c0.1-0.7,0.7-1.1,1.4-1c0.7,0.1,1.1,0.7,1,1.4c-0.1,0.7-0.7,1.1-1.4,1
					C1796.7,520.1,1796.3,519.5,1796.4,518.8z"/>
				<path class="st32" d="M1803.3,535c0.1-0.7,0.7-1.1,1.4-1c0.7,0.1,1.1,0.7,1,1.4c-0.1,0.7-0.7,1.1-1.4,1
					C1803.7,536.3,1803.2,535.6,1803.3,535z"/>
			</g>
			<path class="st9" d="M1985.3,590.8c0,10.7-8.7,19.4-19.4,19.4s-19.4-8.7-19.4-19.4c0-10.7,8.7-19.4,19.4-19.4
				S1985.3,580.1,1985.3,590.8z"/>
			<path class="st9" d="M1965.9,626.4c-19.6,0-35.6-16-35.6-35.6c0-19.6,16-35.6,35.6-35.6s35.6,16,35.6,35.6
				C2001.5,610.4,1985.5,626.4,1965.9,626.4z M1965.9,560.7c-16.6,0-30.1,13.5-30.1,30.1c0,16.6,13.5,30.1,30.1,30.1
				c16.6,0,30.1-13.5,30.1-30.1C1996,574.2,1982.5,560.7,1965.9,560.7z"/>
		</g>
		<path class="st24" d="M2030.5,433.1H1574c-4.8,0-8.8-3.9-8.8-8.8l0,0c0-4.8,3.9-8.8,8.8-8.8h456.5c4.8,0,8.8,3.9,8.8,8.8l0,0
			C2039.2,429.2,2035.3,433.1,2030.5,433.1z"/>
		<path class="st24" d="M1718,568.1h-125.9c-4.8,0-8.8-3.9-8.8-8.8l0,0c0-4.8,3.9-8.8,8.8-8.8H1718c4.8,0,8.8,3.9,8.8,8.8l0,0
			C1726.7,564.2,1722.8,568.1,1718,568.1z"/>
		<path class="st24" d="M1718,598.1h-125.9c-4.8,0-8.8-3.9-8.8-8.8l0,0c0-4.8,3.9-8.8,8.8-8.8H1718c4.8,0,8.8,3.9,8.8,8.8l0,0
			C1726.7,594.2,1722.8,598.1,1718,598.1z"/>
		<path class="st24" d="M1718,628.1h-125.9c-4.8,0-8.8-3.9-8.8-8.8l0,0c0-4.8,3.9-8.8,8.8-8.8H1718c4.8,0,8.8,3.9,8.8,8.8l0,0
			C1726.7,624.2,1722.8,628.1,1718,628.1z"/>
	</g>
	<polygon class="st19" points="2391.2,841.9 2412,823.4 2428.4,722.6 	"/>
	<path class="st37" d="M244,1714.9H2756c1.6,0,3-1.3,3-3v-1.2c0-1.6-1.3-3-3-3H244c-1.6,0-3,1.3-3,3v1.2
		C241,1713.6,242.3,1714.9,244,1714.9z"/>
</g>
</svg>
