<?xml version="1.0" encoding="utf-8"?>
<!-- Generator: Adobe Illustrator 23.0.5, SVG Export Plug-In . SVG Version: 6.00 Build 0)  -->
<svg version="1.1" xmlns="http://www.w3.org/2000/svg" xmlns:xlink="http://www.w3.org/1999/xlink" x="0px" y="0px"
	 viewBox="0 0 2475 1650" style="enable-background:new 0 0 2475 1650;" xml:space="preserve">
<style type="text/css">
	.st0{display:none;}
	.st1{display:inline;fill:#FFFFFF;}
	.st2{fill:url(#SVGID_1_);}
	.st3{fill:#91B3FA;}
	.st4{fill:#7D97F4;}
	.st5{opacity:0.5;}
	.st6{fill:url(#SVGID_2_);}
	.st7{fill:#BDD0FB;}
	.st8{fill:url(#SVGID_3_);}
	.st9{fill:#FFFFFF;}
	.st10{fill:url(#SVGID_4_);}
	.st11{opacity:0.5;fill:#FFFFFF;}
	.st12{fill:url(#SVGID_5_);}
	.st13{fill:url(#SVGID_6_);}
	.st14{fill:url(#SVGID_7_);}
	.st15{fill:url(#SVGID_8_);}
	.st16{fill:url(#SVGID_9_);}
	.st17{fill:url(#SVGID_10_);}
	.st18{fill:url(#SVGID_11_);}
	.st19{fill:url(#SVGID_12_);}
	.st20{fill:url(#SVGID_13_);}
	.st21{fill:url(#SVGID_14_);}
	.st22{fill:url(#SVGID_15_);}
	.st23{fill:url(#SVGID_16_);}
	.st24{fill:url(#SVGID_17_);}
	.st25{fill:url(#SVGID_18_);}
	.st26{fill:url(#SVGID_19_);}
	.st27{fill:url(#SVGID_20_);}
	.st28{opacity:0.26;}
	.st29{fill:url(#SVGID_21_);}
	.st30{fill:url(#SVGID_22_);}
	.st31{fill:url(#SVGID_23_);}
	.st32{fill:url(#SVGID_24_);}
	.st33{fill:url(#SVGID_25_);}
	.st34{fill:url(#SVGID_26_);}
	.st35{fill:url(#SVGID_27_);}
	.st36{fill:url(#SVGID_28_);}
	.st37{fill:url(#SVGID_29_);}
	.st38{fill:url(#SVGID_30_);}
	.st39{fill:url(#SVGID_31_);}
	.st40{fill:url(#SVGID_32_);}
	.st41{opacity:0.7;}
	.st42{opacity:0.6;fill:#FFFFFF;}
	.st43{opacity:0.6;}
	.st44{fill:url(#SVGID_33_);}
	.st45{fill:url(#SVGID_34_);}
	.st46{fill:url(#SVGID_35_);}
	.st47{fill:url(#SVGID_36_);}
	.st48{fill:url(#SVGID_37_);}
	.st49{fill:url(#SVGID_38_);}
	.st50{fill:url(#SVGID_39_);}
	.st51{fill:url(#SVGID_40_);}
	.st52{fill:url(#SVGID_41_);}
	.st53{fill:url(#SVGID_42_);}
	.st54{fill:url(#SVGID_43_);}
	.st55{fill:url(#SVGID_44_);}
	.st56{fill:url(#SVGID_45_);}
	.st57{fill:url(#SVGID_46_);}
	.st58{fill:url(#SVGID_47_);}
	.st59{fill:url(#SVGID_48_);}
	.st60{fill:url(#SVGID_49_);}
	.st61{fill:url(#SVGID_50_);}
</style>
<g id="Background" class="st0">
	<rect class="st1" width="2475" height="1650"/>
</g>
<g id="Illustration">
	<g>
		<linearGradient id="SVGID_1_" gradientUnits="userSpaceOnUse" x1="120.978" y1="808.8857" x2="2380" y2="808.8857">
			<stop  offset="0" style="stop-color:#DAE3FE"/>
			<stop  offset="1" style="stop-color:#E9EFFD"/>
		</linearGradient>
		<path class="st2" d="M713.5,155.1c-35.4,10.5-88.3,58.4-134.7,134.7c-57.1,93.9-91,102.1-171.7,55.8
			c-80.7-46.2-175.6-15.2-244.2,108c-68.6,123.1,51.6,218.9,163,368.9c111.4,150-111.1,111.2-183.1,286.4
			c-72.1,175.2,29.6,371.8,364,369.4c334.9-2.3,841.2,2.1,841.2,2.1s469.5,41.4,640.5-65.6c171-107-39.3-159.1,119.7-227.5
			c159-68.4,325-73,255.5-249.9s-167.9-140.2-231.4-187.5c-63.5-47.3-101.7-98.6-10.9-182.8c90.8-84.2,160.3-140.9,114.4-252.4
			c-65.9-160-225.7-180.6-401.3-112.8c-175.6,67.8-198.7,113.4-488.5,63.1C1184.4,237,1014.8,65.5,713.5,155.1z"/>
		<g>
			<g>
				<g>
					<path class="st3" d="M1246.9,912.5c-21.4-101.9-74.1-186.8-141.2-240.5c-60-47.9-99.8-117.1-109.4-193.2
						c-1-8-2.4-16.1-4.1-24.2C966.4,332.1,870.4,248.5,777.8,268c-92.7,19.5-146.9,134.6-121.1,257.2c5.3,25.1,13.5,48.5,24,69.7
						c33.6,67.8,41.5,145.8,19.4,218.2c-19.8,64.7-23.7,139.4-7.6,215.8c23.9,114,87,206.7,165.6,258.1c29.7,19.5,55.8,44.2,76.6,73
						c34.5,47.9,87.3,74.1,139.3,63.2c56.1-11.8,95.6-63.6,104.5-127.8c5-36.3,17.2-71.2,34.5-103.6
						C1253.9,1115.6,1268.6,1015.6,1246.9,912.5z"/>
					<path class="st4" d="M837.6,391.6c29.1,78.5,55.7,157.8,81.5,237.4c6.4,19.9,12.6,39.9,18.8,59.9l9.3,30l9,30.1
						c5.9,20.1,12.2,40,17.9,60.2l17.1,60.4c10.9,40.4,22.2,80.7,32.3,121.3c5.1,20.3,10.6,40.5,15.3,60.9l14.4,61.1
						c18.3,81.7,34.6,163.8,46.8,246.7l-3.6,0.6l-11.4-61.6l-2.8-15.4l-3.2-15.3l-6.5-30.7l-6.4-30.7c-2.1-10.2-4.6-20.4-6.9-30.6
						c-4.7-20.4-9.3-40.7-14.1-61.1c-19.9-81.2-40.9-162-63.6-242.5c-11.6-40.1-22.9-80.4-34.8-120.4l-8.9-30.1l-9.1-30
						c-6.1-20-12.1-40-18.4-59.9c-12.2-40-24.7-79.9-37.4-119.7c-12.6-39.9-25.5-79.6-38.6-119.3L837.6,391.6z"/>
					<g class="st5">
						<linearGradient id="SVGID_2_" gradientUnits="userSpaceOnUse" x1="686.1899" y1="470.3347" x2="754.9294" y2="470.3347">
							<stop  offset="0" style="stop-color:#DAE3FE"/>
							<stop  offset="1" style="stop-color:#E9EFFD"/>
						</linearGradient>
						<path class="st6" d="M730.1,618.4c-0.9-0.2-1.6-0.7-2.1-1.5c-54.6-99.1-45.8-173.7-28.8-218.8c18.5-49,49.5-74.1,50.8-75.1
							c1.3-1,3.2-0.8,4.3,0.5c1,1.3,0.8,3.2-0.5,4.3c-0.3,0.2-31.2,25.3-49,72.8c-16.5,43.9-24.8,116.5,28.6,213.4
							c0.8,1.5,0.3,3.3-1.2,4.1C731.5,618.4,730.8,618.5,730.1,618.4z"/>
					</g>
				</g>
				<g>
					<path class="st7" d="M855.8,1137.3c-34.8-47.1-81.5-78.2-128.3-89.9c-41.8-10.5-78.3-36.6-101-73.2c-2.4-3.9-5-7.7-7.7-11.4
						c-41.8-56.6-110.3-77-153-45.4c-42.7,31.5-43.4,103-1.6,159.6c8.6,11.6,18.2,21.6,28.6,30c33,26.8,55.3,64.8,61,107
						c5.1,37.7,20.6,76.8,46.6,112.1c38.9,52.7,92.7,85.3,144.9,93.3c19.7,3,38.8,9.6,56.2,19.5c28.8,16.4,61.9,17.5,85.9-0.2
						c25.9-19.1,33.9-54.8,23.4-89.7c-5.9-19.7-7.9-40.4-6.6-61C906.9,1239.4,891,1184.9,855.8,1137.3z"/>
					<linearGradient id="SVGID_3_" gradientUnits="userSpaceOnUse" x1="523.6971" y1="1183.7802" x2="885.4748" y2="1183.7802">
						<stop  offset="0" style="stop-color:#DAE3FE"/>
						<stop  offset="1" style="stop-color:#E9EFFD"/>
					</linearGradient>
					<path class="st8" d="M525.1,966.5c33.2,33.3,65.3,67.7,97.1,102.3c7.9,8.7,15.8,17.5,23.6,26.2l11.7,13.2l11.6,13.3
						c7.7,8.9,15.6,17.6,23.2,26.6l22.9,26.9c15,18.1,30.2,36.1,44.9,54.4c7.4,9.2,14.9,18.2,22.1,27.5l21.6,27.9
						c28.5,37.5,56,75.6,81.6,115.1l-1.7,1.1l-20.2-28.8l-5-7.2l-5.2-7.1l-10.5-14.2l-10.4-14.2c-3.5-4.7-7.1-9.3-10.7-14
						c-7.2-9.3-14.3-18.7-21.5-27.9c-29.2-36.8-58.8-73.3-89.2-109.1c-15.3-17.8-30.5-35.7-46-53.4l-11.6-13.3l-11.7-13.2
						c-7.8-8.8-15.5-17.6-23.4-26.3c-15.6-17.6-31.3-35.1-47.1-52.4c-15.7-17.4-31.7-34.7-47.6-52L525.1,966.5z"/>
					<g class="st5">
						<path class="st9" d="M536.1,1102.5c-0.5,0.2-1.1,0.1-1.5-0.2c-56.5-37.5-72.6-79.5-76.1-108.2c-3.8-31.1,5.7-53.1,6.1-54
							c0.4-0.9,1.5-1.3,2.4-0.9c0.9,0.4,1.3,1.5,0.9,2.4c-0.1,0.2-9.5,22.1-5.8,52.3c3.4,27.9,19.1,68.7,74.4,105.4
							c0.8,0.6,1.1,1.7,0.5,2.5C536.8,1102.1,536.5,1102.4,536.1,1102.5z"/>
					</g>
				</g>
			</g>
			<g>
				<g>
					<path class="st3" d="M1298.9,948.8c20.8-99,72-181.5,137.2-233.6c58.3-46.6,96.9-113.7,106.3-187.7c1-7.8,2.3-15.6,4-23.5
						c25-119.1,118.3-200.3,208.3-181.4c90,18.9,142.7,130.8,117.7,249.9c-5.1,24.4-13.1,47.1-23.3,67.8
						c-32.6,65.9-40.3,141.7-18.8,212c19.2,62.8,23,135.5,7.4,209.7c-23.3,110.7-84.5,200.8-160.9,250.8c-28.9,18.9-54.2,43-74.4,71
						c-33.5,46.5-84.8,72-135.4,61.4c-54.5-11.5-92.9-61.7-101.6-124.1c-4.9-35.3-16.7-69.2-33.5-100.7
						C1292.1,1146,1277.9,1048.9,1298.9,948.8z"/>
					<path class="st4" d="M1717.8,420.4c-24,64.8-46,130.3-67.3,196c-5.3,16.4-10.4,32.9-15.5,49.4l-7.7,24.8l-7.5,24.8
						c-4.9,16.6-10,33.1-14.8,49.7l-14.2,49.9c-9,33.4-18.3,66.6-26.7,100.2c-4.2,16.8-8.8,33.4-12.6,50.3l-11.9,50.5
						c-15.1,67.4-28.6,135.3-38.6,203.7l2.9,0.5l9.4-50.9l2.3-12.7l2.6-12.7l5.3-25.3l5.3-25.3c1.7-8.4,3.8-16.8,5.7-25.2
						c3.9-16.8,7.7-33.6,11.7-50.4c16.4-67,33.8-133.8,52.5-200.2c9.6-33.1,18.9-66.4,28.8-99.4l7.3-24.8l7.5-24.8
						c5-16.5,10-33,15.2-49.5c10.1-33,20.4-66,30.9-98.8c10.4-32.9,21.1-65.7,31.9-98.5L1717.8,420.4z"/>
					<path class="st7" d="M1806.6,607.6c0.7-0.1,1.4-0.6,1.7-1.3c45.1-81.9,37.8-143.4,23.8-180.7c-15.3-40.5-40.9-61.2-42-62
						c-1.1-0.9-2.7-0.7-3.5,0.4c-0.9,1.1-0.7,2.7,0.4,3.5c0.3,0.2,25.8,20.9,40.5,60.1c13.6,36.2,20.5,96.2-23.6,176.2
						c-0.7,1.2-0.2,2.7,1,3.4C1805.4,607.7,1806,607.7,1806.6,607.6z"/>
				</g>
				<g>
					<path class="st7" d="M1617.8,1149.9c36.6-41.4,83.2-66.8,128.1-73.9c40.2-6.4,76.7-27.9,101.1-60.5c2.6-3.4,5.3-6.8,8.2-10.1
						c44-49.8,110.2-63.2,147.7-30c37.5,33.2,32.3,100.5-11.8,150.3c-9,10.2-18.9,18.8-29.3,25.9c-33.2,22.5-57.4,56.4-66.2,95.5
						c-7.9,35-25.7,70.5-53.2,101.5c-40.9,46.3-94.3,72.5-144,75.7c-18.8,1.2-37.3,5.8-54.4,13.6c-28.5,13-59.6,11.3-80.7-7.3
						c-22.7-20.1-27.3-54.3-14.6-86.3c7.2-18.1,10.8-37.3,11.3-56.8C1561.3,1241.7,1580.8,1191.8,1617.8,1149.9z"/>
					
						<linearGradient id="SVGID_4_" gradientUnits="userSpaceOnUse" x1="1578.1143" y1="1042.3223" x2="1919.6527" y2="1042.3223" gradientTransform="matrix(0.9961 8.800000e-02 -8.800000e-02 0.9961 105.8357 14.0011)">
						<stop  offset="0" style="stop-color:#DAE3FE"/>
						<stop  offset="1" style="stop-color:#E9EFFD"/>
					</linearGradient>
					<path class="st10" d="M1943,1016.8c-34,28.6-67.1,58.2-99.8,88.2c-8.2,7.5-16.3,15.1-24.4,22.7l-12.1,11.4l-12,11.5
						c-8,7.7-16.1,15.3-24,23.1l-23.7,23.4c-15.6,15.8-31.4,31.4-46.7,47.5c-7.7,8-15.5,15.9-23,24.1l-22.7,24.4
						c-29.9,32.9-59,66.5-86.3,101.5l1.5,1.2l21.4-25.4l5.3-6.4l5.5-6.2l11-12.4l11-12.5c3.7-4.2,7.5-8.2,11.2-12.3
						c7.5-8.1,15-16.4,22.5-24.5c30.5-32.2,61.4-64,92.9-95.2c15.9-15.5,31.7-31.1,47.7-46.4l12-11.5l12.1-11.4
						c8-7.6,16.1-15.3,24.2-22.8c16.1-15.2,32.3-30.4,48.7-45.4c16.3-15.1,32.7-30,49.1-44.9L1943,1016.8z"/>
					<path class="st11" d="M1921.4,1143.7c0.5,0.2,1,0.2,1.5-0.1c56.3-30.5,74.8-68.7,80.5-95.4c6.2-29-1-50.4-1.3-51.3
						c-0.3-0.9-1.3-1.4-2.2-1.1c-0.9,0.3-1.4,1.3-1.1,2.2c0.1,0.2,7.1,21.6,1.1,49.6c-5.6,25.9-23.7,63.1-78.7,92.9
						c-0.8,0.5-1.1,1.5-0.7,2.3C1920.7,1143.3,1921,1143.6,1921.4,1143.7z"/>
				</g>
			</g>
		</g>
		<linearGradient id="SVGID_5_" gradientUnits="userSpaceOnUse" x1="1050.7246" y1="1396.2213" x2="1051.6373" y2="1396.2213">
			<stop  offset="0" style="stop-color:#4042E2"/>
			<stop  offset="1" style="stop-color:#4F52FF"/>
		</linearGradient>
		<path class="st12" d="M1051.6,1396.7c-0.3-0.3-0.6-0.6-0.9-0.9C1051,1395.9,1051.2,1396.2,1051.6,1396.7z"/>
		<g>
			<path class="st9" d="M1590,895.5c0,0,7.2,526.4-106.7,567.2c-9.3,3.3-17.5,3.3-24.7,0.5c-81.1-31.4-41.8-417.3-149.7-443.4
				h-116.8c-117.5,28.3-60.4,483.6-174.3,442.9c-6.4-2.3-12.4-6.1-18.1-11.3c-0.4-0.4-0.8-0.7-1.2-1.1
				c-93.9-89.7-87.5-554.9-87.5-554.9c-97.9-157.9-72.8-372-72.8-372c-8.9-132.4,153.5-243.2,247.9-185.5
				c57.9,35.4,122.8,50,164.3,56.1c34.3-5,84.7-15.8,133.8-39.5c10.3-4.9,20.5-10.4,30.5-16.6c94.3-57.7,256.8,53.1,247.9,185.5
				C1662.7,523.4,1687.8,737.6,1590,895.5z"/>
			<linearGradient id="SVGID_6_" gradientUnits="userSpaceOnUse" x1="999.6576" y1="1241.1355" x2="1217.4912" y2="1241.1355">
				<stop  offset="0" style="stop-color:#4042E2"/>
				<stop  offset="1" style="stop-color:#4F52FF"/>
			</linearGradient>
			<path class="st13" d="M1217.5,1019.7h-25.4c-117.5,28.3-60.4,483.6-174.3,442.9c-6.4-2.3-12.4-6.1-18.1-11.3
				c93.9,37.1,85.1-328.9,100.5-389.4C1115.5,1001.4,1217.5,1019.7,1217.5,1019.7z"/>
		</g>
		<g>
			<g>
				<path class="st4" d="M1789.8,1469.9c2.5,0,4.5-2,4.5-4.5V927.2c0-2.5-2-4.5-4.5-4.5s-4.5,2-4.5,4.5v538.2
					C1785.3,1467.9,1787.3,1469.9,1789.8,1469.9z"/>
				<path class="st4" d="M1911.8,1469.9c2.5,0,4.5-2,4.5-4.5V927.2c0-2.5-2-4.5-4.5-4.5c-2.5,0-4.5,2-4.5,4.5v538.2
					C1907.3,1467.9,1909.3,1469.9,1911.8,1469.9z"/>
				<path class="st4" d="M2211.6,1473.3c0.6,0,1.2-0.1,1.8-0.4c2.3-1,3.4-3.6,2.4-5.9l-230.2-541.6c-1-2.3-3.6-3.4-5.9-2.4
					c-2.3,1-3.4,3.6-2.4,5.9l230.2,541.6C2208.2,1472.3,2209.8,1473.3,2211.6,1473.3z"/>
				<path class="st4" d="M2069.4,1473.3c0.6,0,1.2-0.1,1.8-0.4c2.3-1,3.4-3.6,2.4-5.9l-230.2-541.6c-1-2.3-3.6-3.4-5.9-2.4
					c-2.3,1-3.4,3.6-2.4,5.9l230.2,541.6C2065.9,1472.3,2067.6,1473.3,2069.4,1473.3z"/>
				<path class="st4" d="M1782.8,932.2h210.9c3.5,0,6.3-2.8,6.3-6.3l0,0c0-3.5-2.8-6.3-6.3-6.3h-210.9c-3.5,0-6.3,2.8-6.3,6.3l0,0
					C1776.5,929.4,1779.3,932.2,1782.8,932.2z"/>
				<path class="st4" d="M1873.9,1014.6h142.6c2.5,0,4.5-2,4.5-4.5c0-2.5-2-4.5-4.5-4.5h-142.6c-2.5,0-4.5,2-4.5,4.5
					C1869.4,1012.5,1871.4,1014.6,1873.9,1014.6z"/>
				<rect x="1917.7" y="1108" class="st4" width="142.6" height="9"/>
				<rect x="1960" y="1210.4" class="st4" width="142.6" height="9"/>
				<path class="st4" d="M2004.5,1321.8h142.6c2.5,0,4.5-2,4.5-4.5c0-2.5-2-4.5-4.5-4.5h-142.6c-2.5,0-4.5,2-4.5,4.5
					C2000,1319.8,2002,1321.8,2004.5,1321.8z"/>
				<path class="st4" d="M2047.4,1424.3h142.6c2.5,0,4.5-2,4.5-4.5c0-2.5-2-4.5-4.5-4.5h-142.6c-2.5,0-4.5,2-4.5,4.5
					C2042.9,1422.2,2044.9,1424.3,2047.4,1424.3z"/>
			</g>
			<g>
				<g>
					<g>
						
							<linearGradient id="SVGID_7_" gradientUnits="userSpaceOnUse" x1="-1133.3298" y1="889.7449" x2="-1141.8298" y2="735.2455" gradientTransform="matrix(-1 0 0 1 685.5873 0)">
							<stop  offset="0" style="stop-color:#4042E2"/>
							<stop  offset="1" style="stop-color:#4F52FF"/>
						</linearGradient>
						<path class="st14" d="M1788.3,921c10.4,0.9,28.6,2.4,42.9,3c8.6,0.4,13.5-0.5,16.4-1.6c0,0.3,0,0.6,0,0.9
							c-0.1,1.5-1.3,2.7-2.8,2.8c-27,1.5-48.5,0.5-56.1,0.1c-1.6-0.1-2.5-1.8-1.7-3.2C1787.3,922.3,1787.8,921.6,1788.3,921z"/>
						
							<linearGradient id="SVGID_8_" gradientUnits="userSpaceOnUse" x1="-1161.976" y1="911.9865" x2="-1102.7075" y2="911.9865" gradientTransform="matrix(-1 0 0 1 685.5873 0)">
							<stop  offset="0" style="stop-color:#09005D"/>
							<stop  offset="1" style="stop-color:#1A0F91"/>
						</linearGradient>
						<path class="st15" d="M1831.2,924c-14.3-0.6-32.4-2.1-42.9-3c10.3-12.6,42.9-21.1,42.9-21.1h9.2c6.3,9.1,7.3,17.8,7.2,22.5
							C1844.7,923.5,1839.8,924.4,1831.2,924z"/>
						
							<linearGradient id="SVGID_9_" gradientUnits="userSpaceOnUse" x1="-1156.342" y1="895.2988" x2="-1139.1632" y2="895.2988" gradientTransform="matrix(-1 0 0 1 685.5873 0)">
							<stop  offset="0" style="stop-color:#FF928E"/>
							<stop  offset="1" style="stop-color:#FEB3B1"/>
						</linearGradient>
						<path class="st16" d="M1841.9,884.9l-0.9,17.1c-0.1,1.8-1.5,3.4-3.3,3.7c-1.8,0.3-4.3,0.3-6.9-0.6c-1.6-0.5-2.8-1.9-3.1-3.5
							l-3-16.6H1841.9z"/>
					</g>
					<g>
						<g>
							
								<linearGradient id="SVGID_10_" gradientUnits="userSpaceOnUse" x1="-1273.1891" y1="897.4393" x2="-1281.689" y2="742.94" gradientTransform="matrix(-1 0 0 1 685.5873 0)">
								<stop  offset="0" style="stop-color:#4042E2"/>
								<stop  offset="1" style="stop-color:#4F52FF"/>
							</linearGradient>
							<path class="st17" d="M1961.5,923.9c4.5-0.6,6.6-3,7.4-5.5c0,0,0,0,0,0.1c0.7,2.7-0.9,5.4-4,6.7c-3.7,1.6-7.8,1.9-11,1.7
								c-3.4-0.1-6.5-1.5-8.2-3.8l0,0C1949.2,924.7,1954,924.9,1961.5,923.9z"/>
							
								<linearGradient id="SVGID_11_" gradientUnits="userSpaceOnUse" x1="-1283.3859" y1="904.6287" x2="-1249.0812" y2="904.6287" gradientTransform="matrix(-1 0 0 1 685.5873 0)">
								<stop  offset="0" style="stop-color:#09005D"/>
								<stop  offset="1" style="stop-color:#1A0F91"/>
							</linearGradient>
							<path class="st18" d="M1940.2,884.8h7.6c11.6-0.2,18.8,24.2,21.2,33.6c-0.9,2.5-2.9,4.9-7.4,5.5c-7.6,1.1-12.3,0.9-15.8-0.8
								c-6.2-8.2-9.3-20.3-10.8-27.3C1933.2,887.7,1940.2,884.8,1940.2,884.8z"/>
						</g>
						
							<linearGradient id="SVGID_12_" gradientUnits="userSpaceOnUse" x1="-1265.5549" y1="880.9778" x2="-1245.0244" y2="880.9778" gradientTransform="matrix(-1 0 0 1 685.5873 0)">
							<stop  offset="0" style="stop-color:#FF928E"/>
							<stop  offset="1" style="stop-color:#FEB3B1"/>
						</linearGradient>
						<path class="st19" d="M1946.8,868.9l4.2,16.8c0.5,2.1-0.5,4.2-2.4,5.2c-2.4,1.2-5.7,2.5-8.7,2.1c-1.4-0.2-2.6-1.2-3.1-2.5
							l-6.2-17.6L1946.8,868.9z"/>
					</g>
					<linearGradient id="SVGID_13_" gradientUnits="userSpaceOnUse" x1="1789.7141" y1="763.4063" x2="1951.8186" y2="763.4063">
						<stop  offset="0" style="stop-color:#09005D"/>
						<stop  offset="1" style="stop-color:#1A0F91"/>
					</linearGradient>
					<path class="st20" d="M1951.8,873.8c-5.2,4.7-22.3,5.3-22.3,5.3c-61.5-147.5-86.6-168.5-86.6-168.5c8.9,55.7,1.4,179,1.4,179
						c-10.1,4.5-23.2,0-23.2,0c-0.8-91.2-14.8-170.7-31.4-233.3c41.5-0.9,63.6-15.2,70.9-20.9
						C1895.2,691.1,1951.8,873.8,1951.8,873.8z"/>
					<linearGradient id="SVGID_14_" gradientUnits="userSpaceOnUse" x1="1770.015" y1="656.1571" x2="1949.015" y2="448.1569">
						<stop  offset="0" style="stop-color:#4042E2"/>
						<stop  offset="1" style="stop-color:#4F52FF"/>
					</linearGradient>
					<path class="st21" d="M1850,465.6c7.9,39.2,5,109.4,3.2,141.5c-0.5,9,24,37.4,42.8,93.8c0.5,1.5,0.3,3-1.1,3.8
						c-8.5,4.4-57.3,7.9-90.6,9.6c-2.2,0.1-4.4-1.4-4.8-3.6c-18.1-94.8-63.1-206.2-65.5-205.4C1765.7,454.6,1850,465.6,1850,465.6z"
						/>
					<g>
						
							<linearGradient id="SVGID_15_" gradientUnits="userSpaceOnUse" x1="-1171.4952" y1="581.719" x2="-1244.5804" y2="646.4376" gradientTransform="matrix(-1 0 0 1 685.5873 0)">
							<stop  offset="0" style="stop-color:#FF928E"/>
							<stop  offset="1" style="stop-color:#FEB3B1"/>
						</linearGradient>
						<path class="st22" d="M1899.3,578.2c-2.5,18.3-10,38.2-24.9,59.4l-5.7-4.6c0,0,6.6-26.6,2.8-56.7
							C1880.8,574.4,1891.7,576.3,1899.3,578.2z"/>
						<linearGradient id="SVGID_16_" gradientUnits="userSpaceOnUse" x1="1763.7842" y1="650.795" x2="1942.7843" y2="442.7946">
							<stop  offset="0" style="stop-color:#4042E2"/>
							<stop  offset="1" style="stop-color:#4F52FF"/>
						</linearGradient>
						<path class="st23" d="M1841.2,514l8.8-48.4c0,0,58.7,44.9,49.3,112.6c-7.7-1.9-18.6-3.8-27.8-2
							C1868.9,554.5,1860.9,530.9,1841.2,514z"/>
					</g>
					<g>
						<linearGradient id="SVGID_17_" gradientUnits="userSpaceOnUse" x1="1697.5966" y1="593.8355" x2="1876.5966" y2="385.8354">
							<stop  offset="0" style="stop-color:#4042E2"/>
							<stop  offset="1" style="stop-color:#4F52FF"/>
						</linearGradient>
						<path class="st24" d="M1734,505.3c10.8,8.2,17.2,27.4,22.7,48.8c-3.7,29.5-19.5,42.2-36.5,47.1c-1.1-13.4-4.5-24.3-7.6-31.8
							C1734.3,546.9,1734,505.3,1734,505.3z"/>
						
							<linearGradient id="SVGID_18_" gradientUnits="userSpaceOnUse" x1="-1034.4888" y1="587.8407" x2="-976.9312" y2="587.8407" gradientTransform="matrix(-1 0 0 1 685.5873 0)">
							<stop  offset="0" style="stop-color:#FF928E"/>
							<stop  offset="1" style="stop-color:#FEB3B1"/>
						</linearGradient>
						<path class="st25" d="M1712.5,569.4c3.1,7.5,6.5,18.3,7.6,31.8c-45.5,17.7-57.6-16.6-57.6-16.6l8.4-1.5
							C1689.9,585.1,1703.2,579,1712.5,569.4z"/>
					</g>
					
						<linearGradient id="SVGID_19_" gradientUnits="userSpaceOnUse" x1="-1090.436" y1="434.026" x2="-1091.0647" y2="541.5108" gradientTransform="matrix(-1 0 0 1 685.5873 0)">
						<stop  offset="0" style="stop-color:#FF928E"/>
						<stop  offset="1" style="stop-color:#FEB3B1"/>
					</linearGradient>
					<path class="st26" d="M1754.8,445.1l10.9,40.2c1.2,4.5,6.1,6.9,10.5,5.2c4.7-1.9,10.6-4.4,15.8-7.2c5.5-3,7.2-10,3.7-15.1
						l-22.7-33.9L1754.8,445.1z"/>
				</g>
				<linearGradient id="SVGID_20_" gradientUnits="userSpaceOnUse" x1="1632.6129" y1="544.7518" x2="1922.6129" y2="688.7519">
					<stop  offset="0" style="stop-color:#09005D"/>
					<stop  offset="1" style="stop-color:#1A0F91"/>
				</linearGradient>
				<path class="st27" d="M1641.7,557.7l280.2,102c11.8,4.3,17.4,17.7,12.2,29l-0.9,1.9c-4.6,10.1-16.5,14.5-26.5,9.8l-272.1-125.9
					L1641.7,557.7z"/>
				<g class="st28">
					<ellipse class="st3" cx="1512.9" cy="496.4" rx="138.3" ry="135.8"/>
				</g>
				<linearGradient id="SVGID_21_" gradientUnits="userSpaceOnUse" x1="1378.4766" y1="418.1807" x2="1641.4764" y2="571.1808">
					<stop  offset="0" style="stop-color:#09005D"/>
					<stop  offset="1" style="stop-color:#1A0F91"/>
				</linearGradient>
				<path class="st29" d="M1358.9,496.4c0,83.5,68.9,151.1,153.9,151.1c85,0,153.9-67.7,153.9-151.1c0-83.5-68.9-151.1-153.9-151.1
					C1427.8,345.2,1358.9,412.9,1358.9,496.4z M1381.5,496.4c0-71.2,58.8-128.9,131.3-128.9c72.5,0,131.3,57.7,131.3,128.9
					c0,71.2-58.8,128.9-131.3,128.9C1440.3,625.3,1381.5,567.6,1381.5,496.4z"/>
				<g>
					<path class="st7" d="M1655.1,515.1c0,0-0.1,0-0.1,0c-0.6-0.1-1-0.6-0.9-1.2c0.5-3.5,0.8-7.1,0.9-10.7c0-0.6,0.5-1.1,1.1-1
						c0.6,0,1.1,0.5,1,1.1c-0.2,3.6-0.5,7.3-1,10.8C1656.1,514.7,1655.6,515.1,1655.1,515.1z M1654,472.9c-0.5,0-1-0.4-1.1-0.9
						c-1.7-9.6-4.5-19-8.2-28c0,0,0,0,0,0c-21.9-53-73.6-87.3-131.9-87.3c-27.2,0-53.6,7.5-76.4,21.8c-0.5,0.3-1.2,0.2-1.5-0.3
						c-0.3-0.5-0.2-1.2,0.3-1.5c23.2-14.5,50-22.2,77.6-22.2c59.2,0,111.7,34.8,133.9,88.6c0,0,0,0,0,0c3.8,9.1,6.6,18.7,8.3,28.4
						c0.1,0.6-0.3,1.2-0.9,1.3C1654.1,472.9,1654.1,472.9,1654,472.9z"/>
				</g>
				<g>
					<linearGradient id="SVGID_22_" gradientUnits="userSpaceOnUse" x1="1868.2253" y1="361.6351" x2="1771.2252" y2="419.6352">
						<stop  offset="0" style="stop-color:#FF928E"/>
						<stop  offset="1" style="stop-color:#FEB3B1"/>
					</linearGradient>
					<path class="st30" d="M1730.9,414.6c-0.1,0.7,9.1,45.9,9.1,45.9l25.7-5.8l-2.4-44.1C1763.3,410.5,1732.6,403,1730.9,414.6z"/>
					<linearGradient id="SVGID_23_" gradientUnits="userSpaceOnUse" x1="1860.15" y1="242.0614" x2="1798.1498" y2="345.0617">
						<stop  offset="0" style="stop-color:#09005D"/>
						<stop  offset="1" style="stop-color:#1A0F91"/>
					</linearGradient>
					<path class="st31" d="M1757.6,420.3l3.1,23.1c0,0.3,0,0.6,0,0.9c-0.3,1.8-1.6,8-7.8,6.2c-5.7-1.6-10.8-3-14.4-1.9
						c-1.6,0.5-2.6,2.1-2.2,3.8c0.8,4.1,2.9,13.3,5.9,21.1c0.6,1.6,2.3,2.4,3.9,1.9c4.9-1.4,15.1-4.7,22.6-9.3
						c1-0.6,1.6-1.7,1.6-2.9c-0.2-5.8-0.9-23.6-0.4-28.6c0.5-4.7,6.3-7.5,8.8-8.5c0.8-0.3,1.5-1,1.8-1.8c1.2-2.9,2.7-9.6-5.7-12.3
						c-1.8-0.6-2.7-2.5-2.1-4.2c1.2-3.5,1.8-8.8-4.7-11.7c-6.6-3-11.6,0.6-14.2,3.4c-1.1,1.2-2.8,1.3-4.2,0.5
						c-0.8-0.5-1.7-0.6-2.9,0.1c-1.6,1-3.7,0.3-4.5-1.4c-1.6-3.3-4.8-6.7-11.3-5.6c-11.5,2-12.8,14.7-9.8,22.2
						c3,7.5,15.4,4.6,21.6,0.9c4.7-2.9,10.8,0.1,13.5,1.7C1756.9,418.5,1757.4,419.4,1757.6,420.3z"/>
					
						<linearGradient id="SVGID_24_" gradientUnits="userSpaceOnUse" x1="-1409.0096" y1="1880.2361" x2="-1366.5726" y2="1836.6968" gradientTransform="matrix(-0.9897 -0.1428 -0.1428 0.9897 683.9234 -1579.7996)">
						<stop  offset="0" style="stop-color:#FF928E"/>
						<stop  offset="1" style="stop-color:#FEB3B1"/>
					</linearGradient>
					<path class="st32" d="M1770.9,443.1c0,0-4.7-13.3,0.1-16.5c4.9-3.2,12.1-1.6,10.5,8C1779.5,446.6,1770.9,443.1,1770.9,443.1z"
						/>
				</g>
				
					<linearGradient id="SVGID_25_" gradientUnits="userSpaceOnUse" x1="-1142.6339" y1="614.3115" x2="-1215.719" y2="679.03" gradientTransform="matrix(-1 0 0 1 685.5873 0)">
					<stop  offset="0" style="stop-color:#FF928E"/>
					<stop  offset="1" style="stop-color:#FEB3B1"/>
				</linearGradient>
				<path class="st33" d="M1871.1,632.2l-26.5-2.2l-11.5,10.6c0,0,2.7,3.8,11.2,1.6c8.5-2.2,20.1-2.7,20.1-2.7s11.7,5.3,11.9-4.6
					L1871.1,632.2z"/>
				
					<linearGradient id="SVGID_26_" gradientUnits="userSpaceOnUse" x1="-983.0461" y1="581.081" x2="-962.4342" y2="581.081" gradientTransform="matrix(-1 0 0 1 685.5873 0)">
					<stop  offset="0" style="stop-color:#FF928E"/>
					<stop  offset="1" style="stop-color:#FEB3B1"/>
				</linearGradient>
				<path class="st34" d="M1665.9,590.9c-2.3,1.8-10.1-1.9-14.9-4.5c-2.3-1.3-3.5-4-2.7-6.5c1.2-3.6,3.1-8.4,5.5-8.9
					C1657.7,569.9,1675.3,583.5,1665.9,590.9z"/>
				<path class="st7" d="M1916.4,696.6c-0.5,0-0.9-0.3-1-0.7c-0.2-0.6,0.1-1.2,0.7-1.4c7.9-2.7,12-7.1,12.3-13.1
					c0.3-6-3.6-11.7-9.5-14l-33.6-13.1c-0.6-0.2-0.8-0.8-0.6-1.4c0.2-0.6,0.9-0.8,1.4-0.6l33.6,13.1c6.8,2.7,11.2,9.1,10.9,16.1
					c-0.2,4.8-2.8,11.3-13.7,15.1C1916.6,696.6,1916.5,696.6,1916.4,696.6z"/>
				<path class="st7" d="M1875.1,650.3c-0.1,0-0.3,0-0.4-0.1l-4.4-1.7c-0.6-0.2-0.8-0.8-0.6-1.4c0.2-0.6,0.9-0.8,1.4-0.6l4.4,1.7
					c0.6,0.2,0.8,0.8,0.6,1.4C1876,650,1875.6,650.3,1875.1,650.3z"/>
			</g>
		</g>
		<g>
			<g>
				<linearGradient id="SVGID_27_" gradientUnits="userSpaceOnUse" x1="939.9904" y1="-310.7652" x2="795.976" y2="79.2737">
					<stop  offset="0" style="stop-color:#09005D"/>
					<stop  offset="1" style="stop-color:#1A0F91"/>
				</linearGradient>
				<path class="st35" d="M551,373.9L181.3,575.6c-20.4,11.1-28.5,36.3-18.4,57.2L428,1183.7c7.9,16.4,27.8,23,43.9,14.6
					l427.9-223.5c15.1-7.9,20.9-26.7,12.7-41.7L618.2,393.6C605.1,369.6,575,360.8,551,373.9z"/>
				<path class="st3" d="M832.9,999.4c-0.6,0.3-1.3,0.1-1.6-0.4c-0.3-0.6-0.1-1.3,0.4-1.6l47.1-26.5c14.6-8.2,20-26.9,12-41.7
					l-39.1-71.6c-0.3-0.6-0.1-1.3,0.5-1.6c0,0,0,0,0,0c0.6-0.3,1.3-0.1,1.6,0.5l39.1,71.6c8.7,15.9,2.9,36-12.9,44.8L832.9,999.4
					C832.9,999.4,832.9,999.4,832.9,999.4z"/>
				<path class="st3" d="M841.3,836C841.3,836,841.3,836,841.3,836c-0.6,0.3-1.3,0.1-1.6-0.5l-6.3-11.6c-0.3-0.6-0.1-1.3,0.5-1.6
					c0,0,0,0,0,0c0.6-0.3,1.3-0.1,1.6,0.5l6.3,11.6C842,834.9,841.8,835.6,841.3,836z"/>
				<g>
					
						<linearGradient id="SVGID_28_" gradientUnits="userSpaceOnUse" x1="-879.0275" y1="4585.3467" x2="-387.8484" y2="3860.6851" gradientTransform="matrix(-0.8778 0.479 0.479 0.8778 -1934.4941 -2565.8103)">
						<stop  offset="0" style="stop-color:#FE7062"/>
						<stop  offset="1" style="stop-color:#FF928E"/>
					</linearGradient>
					<path class="st36" d="M547.5,370.2c-46.7,34.4-208.8,150.3-358.3,217.6c-6.8,3.1-9.8,11.1-6.6,17.9l265.1,554
						c3.6,7.6,12.7,10.8,20.3,7.2c62.3-29.4,318.5-151.2,402.1-208.9c5.1-3.5,6.7-10.3,3.8-15.7L568.7,374.9
						C564.5,367.2,554.5,365,547.5,370.2z"/>
					<linearGradient id="SVGID_29_" gradientUnits="userSpaceOnUse" x1="760.8013" y1="-15.2004" x2="706.7959" y2="170.8183">
						<stop  offset="0" style="stop-color:#FF928E"/>
						<stop  offset="1" style="stop-color:#FEB3B1"/>
					</linearGradient>
					<path class="st37" d="M549.7,387.1c-45,33.1-200.9,144.6-344.9,209.4c-6.6,3-9.4,10.7-6.3,17.2l255.2,533.1
						c3.5,7.3,12.2,10.4,19.6,7c60-28.3,306.5-145.5,386.9-201c4.9-3.4,6.5-9.9,3.6-15.1L570.1,391.7
						C566.1,384.3,556.5,382.1,549.7,387.1z"/>
				</g>
				
					<linearGradient id="SVGID_30_" gradientUnits="userSpaceOnUse" x1="469.9698" y1="1623.5723" x2="460.9698" y2="1727.5724" gradientTransform="matrix(0.683 -0.7304 0.7304 0.683 -620.7257 275.6583)">
					<stop  offset="0" style="stop-color:#09005D"/>
					<stop  offset="1" style="stop-color:#1A0F91"/>
				</linearGradient>
				<path class="st38" d="M331.3,467.2l39.9-26.6l-17.5-40.4c-3.5-8.1-12.3-12.7-20.9-10.8c-9.5,2-21.2,8.2-29.5,24.8
					C287.1,446.7,331.3,467.2,331.3,467.2z M322.5,430.4c-3.2-5.8-1-13,4.8-16.2c5.8-3.2,13-1,16.2,4.8c3.2,5.8,1,13-4.8,16.2
					C332.9,438.3,325.7,436.2,322.5,430.4z"/>
				<g>
					<path class="st7" d="M358.6,427.9c-1.2,0.5-2.6,0-3.1-1.2l-2.8-6.4c-0.5-1.2,0-2.6,1.2-3.1c1.2-0.5,2.6,0,3.1,1.2l2.8,6.4
						c0.4,0.9,0.2,1.8-0.4,2.5C359.2,427.5,358.9,427.7,358.6,427.9z M353.1,415.3c-1.2,0.5-2.6,0-3.1-1.2l-2.1-4.9
						c-2.7-6.2-9.4-9.7-16-8.3c-5.2,1.1-10,3.5-14.1,7c-1,0.8-2.5,0.7-3.3-0.3c-0.8-1-0.7-2.5,0.3-3.3c4.7-4,10.2-6.7,16.2-8
						c8.8-1.9,17.7,2.7,21.3,11l2.1,4.9c0.4,0.9,0.2,1.8-0.4,2.5C353.7,414.9,353.4,415.1,353.1,415.3z"/>
				</g>
				<linearGradient id="SVGID_31_" gradientUnits="userSpaceOnUse" x1="333.327" y1="428.8422" x2="437.3275" y2="593.8427">
					<stop  offset="0" style="stop-color:#09005D"/>
					<stop  offset="1" style="stop-color:#1A0F91"/>
				</linearGradient>
				<path class="st39" d="M442,434.2l-10.6-19.3c-3.6-6.7-12.1-9-18.6-5.1l-130.9,77.3c-5.8,3.4-8.1,10.7-5.2,16.8l9,19.2L442,434.2
					z"/>
				<path class="st7" d="M385,434.4C385,434.4,385,434.4,385,434.4l-5.7,3.1c-0.6,0.3-1.3,0.1-1.6-0.5c-0.3-0.6-0.1-1.3,0.5-1.6
					c0,0,0,0,0,0l5.7-3.1c0.6-0.3,1.3-0.1,1.6,0.5C385.8,433.4,385.6,434.1,385,434.4z"/>
				<path class="st7" d="M432.7,432.7c0.6-0.7,0.8-1.8,0.3-2.7l-4.3-7.8c-1.8-3.2-4.7-5.6-8.2-6.6c-3.5-1-7.2-0.6-10.4,1.1
					l-21.1,11.5c-1.1,0.6-1.6,2.1-0.9,3.2c0.6,1.1,2.1,1.6,3.2,0.9l21.1-11.5c4.3-2.4,9.8-0.8,12.2,3.6l4.3,7.8
					c0.6,1.1,2.1,1.6,3.2,0.9C432.3,433,432.5,432.9,432.7,432.7z"/>
				
					<linearGradient id="SVGID_32_" gradientUnits="userSpaceOnUse" x1="-348.9881" y1="1330.1501" x2="-357.9881" y2="1434.1503" gradientTransform="matrix(-0.8778 0.479 0.479 0.8778 -1934.4941 -2565.8103)">
					<stop  offset="0" style="stop-color:#09005D"/>
					<stop  offset="1" style="stop-color:#1A0F91"/>
				</linearGradient>
				<path class="st40" d="M479.9,404.4L246.7,531.6c-8.4,4.6-12.3,14.5-9.2,23.6l0.4,1.2c3.4,9.9,14.9,14.4,24,9.4l239.3-130.6
					c5.5-3,7.4-10,4.1-15.3l-6.4-10.4C495.1,402.9,486.7,400.7,479.9,404.4z"/>
			</g>
			<g class="st41">
				<g>
					<path class="st9" d="M661.6,625.7l-66.7-112.3c-0.7-1.2-2.2-1.6-3.4-0.9l-334,178.9c-0.6,0.3-1.1,0.9-1.3,1.6
						c-0.2,0.7-0.1,1.4,0.3,2L328.9,809c0.7,1.1,2.1,1.4,3.3,0.7l328.5-180.4c0,0,0,0,0,0c0,0,0,0,0,0c1.2-0.7,1.7-2.1,1.1-3.3
						C661.7,625.8,661.7,625.8,661.6,625.7z M591.8,518.1l13.6,23L276.9,717.6l-14.6-22.9L591.8,518.1z M332,804.2l-52.3-82.4
						L608,545.5l48.1,80.9L332,804.2z"/>
					<path class="st9" d="M318.9,738.5L467.2,657c2.9-1.6,3.8-5.2,2-8l-0.3-0.5c-1.8-2.8-5.7-3.8-8.6-2.2l-147.8,81.3
						c-2.9,1.6-3.9,5.2-2.2,8.1l0.3,0.5C312.3,739,316,740.1,318.9,738.5z"/>
					<path class="st9" d="M478.4,674.4l-149.2,81.8c-2.9,1.6-3.9,5.3-2.2,8.2l0.3,0.6c1.7,2.9,5.5,4,8.4,2.4l149.7-82
						c3-1.6,3.8-5.3,2-8.1l-0.4-0.5C485.3,673.8,481.4,672.8,478.4,674.4z"/>
					<path class="st9" d="M590.6,589.3c3.1-1.7,4-5.5,1.9-8.4c-2.1-2.9-6.2-3.9-9.3-2.2l-65.1,35.8c-3.1,1.7-4,5.5-2,8.4
						c2,3,6.1,4,9.2,2.3L590.6,589.3z"/>
					<path class="st9" d="M612,608.6c-2.1-3-6.3-4-9.5-2.3l-65.7,36c-3.1,1.7-4,5.5-2,8.5c2,3,6.2,4.1,9.3,2.3l66-36.1
						C613.2,615.4,614.1,611.6,612,608.6z"/>
				</g>
				<path class="st9" d="M545,458.2c1.8,3.2,0.8,7.3-2.3,9L241,638.5c-3.4,1.9-7.7,0.7-9.6-2.7l-0.3-0.5c-1.9-3.4-0.7-7.7,2.6-9.6
					L535.9,455c3.1-1.7,7-0.5,8.8,2.7L545,458.2z"/>
				<path class="st9" d="M559.2,483.7c1.8,3.2,0.8,7.3-2.3,9L256.2,665.1c-3.4,1.9-7.7,0.8-9.6-2.6l-0.3-0.5
					c-1.9-3.4-0.8-7.7,2.6-9.6l301.2-171.8c3.1-1.7,7-0.5,8.8,2.7L559.2,483.7z"/>
				<g>
					<path class="st9" d="M442.8,872.9c0,0-0.1,0-0.1,0.1l-43.1,24.3c-6.2,3.5-13.8,2.2-17.6-3l-24.5-33.8c-1.5-2-2-4.5-1.6-7
						c0.5-2.8,2.2-5.4,4.7-7.1l0,0c3.5-2.3,8.2-5.6,13.4-9.3c11.3-7.9,24.2-16.9,32.1-21.5c0.1,0,0.1-0.1,0.2-0.1
						c5.7-3.3,12.6-2.6,16.8,1.6c7,7,15.8,22.7,25,39.6C451.2,862.2,448.8,869.5,442.8,872.9z M363,849.8c-1.6,1.1-2.7,2.7-3,4.5
						c-0.3,1.4,0.1,2.8,0.9,4l24.5,33.8c2.6,3.6,7.9,4.4,12.3,1.9l43.1-24.3c0,0,0.1,0,0.1,0c4.1-2.4,5.8-7.2,3.9-10.8
						c-9-16.6-17.7-32.1-24.3-38.7c-2.9-2.9-8.1-3.3-12.1-0.9c-7.8,4.6-21.1,13.9-31.8,21.4C371.2,844.1,366.5,847.4,363,849.8
						L363,849.8z"/>
					<path class="st42" d="M369.6,850.7c8.6-5.8,27.1-19.1,36.3-24.6c3.9-2.3,8.7-1.9,11.6,0.9c5.6,5.6,13,18.9,19.7,31.3
						c2,3.7,0.3,8.5-3.8,10.9l-34.4,19.4c-4.2,2.4-9.4,1.5-11.9-2l-19.6-27C365.5,856.9,366.4,852.9,369.6,850.7z"/>
					<g class="st43">
						<path class="st9" d="M458.8,813.9c-1.9,1.1-2.2,3.2-0.7,4.8l12.4,12.5c1.5,1.6,4.4,1.9,6.3,0.8l215.8-124.7
							c1.9-1.1,2.5-3.5,1.4-5.4l-5.4-8.9c-1.1-1.9-3.7-2.6-5.6-1.5L458.8,813.9z"/>
					</g>
					
						<linearGradient id="SVGID_33_" gradientUnits="userSpaceOnUse" x1="651.27" y1="4029.4531" x2="398.6403" y2="4460.6328" gradientTransform="matrix(0.866 -0.5002 0.5002 0.866 -2181.6133 -2558.7661)">
						<stop  offset="0" style="stop-color:#E1473D"/>
						<stop  offset="1" style="stop-color:#E9605A"/>
					</linearGradient>
					<path class="st44" d="M374.7,855.3L374.7,855.3c2.1-3.7,6.8-5,10.5-2.8l17.2,10.3c1.7,1,3.9-0.3,3.7-2.3l-6-58.8
						c-0.3-2.9,3.6-4.1,5.1-1.6c8,14.4,19.9,43.7,10.2,79.6c0,0-15.4,2.4-38.3-14C373.7,863.3,372.7,858.8,374.7,855.3z"/>
				</g>
				<g>
					<path class="st9" d="M496.3,968.8c0,0-0.1,0-0.1,0.1l-43.1,24.3c-6.2,3.5-13.8,2.2-17.6-3L411,956.4c-1.5-2-2-4.5-1.6-7
						c0.5-2.8,2.2-5.4,4.7-7.1l0,0c3.5-2.3,8.2-5.6,13.4-9.3c11.3-7.9,24.2-16.9,32.1-21.5c0.1,0,0.1-0.1,0.2-0.1
						c5.7-3.3,12.6-2.6,16.8,1.6c7,7,15.8,22.7,25,39.6C504.7,958.1,502.2,965.3,496.3,968.8z M416.4,945.6c-1.6,1.1-2.7,2.7-3,4.5
						c-0.3,1.4,0.1,2.8,0.9,4l24.5,33.8c2.6,3.6,7.9,4.4,12.3,1.9l43.1-24.3c0,0,0.1,0,0.1,0c4.1-2.4,5.8-7.2,3.9-10.8
						c-9-16.6-17.7-32.1-24.3-38.7c-2.9-2.9-8.1-3.3-12.1-0.9c-7.8,4.6-21.1,13.9-31.8,21.4C424.6,940,419.9,943.3,416.4,945.6
						L416.4,945.6z"/>
					<path class="st42" d="M423.1,946.6c8.6-5.8,27.1-19.1,36.3-24.6c3.9-2.3,8.7-1.9,11.6,0.9c5.6,5.6,13,18.9,19.7,31.3
						c2,3.7,0.3,8.5-3.8,10.9l-34.4,19.4c-4.2,2.4-9.4,1.5-11.9-2l-19.6-27C418.9,952.8,419.9,948.7,423.1,946.6z"/>
					<g class="st43">
						<path class="st9" d="M512.3,909.8c-1.9,1.1-2.2,3.2-0.7,4.8L524,927c1.5,1.6,4.4,1.9,6.3,0.8l215.8-124.7
							c1.9-1.1,2.5-3.5,1.4-5.4l-5.4-8.9c-1.1-1.9-3.7-2.6-5.6-1.5L512.3,909.8z"/>
					</g>
				</g>
				<g>
					<path class="st9" d="M549.7,1064.6c0,0-0.1,0-0.1,0.1l-43.1,24.3c-6.2,3.5-13.8,2.2-17.6-3l-24.5-33.8c-1.5-2-2-4.5-1.6-7
						c0.5-2.8,2.2-5.4,4.7-7.1l0,0c3.5-2.3,8.2-5.6,13.4-9.3c11.3-7.9,24.2-16.9,32.1-21.5c0.1,0,0.1-0.1,0.2-0.1
						c5.7-3.3,12.6-2.6,16.8,1.6c7,7,15.8,22.7,25,39.6C558.1,1053.9,555.7,1061.2,549.7,1064.6z M469.8,1041.5
						c-1.6,1.1-2.7,2.7-3,4.5c-0.3,1.4,0,2.8,0.9,4l24.5,33.8c2.6,3.6,7.9,4.4,12.3,1.9l43.1-24.3c0,0,0.1,0,0.1,0
						c4.1-2.4,5.8-7.2,3.9-10.8c-9-16.6-17.7-32.1-24.3-38.7c-2.9-2.9-8.1-3.3-12.1-0.9c-7.8,4.6-21.1,13.9-31.8,21.4
						C478.1,1035.8,473.3,1039.1,469.8,1041.5L469.8,1041.5z"/>
					<path class="st42" d="M476.5,1042.4c8.6-5.8,27.1-19.1,36.3-24.6c3.9-2.3,8.7-1.9,11.6,0.9c5.6,5.6,13,18.9,19.7,31.3
						c2,3.7,0.3,8.5-3.8,10.9l-34.4,19.4c-4.2,2.4-9.4,1.5-11.9-2l-19.6-27C472.3,1048.6,473.3,1044.6,476.5,1042.4z"/>
					<g class="st43">
						<path class="st9" d="M565.7,1005.6c-1.9,1.1-2.2,3.2-0.7,4.8l12.4,12.5c1.5,1.6,4.4,1.9,6.3,0.8L799.5,899
							c1.9-1.1,2.5-3.5,1.4-5.4l-5.4-8.9c-1.1-1.9-3.7-2.6-5.6-1.5L565.7,1005.6z"/>
					</g>
				</g>
			</g>
		</g>
		<g>
			<path class="st9" d="M864.4,306.3c-0.2-0.9-0.7-1.6-1.6-2c-24.9-11.6-40-41.4-46.3-56.5c-0.4-0.9-1.3-1.5-2.3-1.4
				c-1,0.1-1.8,0.8-2,1.8c-5.6,28.5-37.1,48.5-49.1,55.2c-0.9,0.5-1.4,1.4-1.4,2.4c0,1,0.5,1.9,1.3,2.4c28,16.9,44.3,68.1,49.7,87.8
				c0.2,0.6,0.8,1.1,1.5,1c0.7,0,1.2-0.6,1.3-1.2c5.7-41,38.1-76.9,48.1-87.1C864.3,308.1,864.6,307.2,864.4,306.3z"/>
			<path class="st9" d="M952.4,226.5c-0.1-0.6-0.5-1.2-1.1-1.5c-18-8.4-28.9-29.9-33.5-40.8c-0.3-0.7-1-1.1-1.7-1
				c-0.7,0.1-1.3,0.6-1.4,1.3c-4,20.6-26.9,35.1-35.5,39.9c-0.6,0.3-1,1-1,1.7c0,0.7,0.4,1.4,1,1.8c20.2,12.3,32,49.2,36,63.5
				c0.1,0.5,0.6,0.8,1.1,0.8c0.5,0,0.9-0.4,0.9-0.9c4.1-29.6,27.5-55.6,34.8-63C952.3,227.8,952.5,227.1,952.4,226.5z"/>
		</g>
		<g>
			<path class="st7" d="M1599.5,284.2c-1.3,0-2.5-0.4-3.6-1.3c-2.3-2-2.5-5.4-0.5-7.7l82.1-93.7c1-1.2,2.5-1.9,4.1-1.9h307.5
				c3,0,5.4,2.4,5.4,5.4c0,3-2.4,5.4-5.4,5.4h-305l-80.5,91.9C1602.6,283.5,1601.1,284.2,1599.5,284.2z"/>
			<path class="st7" d="M1989.1,242.7h-293.8c-3,0-5.4-2.4-5.4-5.4c0-3,2.4-5.4,5.4-5.4h293.8c3,0,5.4,2.4,5.4,5.4
				C1994.5,240.2,1992.1,242.7,1989.1,242.7z"/>
			<path class="st7" d="M1989.1,294.9h-293.8c-3,0-5.4-2.4-5.4-5.4c0-3,2.4-5.4,5.4-5.4h293.8c3,0,5.4,2.4,5.4,5.4
				C1994.5,292.5,1992.1,294.9,1989.1,294.9z"/>
		</g>
		<g>
			<g>
				<linearGradient id="SVGID_34_" gradientUnits="userSpaceOnUse" x1="1078.7518" y1="1059.5007" x2="1160.7518" y2="854.5006">
					<stop  offset="0" style="stop-color:#4042E2"/>
					<stop  offset="1" style="stop-color:#4F52FF"/>
				</linearGradient>
				<rect x="1074.2" y="1032.8" class="st45" width="17.4" height="32.6"/>
				<linearGradient id="SVGID_35_" gradientUnits="userSpaceOnUse" x1="1210.0759" y1="1112.0305" x2="1292.0762" y2="907.0299">
					<stop  offset="0" style="stop-color:#4042E2"/>
					<stop  offset="1" style="stop-color:#4F52FF"/>
				</linearGradient>
				<rect x="1228.7" y="1032.8" class="st46" width="13.1" height="32.6"/>
			</g>
			<linearGradient id="SVGID_36_" gradientUnits="userSpaceOnUse" x1="1031.0425" y1="591.0489" x2="980.0427" y2="677.0488">
				<stop  offset="0" style="stop-color:#09005D"/>
				<stop  offset="1" style="stop-color:#1A0F91"/>
			</linearGradient>
			<polygon class="st47" points="998.2,805.7 840.4,762.4 845.7,744.3 1005.4,787.7 			"/>
			<linearGradient id="SVGID_37_" gradientUnits="userSpaceOnUse" x1="1123.5747" y1="1053.4625" x2="1214.5745" y2="847.463">
				<stop  offset="0" style="stop-color:#4042E2"/>
				<stop  offset="1" style="stop-color:#4F52FF"/>
			</linearGradient>
			<path class="st48" d="M1265,1029.8c0,4-2.9,7.2-6.4,7.2h-249.2c-3.5,0-6.4-3.2-6.4-7.2l0,0c0-4,2.9-7.2,6.4-7.2h249.2
				C1262.2,1022.6,1265,1025.8,1265,1029.8L1265,1029.8z"/>
			<linearGradient id="SVGID_38_" gradientUnits="userSpaceOnUse" x1="1327.9481" y1="879.6334" x2="1220.9482" y2="954.6332">
				<stop  offset="0" style="stop-color:#4042E2"/>
				<stop  offset="1" style="stop-color:#4F52FF"/>
			</linearGradient>
			<path class="st49" d="M1012.7,1398.4c0,4-3.2,7.2-7.2,7.2l0,0c-4,0-7.2-3.2-7.2-7.2V813c0-4,3.2-7.2,7.2-7.2l0,0
				c4,0,7.2,3.2,7.2,7.2V1398.4z"/>
			<g>
				<linearGradient id="SVGID_39_" gradientUnits="userSpaceOnUse" x1="634.655" y1="1300.0007" x2="845.7061" y2="1300.0007">
					<stop  offset="0" style="stop-color:#4042E2"/>
					<stop  offset="1" style="stop-color:#4F52FF"/>
				</linearGradient>
				<polygon class="st50" points="634.7,1256.9 782.8,1365.3 845.7,1300.6 697.1,1234.7 				"/>
				<linearGradient id="SVGID_40_" gradientUnits="userSpaceOnUse" x1="585.7837" y1="1211.4786" x2="954.5218" y2="1211.4786">
					<stop  offset="0" style="stop-color:#09005D"/>
					<stop  offset="1" style="stop-color:#1A0F91"/>
				</linearGradient>
				<path class="st51" d="M912.4,1161.5l-326.3-6.6c0,0-2.7,67.2,6.7,91.8c9.5,24.6,93.8,32.2,115.5,0
					c12.1-17.9,32.5-32.4,48.2-41.6c12.8-7.6,27.2-10.9,42-9.6l155.9,13.4v-15.1L912.4,1161.5z"/>
				<g>
					
						<ellipse transform="matrix(0.4719 -0.8817 0.8817 0.4719 -718.2173 1213.6273)" class="st3" cx="653.9" cy="1206.3" rx="28.4" ry="28.4"/>
					<linearGradient id="SVGID_41_" gradientUnits="userSpaceOnUse" x1="629.2919" y1="1206.4631" x2="678.8211" y2="1206.4631">
						<stop  offset="0" style="stop-color:#4042E2"/>
						<stop  offset="1" style="stop-color:#4F52FF"/>
					</linearGradient>
					<circle class="st52" cx="654.1" cy="1206.5" r="24.8"/>
				</g>
				<linearGradient id="SVGID_42_" gradientUnits="userSpaceOnUse" x1="1057.1179" y1="1313.5619" x2="444.1176" y2="954.5621">
					<stop  offset="0" style="stop-color:#4042E2"/>
					<stop  offset="1" style="stop-color:#4F52FF"/>
				</linearGradient>
				<path class="st53" d="M1101,1228.7c-2.9-6-124.6-72.7-163.7-94.1c-7.9-4.3-16.7-6.6-25.7-6.7l-267.7-3.5c-7-0.1-13.5-3.9-17-9.9
					l-89-153L513.9,875c-3.6-12.9-16.8-20.6-29.8-17.3l-2.5,0.6c-13,3.3-20.9,16.4-17.8,29.5l18.4,77.5l95.6,192.4
					c3.3,6.6,10,10.9,17.4,11.1l295.2,7c7.9,0.2,15.7,2.1,22.8,5.5l149.9,72.8c10.1,4.9,22.1,3.3,30.6-4.1
					C1100.2,1244.4,1105.1,1237,1101,1228.7z"/>
				<path class="st4" d="M774.7,1047.8c-5-4.6-11.6-6.8-18.4-6.1l-186.1,18.9c-3.4,0.4-7.4,3.2-7.4,6.7v3.5c0,1.9,2.2,3.7,3.6,5
					c1.4,1.3,4,1.9,5.9,1.7l170-18.8c4.5-0.5,9.2,1,12.5,4.2c3.3,3.2,5.1,7.6,4.7,12.2l-4.7,62.2c5.3,11,12.1,10.8,17.3,7.9
					c5.4-2.9,8.7-8.5,8.9-14.6l1.3-64.8C782.4,1058.8,779.7,1052.3,774.7,1047.8z"/>
				<linearGradient id="SVGID_43_" gradientUnits="userSpaceOnUse" x1="508.7815" y1="1374.4283" x2="1031.204" y2="1374.4283">
					<stop  offset="0" style="stop-color:#09005D"/>
					<stop  offset="1" style="stop-color:#1A0F91"/>
				</linearGradient>
				<path class="st54" d="M1014.6,1426.7L1014.6,1426.7c-2,0-3.9,0.1-5.3-1.3c-1.4-1.4-2.1-2.8-2.1-4.8c0.6-31-26-70-48.3-97.9
					c-17.2-21.5-43.2-33.1-70.7-33.1h-22.1c-14.7,0-29.1,2.9-42.1,9.8L578.5,1427c-1,0.5-2.2-0.3-3.4-0.3h-49.8
					c-9.1,0-16.6,8.6-16.6,17.7c0,7.6,6.1,14.9,13.7,14.9h495c7.6,0,13.7-7.3,13.7-14.9C1031.2,1435.3,1023.8,1426.7,1014.6,1426.7z
					"/>
				<g>
					<path class="st3" d="M1006.8,1433.2h-45.7c-0.6,0-1.1-0.5-1.1-1.1s0.5-1.1,1.1-1.1h45.7c0.6,0,1.1,0.5,1.1,1.1
						S1007.4,1433.2,1006.8,1433.2z"/>
					<path class="st3" d="M932.8,1433.2h-111c-0.6,0-1.1-0.5-1.1-1.1s0.5-1.1,1.1-1.1h111c0.6,0,1.1,0.5,1.1,1.1
						S933.4,1433.2,932.8,1433.2z"/>
					<path class="st3" d="M773.9,1433.2H595.4c-0.6,0-1.1-0.5-1.1-1.1s0.5-1.1,1.1-1.1h178.5c0.6,0,1.1,0.5,1.1,1.1
						S774.5,1433.2,773.9,1433.2z"/>
				</g>
			</g>
			<linearGradient id="SVGID_44_" gradientUnits="userSpaceOnUse" x1="989.3414" y1="819.4899" x2="1017.6324" y2="819.4899">
				<stop  offset="0" style="stop-color:#09005D"/>
				<stop  offset="1" style="stop-color:#1A0F91"/>
			</linearGradient>
			<path class="st55" d="M1017.6,848.2c0,7-5.7,12.6-12.6,12.6h-3c-7,0-12.6-5.7-12.6-12.6v-57.4c0-7,5.7-12.6,12.6-12.6h3
				c7,0,12.6,5.7,12.6,12.6V848.2z"/>
			<linearGradient id="SVGID_45_" gradientUnits="userSpaceOnUse" x1="989.3414" y1="1041.4652" x2="1017.6324" y2="1041.4652">
				<stop  offset="0" style="stop-color:#09005D"/>
				<stop  offset="1" style="stop-color:#1A0F91"/>
			</linearGradient>
			<path class="st56" d="M1017.6,1070.2c0,7-5.7,12.6-12.6,12.6h-3c-7,0-12.6-5.7-12.6-12.6v-57.4c0-7,5.7-12.6,12.6-12.6h3
				c7,0,12.6,5.7,12.6,12.6V1070.2z"/>
			<g>
				<linearGradient id="SVGID_46_" gradientUnits="userSpaceOnUse" x1="1061.157" y1="1031.6722" x2="1106.8578" y2="1031.6722">
					<stop  offset="0" style="stop-color:#09005D"/>
					<stop  offset="1" style="stop-color:#1A0F91"/>
				</linearGradient>
				<path class="st57" d="M1106.9,1032.6c0,7.3-5.9,13.3-13.3,13.3h-19.2c-7.3,0-13.3-5.9-13.3-13.3v-1.8c0-7.3,5.9-13.3,13.3-13.3
					h19.2c7.3,0,13.3,5.9,13.3,13.3V1032.6z"/>
				<linearGradient id="SVGID_47_" gradientUnits="userSpaceOnUse" x1="1209.1406" y1="1031.6722" x2="1254.8414" y2="1031.6722">
					<stop  offset="0" style="stop-color:#09005D"/>
					<stop  offset="1" style="stop-color:#1A0F91"/>
				</linearGradient>
				<path class="st58" d="M1254.8,1032.6c0,7.3-5.9,13.3-13.3,13.3h-19.2c-7.3,0-13.3-5.9-13.3-13.3v-1.8c0-7.3,5.9-13.3,13.3-13.3
					h19.2c7.3,0,13.3,5.9,13.3,13.3V1032.6z"/>
			</g>
			
				<linearGradient id="SVGID_48_" gradientUnits="userSpaceOnUse" x1="1026.8793" y1="990.6091" x2="1058.202" y2="990.6091" gradientTransform="matrix(0.8895 -0.457 0.457 0.8895 -539.6718 358.8587)">
				<stop  offset="0" style="stop-color:#4042E2"/>
				<stop  offset="1" style="stop-color:#4F52FF"/>
			</linearGradient>
			<path class="st59" d="M883.9,814.1c4.6,9,1.9,19.6-5.6,23.4l0,0c-7.5,3.8-17.7-0.1-22.3-9.1l-59.2-115.3
				c-4.6-9-1.9-19.6,5.6-23.4l0,0c7.5-3.8,17.7,0.1,22.3,9.1L883.9,814.1z"/>
			<linearGradient id="SVGID_49_" gradientUnits="userSpaceOnUse" x1="792.2847" y1="772.3738" x2="860.8566" y2="772.3738">
				<stop  offset="0" style="stop-color:#09005D"/>
				<stop  offset="1" style="stop-color:#1A0F91"/>
			</linearGradient>
			<path class="st60" d="M795.1,707.8l-2.2,8.6c-1.1,4.5-0.6,8.9,1.4,13.1l45.1,95c3.3,6.9,10.3,12.3,18,12.3h3.5L795.1,707.8z"/>
			<g>
				<linearGradient id="SVGID_50_" gradientUnits="userSpaceOnUse" x1="1067.6857" y1="1119.8094" x2="1250.4889" y2="1119.8094">
					<stop  offset="0" style="stop-color:#4042E2"/>
					<stop  offset="1" style="stop-color:#4F52FF"/>
				</linearGradient>
				<path class="st61" d="M1250.5,1068.9c0-5.5-4.5-10-10-10h-162.7c-5.5,0-10,4.5-10,10v101.8c0,5.5,4.5,10,10,10h162.7
					c5.5,0,10-4.5,10-10V1068.9z"/>
				<path class="st3" d="M1233.6,1063.5h-149.1c-5.1,0-9.2,3.9-9.2,8.7v87c0,4.8,4.1,8.7,9.2,8.7h149.1c5.1,0,9.2-3.9,9.2-8.7v-87
					C1242.8,1067.4,1238.6,1063.5,1233.6,1063.5z"/>
			</g>
		</g>
		<g>
			<path class="st9" d="M831.6,685.6l-6.8-0.2l0,0c-1.6-0.1-2.8-1.4-2.8-3c0.1-1.6,1.4-2.8,3-2.8l0,0l6.9,0.3c1.6,0.1,2.8,1.4,2.7,3
				C834.5,684.4,833.2,685.6,831.6,685.6L831.6,685.6z"/>
			<path class="st9" d="M808.9,685.2l-6.8,0.1l0,0c-1.6,0-3-1.3-3-2.9c0-1.6,1.3-3,2.9-3l0,0l6.9-0.1c1.6,0,2.9,1.3,3,2.9
				C811.8,683.8,810.5,685.1,808.9,685.2L808.9,685.2z"/>
			<path class="st9" d="M786.2,685.9l-6.8,0.4l0,0c-1.7,0.1-3.1-1.1-3.2-2.8c-0.1-1.7,1.1-3.1,2.8-3.2l0,0l6.9-0.4
				c1.6-0.1,3.1,1.2,3.2,2.8C789.2,684.4,787.9,685.8,786.2,685.9L786.2,685.9z"/>
			<path class="st9" d="M763.6,687.8l-6.8,0.8l0,0c-1.7,0.2-3.2-1-3.4-2.7c-0.2-1.7,1-3.2,2.7-3.4l0,0l6.8-0.8
				c1.7-0.2,3.2,1,3.4,2.7C766.5,686.1,765.4,687.6,763.6,687.8L763.6,687.8z"/>
			<path class="st9" d="M741.2,690.8l-6.7,1.1l0,0c-1.7,0.3-3.3-0.9-3.6-2.6c-0.3-1.7,0.9-3.3,2.6-3.6l0,0l6.8-1.1
				c1.7-0.3,3.3,0.9,3.6,2.6C744.1,688.9,742.9,690.5,741.2,690.8L741.2,690.8z"/>
			<path class="st9" d="M718.9,695l-6.6,1.5l0,0c-1.7,0.4-3.4-0.7-3.8-2.4c-0.4-1.7,0.7-3.4,2.4-3.8l0,0l6.7-1.5
				c1.7-0.4,3.4,0.7,3.8,2.4C721.8,693,720.7,694.6,718.9,695L718.9,695z"/>
			<path class="st9" d="M696.9,700.4l-6.5,1.8l-0.1,0c-1.7,0.5-3.5-0.5-4-2.3c-0.5-1.7,0.5-3.5,2.3-4l0,0l6.7-1.8
				c1.7-0.5,3.5,0.5,4,2.3C699.7,698.1,698.7,699.9,696.9,700.4L696.9,700.4z"/>
			<path class="st9" d="M675.3,706.9l-6.4,2.2l-0.1,0c-1.7,0.6-3.6-0.3-4.2-2.1c-0.6-1.7,0.3-3.6,2.1-4.2l0,0l6.5-2.2
				c1.7-0.6,3.6,0.4,4.2,2.1C678,704.5,677,706.3,675.3,706.9L675.3,706.9z"/>
			<path class="st9" d="M654,714.6l-6.3,2.5l-0.1,0c-1.7,0.7-3.7-0.2-4.4-1.9c-0.7-1.7,0.2-3.7,1.9-4.4l0,0l6.4-2.5
				c1.7-0.7,3.7,0.2,4.4,1.9C656.6,712,655.7,713.9,654,714.6L654,714.6z"/>
			<path class="st9" d="M633.1,723.4l-6.2,2.8l0,0c-1.7,0.8-3.7,0-4.5-1.7c-0.8-1.7,0-3.7,1.7-4.5l0,0l6.3-2.9
				c1.7-0.8,3.7,0,4.5,1.7C635.6,720.6,634.9,722.6,633.1,723.4L633.1,723.4z"/>
			<path class="st9" d="M612.7,733.2l-6,3.2l0,0c-1.7,0.9-3.8,0.2-4.6-1.4s-0.2-3.8,1.4-4.6l0,0l6.1-3.2c1.7-0.9,3.7-0.2,4.6,1.4
				C615.1,730.3,614.4,732.3,612.7,733.2L612.7,733.2z"/>
			<path class="st9" d="M592.9,744.1l-5.8,3.5l0,0c-1.6,1-3.8,0.4-4.7-1.2c-1-1.6-0.4-3.8,1.2-4.7l0,0l5.9-3.5
				c1.6-1,3.8-0.4,4.7,1.2C595.1,741,594.6,743.1,592.9,744.1L592.9,744.1z"/>
			<path class="st9" d="M573.6,756l-5.7,3.8l0,0c-1.6,1.1-3.8,0.6-4.8-1c-1.1-1.6-0.6-3.8,1-4.8l0,0l5.8-3.8c1.6-1.1,3.8-0.6,4.8,1
				C575.7,752.8,575.2,754.9,573.6,756L573.6,756z"/>
			<path class="st9" d="M555,768.9l-5.5,4l0,0c-1.6,1.1-3.7,0.8-4.9-0.7c-1.1-1.6-0.8-3.7,0.7-4.9l0,0l5.6-4.1
				c1.6-1.1,3.7-0.8,4.9,0.7C556.9,765.5,556.6,767.7,555,768.9L555,768.9z"/>
			<path class="st9" d="M537,782.6l-5.3,4.3l0,0c-1.5,1.2-3.7,1-5-0.5c-1.2-1.5-1-3.7,0.5-5l0,0l5.3-4.4c1.5-1.2,3.7-1,4.9,0.5
				C538.7,779.2,538.5,781.4,537,782.6L537,782.6z"/>
			<path class="st9" d="M519.7,797.3l-5,4.6l0,0c-1.4,1.3-3.7,1.2-5-0.2c-1.3-1.4-1.2-3.7,0.2-5l0,0l5.1-4.6c1.4-1.3,3.7-1.2,5,0.3
				C521.3,793.7,521.2,795.9,519.7,797.3L519.7,797.3z"/>
			<path class="st9" d="M503.2,812.8l-4.8,4.8l0,0c-1.4,1.4-3.6,1.4-5,0c-1.4-1.4-1.4-3.6,0-5l0,0l4.9-4.9c1.4-1.4,3.6-1.4,5,0
				C504.6,809.1,504.6,811.4,503.2,812.8L503.2,812.8z"/>
			<path class="st9" d="M487.5,829.1l-4.5,5l0,0c-1.3,1.5-3.6,1.6-5.1,0.3c-1.5-1.3-1.6-3.6-0.3-5.1l0,0l4.6-5.1
				c1.3-1.5,3.6-1.6,5.1-0.3S488.9,827.6,487.5,829.1L487.5,829.1z"/>
			<path class="st9" d="M472.6,846.2l-4.3,5.3l0,0c-1.3,1.5-3.5,1.8-5.1,0.5c-1.5-1.3-1.8-3.5-0.5-5.1l0,0l4.4-5.3
				c1.3-1.5,3.5-1.8,5.1-0.5C473.7,842.3,473.9,844.6,472.6,846.2L472.6,846.2z"/>
			<path class="st9" d="M458.7,864l-4,5.5l0,0c-1.2,1.6-3.5,2-5.1,0.8c-1.6-1.2-2-3.5-0.8-5.1l0,0l4.1-5.6c1.2-1.6,3.5-2,5.1-0.8
				C459.5,860,459.9,862.3,458.7,864L458.7,864z"/>
			<path class="st9" d="M445.6,882.5l-3.7,5.7l0,0c-1.1,1.7-3.4,2.2-5.1,1.1c-1.7-1.1-2.2-3.4-1.1-5.1l0,0l3.8-5.8
				c1.1-1.7,3.4-2.1,5.1-1C446.3,878.5,446.8,880.7,445.6,882.5L445.6,882.5z"/>
			<path class="st9" d="M433.6,901.6l-3.4,5.9l0,0.1c-1,1.8-3.3,2.3-5,1.3c-1.8-1-2.3-3.3-1.3-5l0,0l3.5-6c1-1.7,3.3-2.3,5-1.3
				C434,897.6,434.6,899.8,433.6,901.6L433.6,901.6z"/>
			<path class="st9" d="M422.5,921.3l-3.1,6l0,0.1c-0.9,1.8-3.2,2.5-5,1.6c-1.8-0.9-2.5-3.2-1.6-5l0,0l3.2-6.1
				c0.9-1.8,3.2-2.5,5-1.6C422.8,917.3,423.5,919.5,422.5,921.3L422.5,921.3z"/>
			<path class="st9" d="M412.6,941.7l-2.7,6.2l0,0.1c-0.8,1.9-3,2.7-4.9,1.9c-1.9-0.8-2.7-3-1.9-4.9l0,0l2.8-6.3
				c0.8-1.9,3-2.7,4.9-1.9C412.6,937.5,413.5,939.7,412.6,941.7L412.6,941.7z"/>
			<path class="st9" d="M403.9,962.5l-2.3,6.4l0,0.1c-0.7,1.9-2.9,2.9-4.8,2.2c-1.9-0.7-2.9-2.9-2.2-4.8l0,0l2.4-6.5
				c0.7-1.9,2.9-2.9,4.8-2.2C403.7,958.3,404.6,960.5,403.9,962.5L403.9,962.5z"/>
			<path class="st9" d="M396.6,983.8l-1.9,6.5l0,0.1c-0.6,2-2.7,3.1-4.7,2.6c-2-0.6-3.1-2.7-2.6-4.7l0,0l1.9-6.6
				c0.6-2,2.7-3.1,4.7-2.5C396.1,979.7,397.2,981.8,396.6,983.8L396.6,983.8z"/>
			<path class="st9" d="M390.9,1005.6l-1.4,6.6l0,0.1c-0.4,2-2.4,3.4-4.5,2.9c-2-0.4-3.4-2.4-2.9-4.5l0,0l1.4-6.8
				c0.4-2,2.4-3.4,4.5-2.9C390,1001.5,391.3,1003.5,390.9,1005.6L390.9,1005.6z"/>
			<path class="st9" d="M387,1027.8l-0.8,6.7l0,0.1c-0.2,2.1-2.1,3.6-4.2,3.3c-2.1-0.2-3.6-2.1-3.3-4.2l0,0l0.8-6.9
				c0.2-2.1,2.1-3.6,4.2-3.3C385.8,1023.7,387.3,1025.6,387,1027.8L387,1027.8z"/>
			<path class="st9" d="M385.2,1050.1l-0.1,6.7l0,0.1c0,2.1-1.8,3.8-3.9,3.8c-2.1,0-3.8-1.8-3.8-3.9l0,0l0.1-7
				c0-2.1,1.8-3.8,3.9-3.8c2.1,0,3.8,1.8,3.8,3.9L385.2,1050.1z"/>
			<path class="st9" d="M385.7,1072.5l0.7,6.7l0,0.1c0.2,2.1-1.3,4-3.5,4.2c-2.1,0.2-4-1.3-4.2-3.5l0,0l-0.7-7
				c-0.2-2.1,1.3-4,3.5-4.2c2.1-0.2,4,1.3,4.2,3.5L385.7,1072.5z"/>
			<path class="st9" d="M388.8,1094.6l1.5,6.5l0,0.1c0.5,2.1-0.8,4.2-2.9,4.6c-2.1,0.5-4.2-0.8-4.6-2.9l0,0l-1.5-6.8
				c-0.5-2.1,0.8-4.2,2.9-4.6c2.1-0.5,4.2,0.8,4.6,2.9L388.8,1094.6z"/>
			<path class="st9" d="M394.7,1116.1l2.3,6.3l0.1,0.1c0.7,2-0.3,4.3-2.3,5c-2,0.7-4.3-0.3-5-2.3l0,0l-2.4-6.6c-0.7-2,0.3-4.3,2.3-5
				c2-0.7,4.3,0.3,5,2.3L394.7,1116.1z"/>
			<path class="st9" d="M403.4,1136.7l3.1,5.9l0.1,0.1c1,1.9,0.3,4.3-1.7,5.3c-1.9,1-4.3,0.3-5.3-1.7l0,0l-3.2-6.2
				c-1-1.9-0.2-4.3,1.7-5.3c1.9-1,4.3-0.2,5.3,1.7L403.4,1136.7z"/>
			<path class="st9" d="M414.5,1156l3.8,5.5l0.1,0.1c1.2,1.8,0.8,4.3-1,5.5c-1.8,1.2-4.3,0.8-5.5-1l0,0l-3.9-5.8
				c-1.2-1.8-0.7-4.2,1-5.5c1.8-1.2,4.2-0.8,5.5,1L414.5,1156z"/>
			<path class="st9" d="M427.8,1174.1l4.3,5.1l0.1,0.1c1.4,1.7,1.2,4.2-0.5,5.6c-1.7,1.4-4.2,1.2-5.6-0.5l0,0l-4.5-5.3
				c-1.4-1.7-1.2-4.2,0.5-5.6C423.8,1172.1,426.3,1172.3,427.8,1174.1L427.8,1174.1z"/>
			<path class="st9" d="M442.8,1190.7l4.8,4.7l0.1,0.1c1.6,1.5,1.6,4.1,0,5.6c-1.5,1.6-4.1,1.6-5.6,0l0,0l-4.9-4.9
				c-1.6-1.5-1.6-4.1,0-5.6C438.7,1189.1,441.2,1189.1,442.8,1190.7L442.8,1190.7z"/>
			<path class="st9" d="M459.2,1206.1l5.2,4.4l0.1,0.1c1.7,1.4,1.9,4,0.5,5.6c-1.4,1.7-4,1.9-5.6,0.5l0,0l-5.3-4.5
				c-1.7-1.4-1.9-4-0.5-5.6C455,1204.8,457.5,1204.6,459.2,1206.1L459.2,1206.1z"/>
			<path class="st9" d="M476.8,1220.3l5.4,4l0.1,0c1.8,1.3,2.2,3.8,0.8,5.6c-1.3,1.8-3.8,2.2-5.6,0.8l0,0l-5.6-4.1
				c-1.8-1.3-2.2-3.8-0.8-5.6C472.4,1219.3,474.9,1218.9,476.8,1220.3L476.8,1220.3z"/>
			<path class="st9" d="M495.2,1233.3l5.7,3.7l0.1,0c1.9,1.2,2.4,3.7,1.2,5.6c-1.2,1.9-3.7,2.4-5.6,1.2l0,0l-5.8-3.8
				c-1.9-1.2-2.4-3.7-1.2-5.6C490.8,1232.6,493.3,1232.1,495.2,1233.3L495.2,1233.3z"/>
			<path class="st9" d="M514.3,1245.4l5.9,3.4l0,0c1.9,1.1,2.6,3.6,1.4,5.6c-1.1,1.9-3.6,2.6-5.6,1.4l0,0l-5.9-3.5
				c-1.9-1.1-2.6-3.6-1.4-5.6C509.8,1244.9,512.3,1244.3,514.3,1245.4L514.3,1245.4z"/>
			<path class="st9" d="M534,1256.6l6,3.2l0,0c2,1.1,2.7,3.6,1.7,5.5c-1.1,2-3.6,2.7-5.5,1.7l0,0l-6.1-3.3c-2-1.1-2.7-3.6-1.7-5.5
				C529.5,1256.3,532,1255.5,534,1256.6L534,1256.6z"/>
			<path class="st9" d="M554.1,1267.1l6.1,3l0,0c2,1,2.9,3.5,1.9,5.5c-1,2-3.5,2.9-5.5,1.9l0,0l-6.2-3c-2-1-2.9-3.5-1.9-5.5
				C549.6,1266.9,552,1266.1,554.1,1267.1L554.1,1267.1z"/>
			<path class="st9" d="M574.6,1276.8l6.2,2.8l0,0c2.1,0.9,3,3.4,2.1,5.5c-0.9,2.1-3.4,3-5.5,2.1l0,0l-6.3-2.8
				c-2.1-0.9-3-3.4-2.1-5.5C570,1276.8,572.5,1275.8,574.6,1276.8L574.6,1276.8z"/>
			<path class="st9" d="M595.4,1285.7l6.3,2.5l0,0c2.1,0.9,3.2,3.3,2.3,5.4c-0.9,2.1-3.3,3.2-5.4,2.3l0,0l-6.4-2.6
				c-2.1-0.9-3.2-3.3-2.3-5.4C590.8,1285.9,593.2,1284.9,595.4,1285.7L595.4,1285.7z"/>
			<path class="st9" d="M616.5,1293.9l6.4,2.3l0,0c2.2,0.8,3.3,3.2,2.5,5.4c-0.8,2.2-3.2,3.3-5.4,2.5l0,0l-6.5-2.4
				c-2.2-0.8-3.3-3.2-2.5-5.4C611.9,1294.3,614.3,1293.1,616.5,1293.9L616.5,1293.9z"/>
			<path class="st9" d="M637.9,1301.4l6.5,2.1l0,0c2.2,0.7,3.4,3.1,2.7,5.3c-0.7,2.2-3.1,3.4-5.3,2.7l0,0l-6.6-2.1
				c-2.2-0.7-3.4-3.1-2.7-5.3C633.3,1301.9,635.7,1300.7,637.9,1301.4L637.9,1301.4z"/>
			<path class="st9" d="M659.6,1308.1l6.5,1.9l0,0c2.2,0.6,3.6,3,2.9,5.2c-0.6,2.2-3,3.6-5.2,2.9l0,0l-6.6-1.9
				c-2.2-0.6-3.5-3-2.9-5.2C655,1308.7,657.3,1307.4,659.6,1308.1L659.6,1308.1z"/>
			<path class="st9" d="M681.5,1314l6.6,1.6l0,0c2.3,0.6,3.7,2.9,3.1,5.1c-0.6,2.3-2.9,3.7-5.1,3.1l0,0l-6.7-1.7
				c-2.3-0.6-3.7-2.9-3.1-5.1C676.9,1314.8,679.2,1313.4,681.5,1314L681.5,1314z"/>
			<path class="st9" d="M703.6,1319.1l6.7,1.4l0,0c2.3,0.5,3.8,2.7,3.3,5.1c-0.5,2.3-2.7,3.8-5.1,3.3l0,0l-6.7-1.4
				c-2.3-0.5-3.8-2.8-3.3-5.1C699,1320.1,701.2,1318.6,703.6,1319.1L703.6,1319.1z"/>
			<path class="st9" d="M725.8,1323.5l6.7,1.2l0,0c2.3,0.4,3.9,2.6,3.5,5c-0.4,2.3-2.6,3.9-5,3.5l0,0l-6.8-1.2
				c-2.3-0.4-3.9-2.6-3.5-5C721.2,1324.7,723.4,1323.1,725.8,1323.5L725.8,1323.5z"/>
			<path class="st9" d="M748.2,1327.1l6.7,0.9l0,0c2.4,0.3,4,2.5,3.7,4.9c-0.3,2.4-2.5,4-4.9,3.7l0,0l-6.8-1c-2.4-0.3-4-2.5-3.7-4.9
				C743.6,1328.4,745.8,1326.8,748.2,1327.1L748.2,1327.1z"/>
			<path class="st9" d="M770.7,1329.9l6.8,0.7l0,0c2.4,0.2,4.1,2.4,3.9,4.8c-0.2,2.4-2.4,4.1-4.8,3.9l0,0l-6.9-0.7
				c-2.4-0.2-4.1-2.4-3.9-4.8C766.1,1331.4,768.3,1329.7,770.7,1329.9L770.7,1329.9z"/>
			<path class="st9" d="M793.3,1332l6.8,0.5l0,0c2.4,0.2,4.2,2.2,4.1,4.6c-0.2,2.4-2.2,4.2-4.6,4.1l0,0l-6.9-0.5
				c-2.4-0.2-4.2-2.2-4-4.6C788.8,1333.6,790.8,1331.8,793.3,1332L793.3,1332z"/>
			<path class="st9" d="M815.9,1333.2l6.8,0.2l0,0c2.4,0.1,4.3,2.1,4.2,4.5c-0.1,2.4-2.1,4.3-4.5,4.2l0,0l-6.9-0.2
				c-2.4-0.1-4.3-2.1-4.2-4.5C811.4,1335,813.5,1333.1,815.9,1333.2L815.9,1333.2z"/>
			<path class="st9" d="M838.6,1333.6l6.8,0l0,0c2.4,0,4.4,2,4.4,4.4c0,2.4-2,4.4-4.4,4.4h0l-6.9,0c-2.4,0-4.4-2-4.4-4.4
				C834.1,1335.6,836.1,1333.6,838.6,1333.6L838.6,1333.6z"/>
			<path class="st9" d="M861.2,1333.3l6.8-0.3l0,0c2.4-0.1,4.5,1.8,4.6,4.3c0.1,2.4-1.8,4.5-4.3,4.6l0,0l-6.9,0.3
				c-2.4,0.1-4.5-1.8-4.6-4.3C856.8,1335.4,858.8,1333.4,861.2,1333.3L861.2,1333.3z"/>
			<path class="st9" d="M883.9,1332.1l6.8-0.5l0,0c2.5-0.2,4.6,1.7,4.8,4.1c0.2,2.5-1.7,4.6-4.1,4.8l0,0l-6.9,0.5
				c-2.4,0.2-4.6-1.7-4.8-4.1C879.5,1334.4,881.4,1332.3,883.9,1332.1L883.9,1332.1z"/>
			<path class="st9" d="M906.4,1330.2l6.8-0.7l0,0c2.5-0.3,4.7,1.5,4.9,4c0.3,2.5-1.5,4.7-4,4.9l0,0l-6.9,0.7
				c-2.5,0.3-4.7-1.5-4.9-4C902.2,1332.6,903.9,1330.4,906.4,1330.2L906.4,1330.2z"/>
			<path class="st9" d="M928.9,1327.4l6.7-1l0,0c2.4-0.4,4.7,1.3,5.1,3.8c0.4,2.4-1.3,4.7-3.8,5.1l-6.8,1c-2.5,0.4-4.7-1.3-5.1-3.8
				C924.7,1330,926.4,1327.8,928.9,1327.4L928.9,1327.4L928.9,1327.4z"/>
			<path class="st9" d="M951.3,1323.8l6.7-1.2l0,0c2.4-0.4,4.8,1.2,5.2,3.6c0.4,2.4-1.2,4.8-3.6,5.2l-6.8,1.3
				c-2.4,0.4-4.8-1.2-5.2-3.6C947.2,1326.6,948.8,1324.3,951.3,1323.8L951.3,1323.8L951.3,1323.8z"/>
			<path class="st9" d="M973.5,1319.5l6.6-1.5l0,0c2.4-0.5,4.8,1,5.3,3.4c0.5,2.4-1,4.8-3.4,5.3l-6.7,1.5c-2.4,0.5-4.8-1-5.3-3.4
				C969.5,1322.4,971.1,1320,973.5,1319.5L973.5,1319.5L973.5,1319.5z"/>
			<path class="st9" d="M995.6,1314.3l6.6-1.7l0,0c2.4-0.6,4.8,0.8,5.4,3.2c0.6,2.4-0.8,4.8-3.2,5.4l-6.7,1.7
				c-2.4,0.6-4.8-0.8-5.4-3.2C991.7,1317.3,993.1,1314.9,995.6,1314.3L995.6,1314.3L995.6,1314.3z"/>
			<path class="st9" d="M1017.4,1308.3l6.5-2l0,0c2.3-0.7,4.8,0.6,5.5,3c0.7,2.3-0.6,4.8-3,5.5l-6.6,2c-2.3,0.7-4.8-0.6-5.5-3
				C1013.7,1311.5,1015,1309,1017.4,1308.3L1017.4,1308.3L1017.4,1308.3z"/>
			<path class="st9" d="M1039,1301.5l6.4-2.2l0,0c2.3-0.8,4.8,0.4,5.6,2.7c0.8,2.3-0.4,4.8-2.7,5.6l-6.5,2.2
				c-2.3,0.8-4.8-0.4-5.6-2.7C1035.4,1304.8,1036.7,1302.3,1039,1301.5L1039,1301.5L1039,1301.5z"/>
			<path class="st9" d="M1060.4,1293.9l6.4-2.4l0,0c2.3-0.9,4.8,0.3,5.7,2.5c0.9,2.3-0.3,4.8-2.5,5.7l-6.4,2.5
				c-2.3,0.9-4.8-0.3-5.7-2.5C1056.9,1297.3,1058.1,1294.8,1060.4,1293.9L1060.4,1293.9L1060.4,1293.9z"/>
			<path class="st9" d="M1081.4,1285.6l6.3-2.6l0,0c2.2-0.9,4.8,0.1,5.7,2.3c0.9,2.2-0.1,4.8-2.3,5.7l-6.3,2.7
				c-2.2,0.9-4.8-0.1-5.7-2.3C1078.1,1289.1,1079.2,1286.6,1081.4,1285.6L1081.4,1285.6L1081.4,1285.6z"/>
			<path class="st9" d="M1102.2,1276.5l6.2-2.9l0,0c2.2-1,4.8-0.1,5.8,2.1c1,2.2,0.1,4.8-2.1,5.8l-6.2,2.9c-2.2,1-4.8,0.1-5.8-2.1
				C1099,1280.2,1100,1277.6,1102.2,1276.5L1102.2,1276.5L1102.2,1276.5z"/>
			<path class="st9" d="M1122.6,1266.7l6.1-3.1l0,0c2.1-1.1,4.7-0.2,5.8,1.9c1.1,2.1,0.2,4.7-1.9,5.8l-6.1,3.1
				c-2.1,1.1-4.8,0.2-5.8-1.9C1119.6,1270.5,1120.5,1267.8,1122.6,1266.7L1122.6,1266.7L1122.6,1266.7z"/>
			<path class="st9" d="M1142.7,1256.2l6-3.3l0,0c2.1-1.2,4.7-0.4,5.9,1.7c1.2,2.1,0.4,4.7-1.7,5.9l-6,3.3c-2.1,1.2-4.7,0.4-5.9-1.7
				S1140.6,1257.4,1142.7,1256.2L1142.7,1256.2L1142.7,1256.2z"/>
			<path class="st9" d="M1162.4,1245l5.8-3.5l0,0c2-1.2,4.7-0.6,5.9,1.5c1.2,2,0.6,4.7-1.5,5.9l-5.9,3.6c-2,1.2-4.7,0.6-5.9-1.5
				C1159.7,1248.9,1160.3,1246.3,1162.4,1245L1162.4,1245L1162.4,1245z"/>
			<path class="st9" d="M1181.7,1233.1l5.7-3.7l0,0c2-1.3,4.6-0.7,5.9,1.3c1.3,2,0.7,4.6-1.3,5.9l-5.8,3.8c-2,1.3-4.6,0.7-5.9-1.3
				C1179.1,1237.1,1179.7,1234.4,1181.7,1233.1L1181.7,1233.1L1181.7,1233.1z"/>
			<path class="st9" d="M1200.6,1220.5l5.6-3.9l0,0c1.9-1.4,4.6-0.9,6,1.1c1.4,1.9,0.9,4.6-1.1,5.9l-5.6,4c-1.9,1.4-4.6,0.9-6-1
				C1198.2,1224.6,1198.6,1221.9,1200.6,1220.5L1200.6,1220.5L1200.6,1220.5z"/>
			<path class="st9" d="M1219,1207.3l5.4-4.1l0,0c1.9-1.4,4.5-1,6,0.8c1.4,1.9,1,4.5-0.8,6l-5.5,4.1c-1.9,1.4-4.6,1-6-0.8
				C1216.7,1211.4,1217.1,1208.8,1219,1207.3L1219,1207.3L1219,1207.3z"/>
			<path class="st9" d="M1237,1193.5l5.3-4.3l0,0c1.8-1.5,4.5-1.2,6,0.6c1.5,1.8,1.2,4.5-0.6,6l-5.4,4.3c-1.8,1.5-4.5,1.2-6-0.6
				C1234.8,1197.7,1235.1,1195,1237,1193.5L1237,1193.5L1237,1193.5z"/>
			<path class="st9" d="M1254.4,1179l5.1-4.5l0,0c1.8-1.5,4.4-1.3,6,0.4c1.5,1.8,1.3,4.4-0.4,6l-5.2,4.5c-1.8,1.5-4.4,1.3-6-0.4
				C1252.5,1183.3,1252.6,1180.6,1254.4,1179L1254.4,1179L1254.4,1179z"/>
			<path class="st9" d="M1271.4,1163.9l5-4.6l0,0c1.7-1.6,4.4-1.5,5.9,0.2c1.6,1.7,1.5,4.4-0.2,5.9l-5,4.7c-1.7,1.6-4.4,1.5-6-0.2
				C1269.6,1168.2,1269.6,1165.6,1271.4,1163.9L1271.4,1163.9L1271.4,1163.9z"/>
			<path class="st9" d="M1287.8,1148.3l4.8-4.8l0,0c1.6-1.6,4.3-1.6,5.9,0c1.6,1.6,1.6,4.3,0,5.9l-4.9,4.9c-1.6,1.6-4.3,1.6-5.9,0
				C1286.1,1152.6,1286.1,1150,1287.8,1148.3L1287.8,1148.3L1287.8,1148.3z"/>
			<path class="st9" d="M1303.6,1132.1l4.6-5l0,0c1.6-1.7,4.2-1.8,5.9-0.2c1.7,1.6,1.8,4.2,0.2,5.9l-4.7,5c-1.6,1.7-4.2,1.8-5.9,0.2
				C1302.1,1136.4,1302,1133.8,1303.6,1132.1L1303.6,1132.1L1303.6,1132.1z"/>
			<path class="st9" d="M1318.8,1115.3l4.5-5.1l0,0c1.5-1.7,4.1-1.9,5.9-0.4c1.7,1.5,1.9,4.1,0.4,5.9l-4.5,5.2
				c-1.5,1.7-4.1,1.9-5.9,0.4C1317.5,1119.7,1317.3,1117.1,1318.8,1115.3L1318.8,1115.3L1318.8,1115.3z"/>
			<path class="st9" d="M1333.5,1098l4.3-5.3l0,0c1.4-1.8,4-2.1,5.8-0.6c1.8,1.4,2.1,4,0.6,5.8l-4.3,5.4c-1.4,1.8-4,2.1-5.8,0.6
				C1332.3,1102.4,1332,1099.8,1333.5,1098L1333.5,1098L1333.5,1098z"/>
			<path class="st9" d="M1347.4,1080.1l4.1-5.4l0,0c1.4-1.8,3.9-2.2,5.7-0.8c1.8,1.4,2.2,3.9,0.8,5.7l-4.1,5.5
				c-1.4,1.8-3.9,2.2-5.8,0.9C1346.4,1084.6,1346.1,1082,1347.4,1080.1L1347.4,1080.1L1347.4,1080.1z"/>
			<path class="st9" d="M1360.8,1061.8l3.9-5.6l0,0c1.3-1.8,3.8-2.3,5.6-1c1.8,1.3,2.3,3.8,1,5.6l-3.9,5.7c-1.3,1.9-3.8,2.3-5.7,1.1
				C1359.9,1066.3,1359.5,1063.7,1360.8,1061.8L1360.8,1061.8L1360.8,1061.8z"/>
			<path class="st9" d="M1373.5,1043l3.7-5.7l0,0c1.2-1.9,3.7-2.4,5.5-1.2c1.9,1.2,2.4,3.7,1.2,5.5l-3.7,5.8
				c-1.2,1.9-3.7,2.4-5.6,1.2C1372.8,1047.4,1372.3,1044.9,1373.5,1043L1373.5,1043L1373.5,1043z"/>
			<path class="st9" d="M1385.6,1023.8l3.5-5.8l0,0c1.1-1.9,3.6-2.5,5.4-1.3c1.9,1.1,2.5,3.6,1.3,5.4l-3.6,5.9
				c-1.1,1.9-3.6,2.5-5.5,1.3C1385.1,1028.2,1384.5,1025.8,1385.6,1023.8L1385.6,1023.8L1385.6,1023.8z"/>
			<path class="st9" d="M1397.3,1004.4l3.4-5.9l0,0c1.1-1.9,3.5-2.5,5.3-1.4c1.9,1.1,2.5,3.5,1.4,5.3l-3.4,5.9
				c-1.1,1.9-3.5,2.5-5.4,1.4C1396.9,1008.7,1396.2,1006.3,1397.3,1004.4L1397.3,1004.4L1397.3,1004.4z"/>
			<path class="st9" d="M1408.7,984.6l3.3-6l0,0c1-1.9,3.4-2.5,5.3-1.5c1.9,1,2.5,3.4,1.5,5.2l-3.3,6c-1,1.9-3.4,2.5-5.3,1.5
				C1408.3,988.9,1407.6,986.5,1408.7,984.6L1408.7,984.6L1408.7,984.6z"/>
			<path class="st9" d="M1419.7,964.7l3.3-6c1-1.8,3.3-2.5,5.2-1.5c1.8,1,2.5,3.3,1.5,5.2l-3.3,6c-1,1.9-3.3,2.5-5.2,1.5
				C1419.4,968.9,1418.7,966.6,1419.7,964.7L1419.7,964.7z"/>
			<path class="st9" d="M1430.7,944.7l3.3-6c1-1.8,3.3-2.5,5.1-1.5c1.8,1,2.5,3.3,1.5,5.1l-3.2,6c-1,1.8-3.3,2.5-5.1,1.5
				C1430.3,948.9,1429.7,946.6,1430.7,944.7L1430.7,944.7z"/>
			<path class="st9" d="M1441.5,924.6l3.3-6c1-1.8,3.2-2.5,5-1.5c1.8,1,2.5,3.2,1.5,5l-3.2,6c-1,1.8-3.2,2.5-5.1,1.5
				C1441.2,928.7,1440.5,926.5,1441.5,924.6L1441.5,924.6z"/>
			<path class="st9" d="M1452.4,904.6l3.3-6c1-1.8,3.2-2.4,5-1.4c1.8,1,2.4,3.2,1.4,5l-3.3,6c-1,1.8-3.2,2.5-5,1.5
				C1452.1,908.6,1451.5,906.4,1452.4,904.6L1452.4,904.6z"/>
			<path class="st9" d="M1463.5,884.6l3.4-6c1-1.7,3.2-2.4,4.9-1.4c1.7,1,2.4,3.2,1.4,4.9h0l-3.3,6l0,0c-1,1.8-3.2,2.4-5,1.4
				C1463.2,888.6,1462.6,886.4,1463.5,884.6L1463.5,884.6z"/>
			<path class="st9" d="M1474.9,864.7l3.5-5.9c1-1.7,3.2-2.3,4.9-1.3c1.7,1,2.3,3.2,1.3,4.9l0,0l-3.4,5.9l0,0
				c-1,1.7-3.2,2.3-4.9,1.3C1474.5,868.7,1473.9,866.5,1474.9,864.7L1474.9,864.7z"/>
			<path class="st9" d="M1486.6,845.1l3.6-5.8c1-1.7,3.2-2.2,4.9-1.2c1.7,1,2.2,3.2,1.2,4.9l0,0l-3.6,5.8l0,0
				c-1,1.7-3.2,2.2-4.9,1.2C1486.1,848.9,1485.6,846.7,1486.6,845.1L1486.6,845.1z"/>
			<path class="st9" d="M1498.8,825.7l3.8-5.8c1.1-1.6,3.2-2.1,4.8-1c1.6,1.1,2.1,3.2,1,4.8l0,0l-3.7,5.7l0,0c-1,1.6-3.2,2.1-4.8,1
				C1498.2,829.5,1497.8,827.3,1498.8,825.7L1498.8,825.7z"/>
			<path class="st9" d="M1511.6,806.6l4-5.6c1.1-1.6,3.2-1.9,4.8-0.8c1.6,1.1,1.9,3.2,0.8,4.8l0,0l-3.9,5.6l0,0
				c-1.1,1.6-3.2,1.9-4.8,0.9C1510.9,810.4,1510.5,808.2,1511.6,806.6L1511.6,806.6z"/>
			<path class="st9" d="M1525,788l4.2-5.5c1.1-1.5,3.3-1.8,4.7-0.6c1.5,1.1,1.8,3.3,0.6,4.7l0,0l-4.1,5.4l0,0
				c-1.1,1.5-3.3,1.8-4.8,0.6C1524.2,791.7,1523.9,789.5,1525,788L1525,788z"/>
			<path class="st9" d="M1539.3,770.1l4.5-5.3c1.2-1.4,3.3-1.6,4.6-0.4c1.4,1.2,1.6,3.2,0.4,4.6l0,0l-4.4,5.2l0,0
				c-1.2,1.4-3.3,1.6-4.7,0.4C1538.3,773.6,1538.1,771.5,1539.3,770.1L1539.3,770.1z"/>
			<path class="st9" d="M1554.5,752.8l4.7-5c1.2-1.3,3.2-1.4,4.5-0.1c1.3,1.2,1.4,3.2,0.2,4.5l0,0l-4.6,5l0,0
				c-1.2,1.3-3.3,1.4-4.6,0.2C1553.4,756.2,1553.3,754.1,1554.5,752.8L1554.5,752.8z"/>
			<path class="st9" d="M1570.5,736.3l5-4.8c1.2-1.2,3.2-1.2,4.4,0.1c1.2,1.2,1.2,3.2-0.1,4.4l0,0l-4.9,4.7l0,0
				c-1.2,1.2-3.2,1.2-4.5-0.1S1569.3,737.6,1570.5,736.3L1570.5,736.3z"/>
			<path class="st9" d="M1587.4,720.8l5.2-4.5c1.3-1.1,3.2-0.9,4.3,0.3c1.1,1.3,0.9,3.2-0.3,4.3l0,0l-5.1,4.5l0,0
				c-1.3,1.1-3.2,1-4.3-0.3C1586,723.8,1586.1,721.9,1587.4,720.8L1587.4,720.8z"/>
			<path class="st9" d="M1605.2,706.2l5.5-4.2c1.3-1,3.2-0.7,4.1,0.6c1,1.3,0.7,3.1-0.5,4.1l0,0l-5.4,4.1l0,0
				c-1.3,1-3.2,0.8-4.2-0.5C1603.6,709,1603.9,707.2,1605.2,706.2L1605.2,706.2z"/>
			<path class="st9" d="M1623.8,692.7l5.8-3.8c1.3-0.9,3.1-0.5,4,0.8c0.9,1.3,0.5,3.1-0.8,4l-0.1,0l-5.6,3.8l0,0
				c-1.3,0.9-3.1,0.5-4-0.8C1622.1,695.4,1622.5,693.6,1623.8,692.7L1623.8,692.7z"/>
			<path class="st9" d="M1643.3,680.5l6-3.4c1.3-0.8,3-0.3,3.8,1.1c0.7,1.3,0.3,3-1,3.8l-0.1,0l-5.9,3.4l-0.1,0
				c-1.3,0.8-3.1,0.3-3.8-1C1641.5,682.9,1642,681.2,1643.3,680.5L1643.3,680.5z"/>
			<path class="st9" d="M1663.7,669.7l6.3-2.9c1.3-0.6,3,0,3.6,1.3c0.6,1.3,0,2.9-1.3,3.6l-0.1,0l-6.1,2.9l-0.1,0
				c-1.4,0.6-3,0.1-3.6-1.3C1661.8,672,1662.3,670.4,1663.7,669.7L1663.7,669.7z"/>
			<path class="st9" d="M1684.9,660.6l6.5-2.4c1.4-0.5,2.9,0.2,3.3,1.6c0.5,1.3-0.2,2.8-1.5,3.3l-0.1,0l-6.3,2.4l-0.1,0
				c-1.4,0.5-2.9-0.2-3.4-1.5C1682.8,662.7,1683.5,661.1,1684.9,660.6L1684.9,660.6z"/>
			<path class="st9" d="M1706.8,653.4l6.7-1.8c1.3-0.4,2.7,0.5,3.1,1.8c0.4,1.3-0.4,2.7-1.8,3.1l-0.1,0l-6.5,1.8l-0.1,0
				c-1.4,0.4-2.8-0.4-3.1-1.8C1704.6,655.2,1705.4,653.8,1706.8,653.4L1706.8,653.4z"/>
			<path class="st9" d="M1729.3,648.4l6.8-1.1c1.3-0.2,2.6,0.7,2.8,2c0.2,1.3-0.7,2.6-2,2.8l-0.1,0l-6.7,1.1l-0.1,0
				c-1.3,0.2-2.6-0.7-2.8-2C1727,649.9,1727.9,648.6,1729.3,648.4L1729.3,648.4z"/>
			<path class="st9" d="M1752.2,645.6l6.9-0.4c1.3-0.1,2.4,0.9,2.5,2.2c0.1,1.3-0.9,2.4-2.2,2.5l-0.1,0l-6.8,0.4l-0.1,0
				c-1.3,0.1-2.4-0.9-2.5-2.2C1749.8,646.8,1750.8,645.7,1752.2,645.6L1752.2,645.6z"/>
			<path class="st9" d="M1775.2,645.3l2.6,0.1c1.3,0.1,2.2,1.1,2.2,2.4c-0.1,1.3-1.1,2.2-2.4,2.2l0,0l-2.6-0.1l0,0
				c-1.3-0.1-2.2-1.1-2.2-2.4C1772.9,646.3,1773.9,645.3,1775.2,645.3L1775.2,645.3z"/>
		</g>
	</g>
</g>
</svg>
